<?xml version="1.0" encoding="utf-8"?>
<svg xmlns="http://www.w3.org/2000/svg" xmlns:xlink="http://www.w3.org/1999/xlink" width="600" height="400" viewBox="0 0 2400 1600">
<defs>
  <clipPath id="clip590">
    <rect x="0" y="0" width="2400" height="1600"/>
  </clipPath>
</defs>
<path clip-path="url(#clip590)" d="M0 1600 L2400 1600 L2400 0 L0 0  Z" fill="#ffffff" fill-rule="evenodd" fill-opacity="1"/>
<defs>
  <clipPath id="clip591">
    <rect x="480" y="0" width="1681" height="1600"/>
  </clipPath>
</defs>
<path clip-path="url(#clip590)" d="M255.977 1423.18 L2352.76 1423.18 L2352.76 47.2441 L255.977 47.2441  Z" fill="#ffffff" fill-rule="evenodd" fill-opacity="1"/>
<defs>
  <clipPath id="clip592">
    <rect x="255" y="47" width="2098" height="1377"/>
  </clipPath>
</defs>
<polyline clip-path="url(#clip592)" style="stroke:#000000; stroke-linecap:round; stroke-linejoin:round; stroke-width:2; stroke-opacity:0.1; fill:none" points="315.32,1423.18 315.32,47.2441 "/>
<polyline clip-path="url(#clip592)" style="stroke:#000000; stroke-linecap:round; stroke-linejoin:round; stroke-width:2; stroke-opacity:0.1; fill:none" points="710.939,1423.18 710.939,47.2441 "/>
<polyline clip-path="url(#clip592)" style="stroke:#000000; stroke-linecap:round; stroke-linejoin:round; stroke-width:2; stroke-opacity:0.1; fill:none" points="1106.56,1423.18 1106.56,47.2441 "/>
<polyline clip-path="url(#clip592)" style="stroke:#000000; stroke-linecap:round; stroke-linejoin:round; stroke-width:2; stroke-opacity:0.1; fill:none" points="1502.18,1423.18 1502.18,47.2441 "/>
<polyline clip-path="url(#clip592)" style="stroke:#000000; stroke-linecap:round; stroke-linejoin:round; stroke-width:2; stroke-opacity:0.1; fill:none" points="1897.79,1423.18 1897.79,47.2441 "/>
<polyline clip-path="url(#clip592)" style="stroke:#000000; stroke-linecap:round; stroke-linejoin:round; stroke-width:2; stroke-opacity:0.1; fill:none" points="2293.41,1423.18 2293.41,47.2441 "/>
<polyline clip-path="url(#clip592)" style="stroke:#000000; stroke-linecap:round; stroke-linejoin:round; stroke-width:2; stroke-opacity:0.1; fill:none" points="255.977,1316.69 2352.76,1316.69 "/>
<polyline clip-path="url(#clip592)" style="stroke:#000000; stroke-linecap:round; stroke-linejoin:round; stroke-width:2; stroke-opacity:0.1; fill:none" points="255.977,1120.19 2352.76,1120.19 "/>
<polyline clip-path="url(#clip592)" style="stroke:#000000; stroke-linecap:round; stroke-linejoin:round; stroke-width:2; stroke-opacity:0.1; fill:none" points="255.977,923.69 2352.76,923.69 "/>
<polyline clip-path="url(#clip592)" style="stroke:#000000; stroke-linecap:round; stroke-linejoin:round; stroke-width:2; stroke-opacity:0.1; fill:none" points="255.977,727.19 2352.76,727.19 "/>
<polyline clip-path="url(#clip592)" style="stroke:#000000; stroke-linecap:round; stroke-linejoin:round; stroke-width:2; stroke-opacity:0.1; fill:none" points="255.977,530.69 2352.76,530.69 "/>
<polyline clip-path="url(#clip592)" style="stroke:#000000; stroke-linecap:round; stroke-linejoin:round; stroke-width:2; stroke-opacity:0.1; fill:none" points="255.977,334.19 2352.76,334.19 "/>
<polyline clip-path="url(#clip592)" style="stroke:#000000; stroke-linecap:round; stroke-linejoin:round; stroke-width:2; stroke-opacity:0.1; fill:none" points="255.977,137.691 2352.76,137.691 "/>
<polyline clip-path="url(#clip590)" style="stroke:#000000; stroke-linecap:round; stroke-linejoin:round; stroke-width:4; stroke-opacity:1; fill:none" points="255.977,1423.18 2352.76,1423.18 "/>
<polyline clip-path="url(#clip590)" style="stroke:#000000; stroke-linecap:round; stroke-linejoin:round; stroke-width:4; stroke-opacity:1; fill:none" points="315.32,1423.18 315.32,1404.28 "/>
<polyline clip-path="url(#clip590)" style="stroke:#000000; stroke-linecap:round; stroke-linejoin:round; stroke-width:4; stroke-opacity:1; fill:none" points="710.939,1423.18 710.939,1404.28 "/>
<polyline clip-path="url(#clip590)" style="stroke:#000000; stroke-linecap:round; stroke-linejoin:round; stroke-width:4; stroke-opacity:1; fill:none" points="1106.56,1423.18 1106.56,1404.28 "/>
<polyline clip-path="url(#clip590)" style="stroke:#000000; stroke-linecap:round; stroke-linejoin:round; stroke-width:4; stroke-opacity:1; fill:none" points="1502.18,1423.18 1502.18,1404.28 "/>
<polyline clip-path="url(#clip590)" style="stroke:#000000; stroke-linecap:round; stroke-linejoin:round; stroke-width:4; stroke-opacity:1; fill:none" points="1897.79,1423.18 1897.79,1404.28 "/>
<polyline clip-path="url(#clip590)" style="stroke:#000000; stroke-linecap:round; stroke-linejoin:round; stroke-width:4; stroke-opacity:1; fill:none" points="2293.41,1423.18 2293.41,1404.28 "/>
<path clip-path="url(#clip590)" d="M315.32 1454.1 Q311.709 1454.1 309.88 1457.66 Q308.075 1461.2 308.075 1468.33 Q308.075 1475.44 309.88 1479.01 Q311.709 1482.55 315.32 1482.55 Q318.954 1482.55 320.76 1479.01 Q322.588 1475.44 322.588 1468.33 Q322.588 1461.2 320.76 1457.66 Q318.954 1454.1 315.32 1454.1 M315.32 1450.39 Q321.13 1450.39 324.186 1455 Q327.264 1459.58 327.264 1468.33 Q327.264 1477.06 324.186 1481.67 Q321.13 1486.25 315.32 1486.25 Q309.51 1486.25 306.431 1481.67 Q303.376 1477.06 303.376 1468.33 Q303.376 1459.58 306.431 1455 Q309.51 1450.39 315.32 1450.39 Z" fill="#000000" fill-rule="nonzero" fill-opacity="1" /><path clip-path="url(#clip590)" d="M701.321 1481.64 L708.959 1481.64 L708.959 1455.28 L700.649 1456.95 L700.649 1452.69 L708.913 1451.02 L713.589 1451.02 L713.589 1481.64 L721.228 1481.64 L721.228 1485.58 L701.321 1485.58 L701.321 1481.64 Z" fill="#000000" fill-rule="nonzero" fill-opacity="1" /><path clip-path="url(#clip590)" d="M1101.21 1481.64 L1117.53 1481.64 L1117.53 1485.58 L1095.59 1485.58 L1095.59 1481.64 Q1098.25 1478.89 1102.83 1474.26 Q1107.44 1469.61 1108.62 1468.27 Q1110.86 1465.74 1111.74 1464.01 Q1112.65 1462.25 1112.65 1460.56 Q1112.65 1457.8 1110.7 1456.07 Q1108.78 1454.33 1105.68 1454.33 Q1103.48 1454.33 1101.02 1455.09 Q1098.59 1455.86 1095.82 1457.41 L1095.82 1452.69 Q1098.64 1451.55 1101.09 1450.97 Q1103.55 1450.39 1105.59 1450.39 Q1110.96 1450.39 1114.15 1453.08 Q1117.34 1455.77 1117.34 1460.26 Q1117.34 1462.39 1116.53 1464.31 Q1115.75 1466.2 1113.64 1468.8 Q1113.06 1469.47 1109.96 1472.69 Q1106.86 1475.88 1101.21 1481.64 Z" fill="#000000" fill-rule="nonzero" fill-opacity="1" /><path clip-path="url(#clip590)" d="M1506.42 1466.95 Q1509.78 1467.66 1511.65 1469.93 Q1513.55 1472.2 1513.55 1475.53 Q1513.55 1480.65 1510.03 1483.45 Q1506.52 1486.25 1500.03 1486.25 Q1497.86 1486.25 1495.54 1485.81 Q1493.25 1485.39 1490.8 1484.54 L1490.8 1480.02 Q1492.74 1481.16 1495.06 1481.74 Q1497.37 1482.32 1499.9 1482.32 Q1504.29 1482.32 1506.59 1480.58 Q1508.9 1478.84 1508.9 1475.53 Q1508.9 1472.48 1506.75 1470.77 Q1504.62 1469.03 1500.8 1469.03 L1496.77 1469.03 L1496.77 1465.19 L1500.98 1465.19 Q1504.43 1465.19 1506.26 1463.82 Q1508.09 1462.43 1508.09 1459.84 Q1508.09 1457.18 1506.19 1455.77 Q1504.32 1454.33 1500.8 1454.33 Q1498.88 1454.33 1496.68 1454.75 Q1494.48 1455.16 1491.84 1456.04 L1491.84 1451.88 Q1494.5 1451.14 1496.82 1450.77 Q1499.16 1450.39 1501.22 1450.39 Q1506.54 1450.39 1509.64 1452.83 Q1512.74 1455.23 1512.74 1459.35 Q1512.74 1462.22 1511.1 1464.21 Q1509.46 1466.18 1506.42 1466.95 Z" fill="#000000" fill-rule="nonzero" fill-opacity="1" /><path clip-path="url(#clip590)" d="M1900.8 1455.09 L1889 1473.54 L1900.8 1473.54 L1900.8 1455.09 M1899.58 1451.02 L1905.46 1451.02 L1905.46 1473.54 L1910.39 1473.54 L1910.39 1477.43 L1905.46 1477.43 L1905.46 1485.58 L1900.8 1485.58 L1900.8 1477.43 L1885.2 1477.43 L1885.2 1472.92 L1899.58 1451.02 Z" fill="#000000" fill-rule="nonzero" fill-opacity="1" /><path clip-path="url(#clip590)" d="M2283.69 1451.02 L2302.05 1451.02 L2302.05 1454.96 L2287.97 1454.96 L2287.97 1463.43 Q2288.99 1463.08 2290.01 1462.92 Q2291.03 1462.73 2292.05 1462.73 Q2297.83 1462.73 2301.21 1465.9 Q2304.59 1469.08 2304.59 1474.49 Q2304.59 1480.07 2301.12 1483.17 Q2297.65 1486.25 2291.33 1486.25 Q2289.15 1486.25 2286.89 1485.88 Q2284.64 1485.51 2282.23 1484.77 L2282.23 1480.07 Q2284.32 1481.2 2286.54 1481.76 Q2288.76 1482.32 2291.24 1482.32 Q2295.24 1482.32 2297.58 1480.21 Q2299.92 1478.1 2299.92 1474.49 Q2299.92 1470.88 2297.58 1468.77 Q2295.24 1466.67 2291.24 1466.67 Q2289.36 1466.67 2287.49 1467.08 Q2285.64 1467.5 2283.69 1468.38 L2283.69 1451.02 Z" fill="#000000" fill-rule="nonzero" fill-opacity="1" /><path clip-path="url(#clip590)" d="M1226.24 1520.52 L1266.44 1520.52 L1266.44 1525.93 L1249.57 1525.93 L1249.57 1568.04 L1243.11 1568.04 L1243.11 1525.93 L1226.24 1525.93 L1226.24 1520.52 Z" fill="#000000" fill-rule="nonzero" fill-opacity="1" /><path clip-path="url(#clip590)" d="M1270.39 1532.4 L1276.25 1532.4 L1276.25 1568.04 L1270.39 1568.04 L1270.39 1532.4 M1270.39 1518.52 L1276.25 1518.52 L1276.25 1525.93 L1270.39 1525.93 L1270.39 1518.52 Z" fill="#000000" fill-rule="nonzero" fill-opacity="1" /><path clip-path="url(#clip590)" d="M1316.25 1539.24 Q1318.45 1535.29 1321.51 1533.41 Q1324.56 1531.54 1328.7 1531.54 Q1334.27 1531.54 1337.29 1535.45 Q1340.32 1539.33 1340.32 1546.53 L1340.32 1568.04 L1334.43 1568.04 L1334.43 1546.72 Q1334.43 1541.59 1332.61 1539.11 Q1330.8 1536.63 1327.08 1536.63 Q1322.52 1536.63 1319.88 1539.65 Q1317.24 1542.68 1317.24 1547.9 L1317.24 1568.04 L1311.35 1568.04 L1311.35 1546.72 Q1311.35 1541.56 1309.54 1539.11 Q1307.72 1536.63 1303.94 1536.63 Q1299.45 1536.63 1296.81 1539.68 Q1294.17 1542.71 1294.17 1547.9 L1294.17 1568.04 L1288.28 1568.04 L1288.28 1532.4 L1294.17 1532.4 L1294.17 1537.93 Q1296.17 1534.66 1298.97 1533.1 Q1301.77 1531.54 1305.62 1531.54 Q1309.51 1531.54 1312.21 1533.51 Q1314.95 1535.48 1316.25 1539.24 Z" fill="#000000" fill-rule="nonzero" fill-opacity="1" /><path clip-path="url(#clip590)" d="M1382.49 1548.76 L1382.49 1551.62 L1355.56 1551.62 Q1355.94 1557.67 1359.19 1560.85 Q1362.47 1564 1368.29 1564 Q1371.67 1564 1374.82 1563.17 Q1378 1562.35 1381.12 1560.69 L1381.12 1566.23 Q1377.97 1567.57 1374.66 1568.27 Q1371.35 1568.97 1367.94 1568.97 Q1359.41 1568.97 1354.42 1564 Q1349.45 1559.04 1349.45 1550.57 Q1349.45 1541.82 1354.16 1536.69 Q1358.9 1531.54 1366.93 1531.54 Q1374.12 1531.54 1378.29 1536.18 Q1382.49 1540.8 1382.49 1548.76 M1376.63 1547.04 Q1376.57 1542.23 1373.93 1539.37 Q1371.32 1536.5 1366.99 1536.5 Q1362.09 1536.5 1359.13 1539.27 Q1356.2 1542.04 1355.75 1547.07 L1376.63 1547.04 Z" fill="#000000" fill-rule="nonzero" fill-opacity="1" /><polyline clip-path="url(#clip590)" style="stroke:#000000; stroke-linecap:round; stroke-linejoin:round; stroke-width:4; stroke-opacity:1; fill:none" points="255.977,1423.18 255.977,47.2441 "/>
<polyline clip-path="url(#clip590)" style="stroke:#000000; stroke-linecap:round; stroke-linejoin:round; stroke-width:4; stroke-opacity:1; fill:none" points="255.977,1316.69 274.875,1316.69 "/>
<polyline clip-path="url(#clip590)" style="stroke:#000000; stroke-linecap:round; stroke-linejoin:round; stroke-width:4; stroke-opacity:1; fill:none" points="255.977,1120.19 274.875,1120.19 "/>
<polyline clip-path="url(#clip590)" style="stroke:#000000; stroke-linecap:round; stroke-linejoin:round; stroke-width:4; stroke-opacity:1; fill:none" points="255.977,923.69 274.875,923.69 "/>
<polyline clip-path="url(#clip590)" style="stroke:#000000; stroke-linecap:round; stroke-linejoin:round; stroke-width:4; stroke-opacity:1; fill:none" points="255.977,727.19 274.875,727.19 "/>
<polyline clip-path="url(#clip590)" style="stroke:#000000; stroke-linecap:round; stroke-linejoin:round; stroke-width:4; stroke-opacity:1; fill:none" points="255.977,530.69 274.875,530.69 "/>
<polyline clip-path="url(#clip590)" style="stroke:#000000; stroke-linecap:round; stroke-linejoin:round; stroke-width:4; stroke-opacity:1; fill:none" points="255.977,334.19 274.875,334.19 "/>
<polyline clip-path="url(#clip590)" style="stroke:#000000; stroke-linecap:round; stroke-linejoin:round; stroke-width:4; stroke-opacity:1; fill:none" points="255.977,137.691 274.875,137.691 "/>
<path clip-path="url(#clip590)" d="M114.26 1317.14 L143.936 1317.14 L143.936 1321.08 L114.26 1321.08 L114.26 1317.14 Z" fill="#000000" fill-rule="nonzero" fill-opacity="1" /><path clip-path="url(#clip590)" d="M164.028 1302.49 Q160.417 1302.49 158.589 1306.05 Q156.783 1309.59 156.783 1316.72 Q156.783 1323.83 158.589 1327.4 Q160.417 1330.94 164.028 1330.94 Q167.663 1330.94 169.468 1327.4 Q171.297 1323.83 171.297 1316.72 Q171.297 1309.59 169.468 1306.05 Q167.663 1302.49 164.028 1302.49 M164.028 1298.78 Q169.839 1298.78 172.894 1303.39 Q175.973 1307.97 175.973 1316.72 Q175.973 1325.45 172.894 1330.06 Q169.839 1334.64 164.028 1334.64 Q158.218 1334.64 155.14 1330.06 Q152.084 1325.45 152.084 1316.72 Q152.084 1307.97 155.14 1303.39 Q158.218 1298.78 164.028 1298.78 Z" fill="#000000" fill-rule="nonzero" fill-opacity="1" /><path clip-path="url(#clip590)" d="M184.19 1328.09 L189.075 1328.09 L189.075 1333.97 L184.19 1333.97 L184.19 1328.09 Z" fill="#000000" fill-rule="nonzero" fill-opacity="1" /><path clip-path="url(#clip590)" d="M200.07 1330.03 L207.709 1330.03 L207.709 1303.67 L199.399 1305.34 L199.399 1301.08 L207.662 1299.41 L212.338 1299.41 L212.338 1330.03 L219.977 1330.03 L219.977 1333.97 L200.07 1333.97 L200.07 1330.03 Z" fill="#000000" fill-rule="nonzero" fill-opacity="1" /><path clip-path="url(#clip590)" d="M162.802 1105.99 Q159.19 1105.99 157.362 1109.55 Q155.556 1113.09 155.556 1120.22 Q155.556 1127.33 157.362 1130.9 Q159.19 1134.44 162.802 1134.44 Q166.436 1134.44 168.241 1130.9 Q170.07 1127.33 170.07 1120.22 Q170.07 1113.09 168.241 1109.55 Q166.436 1105.99 162.802 1105.99 M162.802 1102.28 Q168.612 1102.28 171.667 1106.89 Q174.746 1111.47 174.746 1120.22 Q174.746 1128.95 171.667 1133.56 Q168.612 1138.14 162.802 1138.14 Q156.991 1138.14 153.913 1133.56 Q150.857 1128.95 150.857 1120.22 Q150.857 1111.47 153.913 1106.89 Q156.991 1102.28 162.802 1102.28 Z" fill="#000000" fill-rule="nonzero" fill-opacity="1" /><path clip-path="url(#clip590)" d="M182.963 1131.59 L187.848 1131.59 L187.848 1137.47 L182.963 1137.47 L182.963 1131.59 Z" fill="#000000" fill-rule="nonzero" fill-opacity="1" /><path clip-path="url(#clip590)" d="M208.033 1105.99 Q204.422 1105.99 202.593 1109.55 Q200.787 1113.09 200.787 1120.22 Q200.787 1127.33 202.593 1130.9 Q204.422 1134.44 208.033 1134.44 Q211.667 1134.44 213.473 1130.9 Q215.301 1127.33 215.301 1120.22 Q215.301 1113.09 213.473 1109.55 Q211.667 1105.99 208.033 1105.99 M208.033 1102.28 Q213.843 1102.28 216.898 1106.89 Q219.977 1111.47 219.977 1120.22 Q219.977 1128.95 216.898 1133.56 Q213.843 1138.14 208.033 1138.14 Q202.223 1138.14 199.144 1133.56 Q196.088 1128.95 196.088 1120.22 Q196.088 1111.47 199.144 1106.89 Q202.223 1102.28 208.033 1102.28 Z" fill="#000000" fill-rule="nonzero" fill-opacity="1" /><path clip-path="url(#clip590)" d="M164.028 909.489 Q160.417 909.489 158.589 913.053 Q156.783 916.595 156.783 923.725 Q156.783 930.831 158.589 934.396 Q160.417 937.937 164.028 937.937 Q167.663 937.937 169.468 934.396 Q171.297 930.831 171.297 923.725 Q171.297 916.595 169.468 913.053 Q167.663 909.489 164.028 909.489 M164.028 905.785 Q169.839 905.785 172.894 910.391 Q175.973 914.975 175.973 923.725 Q175.973 932.451 172.894 937.058 Q169.839 941.641 164.028 941.641 Q158.218 941.641 155.14 937.058 Q152.084 932.451 152.084 923.725 Q152.084 914.975 155.14 910.391 Q158.218 905.785 164.028 905.785 Z" fill="#000000" fill-rule="nonzero" fill-opacity="1" /><path clip-path="url(#clip590)" d="M184.19 935.09 L189.075 935.09 L189.075 940.97 L184.19 940.97 L184.19 935.09 Z" fill="#000000" fill-rule="nonzero" fill-opacity="1" /><path clip-path="url(#clip590)" d="M200.07 937.035 L207.709 937.035 L207.709 910.669 L199.399 912.336 L199.399 908.076 L207.662 906.41 L212.338 906.41 L212.338 937.035 L219.977 937.035 L219.977 940.97 L200.07 940.97 L200.07 937.035 Z" fill="#000000" fill-rule="nonzero" fill-opacity="1" /><path clip-path="url(#clip590)" d="M164.399 712.989 Q160.788 712.989 158.959 716.553 Q157.153 720.095 157.153 727.225 Q157.153 734.331 158.959 737.896 Q160.788 741.438 164.399 741.438 Q168.033 741.438 169.839 737.896 Q171.667 734.331 171.667 727.225 Q171.667 720.095 169.839 716.553 Q168.033 712.989 164.399 712.989 M164.399 709.285 Q170.209 709.285 173.264 713.891 Q176.343 718.475 176.343 727.225 Q176.343 735.952 173.264 740.558 Q170.209 745.141 164.399 745.141 Q158.589 745.141 155.51 740.558 Q152.454 735.952 152.454 727.225 Q152.454 718.475 155.51 713.891 Q158.589 709.285 164.399 709.285 Z" fill="#000000" fill-rule="nonzero" fill-opacity="1" /><path clip-path="url(#clip590)" d="M184.561 738.59 L189.445 738.59 L189.445 744.47 L184.561 744.47 L184.561 738.59 Z" fill="#000000" fill-rule="nonzero" fill-opacity="1" /><path clip-path="url(#clip590)" d="M203.658 740.535 L219.977 740.535 L219.977 744.47 L198.033 744.47 L198.033 740.535 Q200.695 737.78 205.278 733.151 Q209.885 728.498 211.065 727.155 Q213.311 724.632 214.19 722.896 Q215.093 721.137 215.093 719.447 Q215.093 716.692 213.149 714.956 Q211.227 713.22 208.125 713.22 Q205.926 713.22 203.473 713.984 Q201.042 714.748 198.264 716.299 L198.264 711.577 Q201.088 710.442 203.542 709.864 Q205.996 709.285 208.033 709.285 Q213.403 709.285 216.598 711.97 Q219.792 714.655 219.792 719.146 Q219.792 721.276 218.982 723.197 Q218.195 725.095 216.088 727.688 Q215.51 728.359 212.408 731.577 Q209.306 734.771 203.658 740.535 Z" fill="#000000" fill-rule="nonzero" fill-opacity="1" /><path clip-path="url(#clip590)" d="M163.45 516.489 Q159.839 516.489 158.01 520.054 Q156.204 523.595 156.204 530.725 Q156.204 537.831 158.01 541.396 Q159.839 544.938 163.45 544.938 Q167.084 544.938 168.889 541.396 Q170.718 537.831 170.718 530.725 Q170.718 523.595 168.889 520.054 Q167.084 516.489 163.45 516.489 M163.45 512.785 Q169.26 512.785 172.315 517.392 Q175.394 521.975 175.394 530.725 Q175.394 539.452 172.315 544.058 Q169.26 548.641 163.45 548.641 Q157.64 548.641 154.561 544.058 Q151.505 539.452 151.505 530.725 Q151.505 521.975 154.561 517.392 Q157.64 512.785 163.45 512.785 Z" fill="#000000" fill-rule="nonzero" fill-opacity="1" /><path clip-path="url(#clip590)" d="M183.612 542.091 L188.496 542.091 L188.496 547.97 L183.612 547.97 L183.612 542.091 Z" fill="#000000" fill-rule="nonzero" fill-opacity="1" /><path clip-path="url(#clip590)" d="M212.848 529.336 Q216.204 530.054 218.079 532.322 Q219.977 534.591 219.977 537.924 Q219.977 543.04 216.459 545.841 Q212.94 548.641 206.459 548.641 Q204.283 548.641 201.968 548.202 Q199.676 547.785 197.223 546.929 L197.223 542.415 Q199.167 543.549 201.482 544.128 Q203.797 544.706 206.32 544.706 Q210.718 544.706 213.01 542.97 Q215.324 541.234 215.324 537.924 Q215.324 534.868 213.172 533.155 Q211.042 531.419 207.223 531.419 L203.195 531.419 L203.195 527.577 L207.408 527.577 Q210.857 527.577 212.686 526.211 Q214.514 524.822 214.514 522.23 Q214.514 519.568 212.616 518.156 Q210.741 516.72 207.223 516.72 Q205.301 516.72 203.102 517.137 Q200.903 517.554 198.264 518.433 L198.264 514.267 Q200.926 513.526 203.241 513.156 Q205.579 512.785 207.639 512.785 Q212.963 512.785 216.065 515.216 Q219.167 517.623 219.167 521.743 Q219.167 524.614 217.523 526.605 Q215.88 528.572 212.848 529.336 Z" fill="#000000" fill-rule="nonzero" fill-opacity="1" /><path clip-path="url(#clip590)" d="M162.315 319.989 Q158.704 319.989 156.876 323.554 Q155.07 327.095 155.07 334.225 Q155.07 341.332 156.876 344.896 Q158.704 348.438 162.315 348.438 Q165.95 348.438 167.755 344.896 Q169.584 341.332 169.584 334.225 Q169.584 327.095 167.755 323.554 Q165.95 319.989 162.315 319.989 M162.315 316.285 Q168.126 316.285 171.181 320.892 Q174.26 325.475 174.26 334.225 Q174.26 342.952 171.181 347.558 Q168.126 352.142 162.315 352.142 Q156.505 352.142 153.427 347.558 Q150.371 342.952 150.371 334.225 Q150.371 325.475 153.427 320.892 Q156.505 316.285 162.315 316.285 Z" fill="#000000" fill-rule="nonzero" fill-opacity="1" /><path clip-path="url(#clip590)" d="M182.477 345.591 L187.362 345.591 L187.362 351.47 L182.477 351.47 L182.477 345.591 Z" fill="#000000" fill-rule="nonzero" fill-opacity="1" /><path clip-path="url(#clip590)" d="M210.394 320.984 L198.588 339.433 L210.394 339.433 L210.394 320.984 M209.167 316.91 L215.047 316.91 L215.047 339.433 L219.977 339.433 L219.977 343.322 L215.047 343.322 L215.047 351.47 L210.394 351.47 L210.394 343.322 L194.792 343.322 L194.792 338.808 L209.167 316.91 Z" fill="#000000" fill-rule="nonzero" fill-opacity="1" /><path clip-path="url(#clip590)" d="M163.797 123.489 Q160.186 123.489 158.357 127.054 Q156.552 130.596 156.552 137.725 Q156.552 144.832 158.357 148.396 Q160.186 151.938 163.797 151.938 Q167.431 151.938 169.237 148.396 Q171.065 144.832 171.065 137.725 Q171.065 130.596 169.237 127.054 Q167.431 123.489 163.797 123.489 M163.797 119.786 Q169.607 119.786 172.663 124.392 Q175.741 128.975 175.741 137.725 Q175.741 146.452 172.663 151.059 Q169.607 155.642 163.797 155.642 Q157.987 155.642 154.908 151.059 Q151.853 146.452 151.853 137.725 Q151.853 128.975 154.908 124.392 Q157.987 119.786 163.797 119.786 Z" fill="#000000" fill-rule="nonzero" fill-opacity="1" /><path clip-path="url(#clip590)" d="M183.959 149.091 L188.843 149.091 L188.843 154.971 L183.959 154.971 L183.959 149.091 Z" fill="#000000" fill-rule="nonzero" fill-opacity="1" /><path clip-path="url(#clip590)" d="M199.075 120.411 L217.431 120.411 L217.431 124.346 L203.357 124.346 L203.357 132.818 Q204.375 132.471 205.394 132.309 Q206.412 132.123 207.431 132.123 Q213.218 132.123 216.598 135.295 Q219.977 138.466 219.977 143.883 Q219.977 149.461 216.505 152.563 Q213.033 155.642 206.713 155.642 Q204.537 155.642 202.269 155.271 Q200.024 154.901 197.616 154.16 L197.616 149.461 Q199.7 150.596 201.922 151.151 Q204.144 151.707 206.621 151.707 Q210.625 151.707 212.963 149.6 Q215.301 147.494 215.301 143.883 Q215.301 140.272 212.963 138.165 Q210.625 136.059 206.621 136.059 Q204.746 136.059 202.871 136.475 Q201.019 136.892 199.075 137.772 L199.075 120.411 Z" fill="#000000" fill-rule="nonzero" fill-opacity="1" /><path clip-path="url(#clip590)" d="M28.3562 718.597 L45.7028 731.488 L64.0042 717.929 L64.0042 724.836 L49.9996 735.212 L64.0042 745.588 L64.0042 752.495 L45.3526 738.649 L28.3562 751.317 L28.3562 744.41 L41.0558 734.957 L28.3562 725.504 L28.3562 718.597 Z" fill="#000000" fill-rule="nonzero" fill-opacity="1" /><polyline clip-path="url(#clip592)" style="stroke:#800080; stroke-linecap:round; stroke-linejoin:round; stroke-width:4; stroke-opacity:1; fill:none" points="315.32,1120.19 319.276,1120.16 323.232,1120.06 327.189,1119.91 331.145,1119.68 335.101,1119.4 339.057,1119.06 343.013,1118.65 346.969,1118.18 350.926,1117.65 354.882,1117.06 358.838,1116.4 362.794,1115.69 366.75,1114.92 370.707,1114.08 374.663,1113.19 378.619,1112.23 382.575,1111.22 386.531,1110.14 390.488,1109.01 394.444,1107.82 398.4,1106.57 402.356,1105.27 406.312,1103.9 410.268,1102.48 414.225,1101 418.181,1099.47 422.137,1097.88 426.093,1096.23 430.049,1094.53 434.006,1092.77 437.962,1090.96 441.918,1089.09 445.874,1087.17 449.83,1085.2 453.786,1083.17 457.743,1081.09 461.699,1078.96 465.655,1076.77 469.611,1074.54 473.567,1072.25 477.524,1069.91 481.48,1067.52 485.436,1065.08 489.392,1062.59 493.348,1060.05 497.305,1057.46 501.261,1054.83 505.217,1052.14 509.173,1049.41 513.129,1046.63 517.085,1043.81 521.042,1040.94 524.998,1038.02 528.954,1035.06 532.91,1032.05 536.866,1029 540.823,1025.91 544.779,1022.77 548.735,1019.59 552.691,1016.37 556.647,1013.1 560.604,1009.79 564.56,1006.45 568.516,1003.06 572.472,999.632 576.428,996.166 580.384,992.66 584.341,989.116 588.297,985.534 592.253,981.915 596.209,978.26 600.165,974.568 604.122,970.84 608.078,967.077 612.034,963.28 615.99,959.448 619.946,955.583 623.903,951.685 627.859,947.755 631.815,943.792 635.771,939.799 639.727,935.774 643.683,931.72 647.64,927.635 651.596,923.522 655.552,919.38 659.508,915.21 663.464,911.013 667.421,906.789 671.377,902.539 675.333,898.263 679.289,893.962 683.245,889.636 687.201,885.287 691.158,880.914 695.114,876.519 699.07,872.101 703.026,867.662 706.982,863.202 710.939,858.722 714.895,854.222 718.851,849.702 722.807,845.165 726.763,840.609 730.72,836.035 734.676,831.445 738.632,826.839 742.588,822.218 746.544,817.581 750.5,812.93 754.457,808.265 758.413,803.587 762.369,798.897 766.325,794.195 770.281,789.482 774.238,784.757 778.194,780.023 782.15,775.279 786.106,770.527 790.062,765.766 794.019,760.998 797.975,756.222 801.931,751.44 805.887,746.653 809.843,741.86 813.799,737.063 817.756,732.262 821.712,727.458 825.668,722.651 829.624,717.842 833.58,713.032 837.537,708.22 841.493,703.409 845.449,698.598 849.405,693.788 853.361,688.98 857.317,684.173 861.274,679.37 865.23,674.57 869.186,669.775 873.142,664.984 877.098,660.198 881.055,655.418 885.011,650.645 888.967,645.879 892.923,641.12 896.879,636.37 900.836,631.629 904.792,626.897 908.748,622.175 912.704,617.464 916.66,612.765 920.616,608.077 924.573,603.402 928.529,598.74 932.485,594.093 936.441,589.459 940.397,584.84 944.354,580.236 948.31,575.648 952.266,571.077 956.222,566.523 960.178,561.987 964.135,557.469 968.091,552.97 972.047,548.49 976.003,544.031 979.959,539.592 983.915,535.174 987.872,530.779 991.828,526.405 995.784,522.054 999.74,517.727 1003.7,513.424 1007.65,509.145 1011.61,504.892 1015.56,500.664 1019.52,496.462 1023.48,492.287 1027.43,488.139 1031.39,484.019 1035.35,479.927 1039.3,475.864 1043.26,471.831 1047.21,467.827 1051.17,463.854 1055.13,459.911 1059.08,456 1063.04,452.12 1067,448.273 1070.95,444.459 1074.91,440.678 1078.86,436.931 1082.82,433.219 1086.78,429.541 1090.73,425.898 1094.69,422.291 1098.64,418.721 1102.6,415.187 1106.56,411.69 1110.51,408.23 1114.47,404.809 1118.43,401.426 1122.38,398.082 1126.34,394.778 1130.29,391.513 1134.25,388.288 1138.21,385.105 1142.16,381.963 1146.12,378.865 1150.08,375.808 1154.03,372.792 1157.99,369.82 1161.94,366.89 1165.9,364.003 1169.86,361.16 1173.81,358.36 1177.77,355.606 1181.72,352.896 1185.68,350.231 1189.64,347.612 1193.59,345.039 1197.55,342.513 1201.51,340.033 1205.46,337.6 1209.42,335.215 1213.37,332.878 1217.33,330.588 1221.29,328.348 1225.24,326.156 1229.2,324.014 1233.16,321.921 1237.11,319.878 1241.07,317.885 1245.02,315.942 1248.98,314.05 1252.94,312.21 1256.89,310.421 1260.85,308.683 1264.8,306.997 1268.76,305.363 1272.72,303.782 1276.67,302.254 1280.63,300.778 1284.59,299.356 1288.54,297.987 1292.5,296.672 1296.45,295.41 1300.41,294.203 1304.37,293.05 1308.32,291.951 1312.28,290.908 1316.24,289.919 1320.19,288.985 1324.15,288.107 1328.1,287.283 1332.06,286.516 1336.02,285.804 1339.97,285.149 1343.93,284.549 1347.88,284.006 1351.84,283.519 1355.8,283.089 1359.75,282.715 1363.71,282.398 1367.67,282.138 1371.62,281.935 1375.58,281.789 1379.53,281.7 1383.49,281.668 1387.45,281.694 1391.4,281.777 1395.36,281.918 1399.32,282.116 1403.27,282.372 1407.23,282.686 1411.18,283.057 1415.14,283.486 1419.1,283.973 1423.05,284.518 1427.01,285.121 1430.96,285.781 1434.92,286.5 1438.88,287.276 1442.83,288.111 1446.79,289.003 1450.75,289.953 1454.7,290.961 1458.66,292.026 1462.61,293.15 1466.57,294.331 1470.53,295.57 1474.48,296.866 1478.44,298.221 1482.39,299.632 1486.35,301.102 1490.31,302.628 1494.26,304.212 1498.22,305.853 1502.18,307.551 1506.13,309.307 1510.09,311.12 1514.04,312.989 1518,314.916 1521.96,316.899 1525.91,318.939 1529.87,321.035 1533.83,323.187 1537.78,325.396 1541.74,327.661 1545.69,329.982 1549.65,332.358 1553.61,334.79 1557.56,337.278 1561.52,339.821 1565.47,342.419 1569.43,345.071 1573.39,347.779 1577.34,350.541 1581.3,353.357 1585.26,356.227 1589.21,359.152 1593.17,362.13 1597.12,365.161 1601.08,368.246 1605.04,371.383 1608.99,374.573 1612.95,377.816 1616.91,381.111 1620.86,384.458 1624.82,387.857 1628.77,391.308 1632.73,394.809 1636.69,398.361 1640.64,401.964 1644.6,405.618 1648.55,409.321 1652.51,413.074 1656.47,416.877 1660.42,420.729 1664.38,424.63 1668.34,428.579 1672.29,432.576 1676.25,436.621 1680.2,440.714 1684.16,444.853 1688.12,449.04 1692.07,453.273 1696.03,457.552 1699.99,461.877 1703.94,466.247 1707.9,470.662 1711.85,475.122 1715.81,479.626 1719.77,484.174 1723.72,488.765 1727.68,493.399 1731.63,498.076 1735.59,502.795 1739.55,507.556 1743.5,512.357 1747.46,517.199 1751.42,522.081 1755.37,527.005 1759.33,531.968 1763.28,536.971 1767.24,542.012 1771.2,547.092 1775.15,552.211 1779.11,557.367 1783.07,562.56 1787.02,567.789 1790.98,573.055 1794.93,578.357 1798.89,583.694 1802.85,589.065 1806.8,594.471 1810.76,599.911 1814.71,605.383 1818.67,610.889 1822.63,616.427 1826.58,621.996 1830.54,627.597 1834.5,633.229 1838.45,638.891 1842.41,644.582 1846.36,650.303 1850.32,656.053 1854.28,661.83 1858.23,667.636 1862.19,673.468 1866.14,679.328 1870.1,685.213 1874.06,691.524 1878.01,697.867 1881.97,704.235 1885.93,710.627 1889.88,717.043 1893.84,723.482 1897.79,729.944 1901.75,736.428 1905.71,742.933 1909.66,749.459 1913.62,756.005 1917.58,762.571 1921.53,769.156 1925.49,775.759 1929.44,782.38 1933.4,789.019 1937.36,795.674 1941.31,802.345 1945.27,809.032 1949.22,815.733 1953.18,822.449 1957.14,829.178 1961.09,835.921 1965.05,842.675 1969.01,849.442 1972.96,856.219 1976.92,863.007 1980.87,869.805 1984.83,876.613 1988.79,883.428 1992.74,890.252 1996.7,897.083 2000.66,903.921 2004.61,910.765 2008.57,917.615 2012.52,924.469 2016.48,931.327 2020.44,938.189 2024.39,945.053 2028.35,951.92 2032.3,958.788 2036.26,965.657 2040.22,972.525 2044.17,979.393 2048.13,986.26 2052.09,993.125 2056.04,999.989 2060,1006.85 2063.95,1013.71 2067.91,1020.56 2071.87,1027.41 2075.82,1034.25 2079.78,1041.09 2083.74,1047.92 2087.69,1054.75 2091.65,1061.56 2095.6,1068.37 2099.56,1075.17 2103.52,1081.96 2107.47,1088.73 2111.43,1095.5 2115.38,1102.26 2119.34,1109 2123.3,1115.73 2127.25,1122.44 2131.21,1129.15 2135.17,1135.83 2139.12,1142.5 2143.08,1149.16 2147.03,1155.8 2150.99,1162.42 2154.95,1169.02 2158.9,1175.61 2162.86,1182.17 2166.82,1188.72 2170.77,1195.24 2174.73,1201.75 2178.68,1208.23 2182.64,1214.69 2186.6,1221.13 2190.55,1227.54 2194.51,1233.94 2198.46,1240.3 2202.42,1246.64 2206.38,1252.96 2210.33,1259.25 2214.29,1265.51 2218.25,1271.74 2222.2,1277.95 2226.16,1284.13 2230.11,1290.28 2234.07,1296.4 2238.03,1302.48 2241.98,1308.54 2245.94,1314.57 2249.9,1320.56 2253.85,1326.53 2257.81,1332.45 2261.76,1338.35 2265.72,1344.21 2269.68,1350.04 2273.63,1355.83 2277.59,1361.58 2281.54,1367.3 2285.5,1372.98 2289.46,1378.63 2293.41,1384.23 "/>
<polyline clip-path="url(#clip592)" style="stroke:#800080; stroke-linecap:round; stroke-linejoin:round; stroke-width:4; stroke-opacity:1; fill:none" points="315.32,727.19 319.276,728.424 323.232,729.591 327.189,730.691 331.145,731.724 335.101,732.69 339.057,733.59 343.013,734.424 346.969,735.192 350.926,735.895 354.882,736.532 358.838,737.105 362.794,737.612 366.75,738.055 370.707,738.434 374.663,738.749 378.619,739.001 382.575,739.189 386.531,739.314 390.488,739.377 394.444,739.377 398.4,739.315 402.356,739.191 406.312,739.007 410.268,738.761 414.225,738.454 418.181,738.087 422.137,737.66 426.093,737.174 430.049,736.628 434.006,736.023 437.962,735.36 441.918,734.639 445.874,733.86 449.83,733.023 453.786,732.13 457.743,731.18 461.699,730.174 465.655,729.112 469.611,727.979 473.567,726.726 477.524,725.415 481.48,724.047 485.436,722.621 489.392,721.139 493.348,719.601 497.305,718.008 501.261,716.359 505.217,714.656 509.173,712.898 513.129,711.087 517.085,709.223 521.042,707.306 524.998,705.337 528.954,703.316 532.91,701.244 536.866,699.122 540.823,696.95 544.779,694.728 548.735,692.458 552.691,690.139 556.647,687.772 560.604,685.358 564.56,682.897 568.516,680.39 572.472,677.837 576.428,675.239 580.384,672.597 584.341,669.911 588.297,667.181 592.253,664.409 596.209,661.595 600.165,658.739 604.122,655.841 608.078,652.904 612.034,649.927 615.99,646.91 619.946,643.855 623.903,640.762 627.859,637.631 631.815,634.463 635.771,631.26 639.727,628.02 643.683,624.746 647.64,621.437 651.596,618.095 655.552,614.719 659.508,611.311 663.464,607.871 667.421,604.399 671.377,600.897 675.333,597.365 679.289,593.804 683.245,590.214 687.201,586.596 691.158,582.95 695.114,579.278 699.07,575.579 703.026,571.856 706.982,568.107 710.939,564.334 714.895,560.537 718.851,556.718 722.807,552.876 726.763,549.012 730.72,545.128 734.676,541.223 738.632,537.299 742.588,533.356 746.544,529.394 750.5,525.415 754.457,521.419 758.413,517.406 762.369,513.378 766.325,509.335 770.281,505.277 774.238,501.206 778.194,497.122 782.15,493.026 786.106,488.918 790.062,484.799 794.019,480.67 797.975,476.531 801.931,472.383 805.887,468.226 809.843,464.062 813.799,459.891 817.756,455.714 821.712,451.531 825.668,447.343 829.624,443.151 833.58,438.955 837.537,434.756 841.493,430.554 845.449,426.351 849.405,422.147 853.361,417.943 857.317,413.739 861.274,409.536 865.23,405.334 869.186,401.135 873.142,396.939 877.098,392.746 881.055,388.558 885.011,384.375 888.967,380.198 892.923,376.026 896.879,371.862 900.836,367.704 904.792,363.555 908.748,359.415 912.704,355.284 916.66,351.163 920.616,347.053 924.573,342.954 928.529,338.868 932.485,334.793 936.441,330.733 940.397,326.686 944.354,322.654 948.31,318.637 952.266,314.635 956.222,310.651 960.178,306.683 964.135,302.733 968.091,298.801 972.047,294.888 976.003,290.995 979.959,287.122 983.915,283.27 987.872,279.439 991.828,275.63 995.784,271.843 999.74,268.08 1003.7,264.34 1007.65,260.625 1011.61,256.934 1015.56,253.269 1019.52,249.63 1023.48,246.017 1027.43,242.432 1031.39,238.874 1035.35,235.344 1039.3,231.844 1043.26,228.372 1047.21,224.931 1051.17,221.52 1055.13,218.14 1059.08,214.792 1063.04,211.476 1067,208.192 1070.95,204.942 1074.91,201.725 1078.86,198.542 1082.82,195.394 1086.78,192.282 1090.73,189.205 1094.69,186.164 1098.64,183.16 1102.6,180.195 1106.56,177.268 1110.51,174.379 1114.47,171.528 1118.43,168.715 1122.38,165.943 1126.34,163.21 1130.29,160.517 1134.25,157.866 1138.21,155.255 1142.16,152.687 1146.12,150.161 1150.08,147.677 1154.03,145.237 1157.99,142.841 1161.94,140.488 1165.9,138.18 1169.86,135.917 1173.81,133.699 1177.77,131.527 1181.72,129.402 1185.68,127.323 1189.64,125.29 1193.59,123.306 1197.55,121.369 1201.51,119.48 1205.46,117.64 1209.42,115.848 1213.37,114.106 1217.33,112.413 1221.29,110.771 1225.24,109.178 1229.2,107.637 1233.16,106.146 1237.11,104.707 1241.07,103.319 1245.02,101.983 1248.98,100.699 1252.94,99.4677 1256.89,98.2892 1260.85,97.1638 1264.8,96.0918 1268.76,95.0734 1272.72,94.109 1276.67,93.1986 1280.63,92.3427 1284.59,91.5415 1288.54,90.7952 1292.5,90.104 1296.45,89.4682 1300.41,88.888 1304.37,88.3636 1308.32,87.8953 1312.28,87.4831 1316.24,87.1274 1320.19,86.8283 1324.15,86.586 1328.1,86.4007 1332.06,86.2726 1336.02,86.2018 1339.97,86.1885 1343.93,86.2328 1347.88,86.3349 1351.84,86.495 1355.8,86.7131 1359.75,86.9895 1363.71,87.3241 1367.67,87.7172 1371.62,88.1689 1375.58,88.6792 1379.53,89.2483 1383.49,89.8762 1387.45,90.5631 1391.4,91.309 1395.36,92.114 1399.32,92.9782 1403.27,93.9021 1407.23,94.8852 1411.18,95.9276 1415.14,97.0294 1419.1,98.1905 1423.05,99.4111 1427.01,100.691 1430.96,102.031 1434.92,103.43 1438.88,104.888 1442.83,106.406 1446.79,107.984 1450.75,109.621 1454.7,111.317 1458.66,113.073 1462.61,114.888 1466.57,116.763 1470.53,118.697 1474.48,120.69 1478.44,122.743 1482.39,124.854 1486.35,127.025 1490.31,129.255 1494.26,131.544 1498.22,133.891 1502.18,136.298 1506.13,138.763 1510.09,141.286 1514.04,143.869 1518,146.509 1521.96,149.208 1525.91,151.964 1529.87,154.779 1533.83,157.652 1537.78,160.582 1541.74,163.569 1545.69,166.614 1549.65,169.716 1553.61,172.876 1557.56,176.092 1561.52,179.364 1565.47,182.693 1569.43,186.078 1573.39,189.52 1577.34,193.017 1581.3,196.569 1585.26,200.177 1589.21,203.84 1593.17,207.559 1597.12,211.331 1601.08,215.158 1605.04,219.04 1608.99,222.975 1612.95,226.964 1616.91,231.006 1620.86,235.101 1624.82,239.249 1628.77,243.449 1632.73,247.702 1636.69,252.006 1640.64,256.362 1644.6,260.769 1648.55,265.227 1652.51,269.736 1656.47,274.295 1660.42,278.904 1664.38,283.562 1668.34,288.27 1672.29,293.026 1676.25,297.831 1680.2,302.684 1684.16,307.584 1688.12,312.532 1692.07,317.527 1696.03,322.568 1699.99,327.655 1703.94,332.786 1707.9,337.964 1711.85,343.186 1715.81,348.454 1719.77,353.766 1723.72,359.121 1727.68,364.521 1731.63,369.963 1735.59,375.448 1739.55,380.975 1743.5,386.544 1747.46,392.154 1751.42,397.804 1755.37,403.495 1759.33,409.226 1763.28,414.996 1767.24,420.805 1771.2,426.632 1775.15,432.406 1779.11,438.126 1783.07,443.795 1787.02,449.42 1790.98,455.066 1794.93,460.747 1798.89,466.463 1802.85,472.212 1806.8,477.994 1810.76,483.808 1814.71,489.655 1818.67,495.534 1822.63,501.444 1826.58,507.384 1830.54,513.355 1834.5,519.355 1838.45,525.385 1842.41,531.442 1846.36,537.528 1850.32,543.642 1854.28,549.783 1858.23,555.95 1862.19,562.143 1866.14,568.361 1870.1,574.605 1874.06,580.873 1878.01,587.165 1881.97,593.48 1885.93,599.818 1889.88,606.178 1893.84,612.56 1897.79,618.963 1901.75,625.387 1905.71,631.831 1909.66,638.294 1913.62,644.777 1917.58,651.278 1921.53,657.797 1925.49,664.333 1929.44,670.886 1933.4,677.456 1937.36,684.041 1941.31,690.641 1945.27,697.256 1949.22,703.885 1953.18,710.528 1957.14,717.183 1961.09,723.85 1965.05,730.53 1969.01,737.221 1972.96,743.922 1976.92,750.633 1980.87,757.354 1984.83,764.083 1988.79,770.821 1992.74,777.567 1996.7,784.32 2000.66,791.08 2004.61,797.845 2008.57,804.616 2012.52,811.392 2016.48,818.172 2020.44,824.955 2024.39,831.742 2028.35,838.531 2032.3,845.322 2036.26,852.114 2040.22,858.907 2044.17,865.699 2048.13,872.492 2052.09,879.283 2056.04,886.072 2060,892.859 2063.95,899.643 2067.91,906.423 2071.87,913.199 2075.82,919.971 2079.78,926.736 2083.74,933.496 2087.69,940.249 2091.65,946.995 2095.6,953.732 2099.56,960.46 2103.52,967.18 2107.47,973.891 2111.43,980.591 2115.38,987.281 2119.34,993.959 2123.3,1000.63 2127.25,1007.28 2131.21,1013.92 2135.17,1020.55 2139.12,1027.16 2143.08,1033.76 2147.03,1040.34 2150.99,1046.91 2154.95,1053.46 2158.9,1059.99 2162.86,1066.51 2166.82,1073.01 2170.77,1079.48 2174.73,1085.94 2178.68,1092.38 2182.64,1098.8 2186.6,1105.2 2190.55,1111.57 2194.51,1117.92 2198.46,1124.25 2202.42,1130.56 2206.38,1136.84 2210.33,1143.1 2214.29,1149.33 2218.25,1155.54 2222.2,1161.72 2226.16,1167.88 2230.11,1174 2234.07,1180.1 2238.03,1186.17 2241.98,1192.22 2245.94,1198.23 2249.9,1204.21 2253.85,1210.16 2257.81,1216.09 2261.76,1221.98 2265.72,1227.83 2269.68,1233.66 2273.63,1239.45 2277.59,1245.21 2281.54,1250.94 2285.5,1256.63 2289.46,1262.28 2293.41,1267.9 "/>
<polyline clip-path="url(#clip592)" style="stroke:#ff0000; stroke-linecap:round; stroke-linejoin:round; stroke-width:4; stroke-opacity:1; fill:none" points="315.32,1119.97 319.276,1119.94 323.232,1119.84 327.189,1119.67 331.145,1119.44 335.101,1119.14 339.057,1118.77 343.013,1118.33 346.969,1117.83 350.926,1117.27 354.882,1116.64 358.838,1115.94 362.794,1115.18 366.75,1114.36 370.707,1113.47 374.663,1112.52 378.619,1111.5 382.575,1110.42 386.531,1109.28 390.488,1108.07 394.444,1106.86 398.4,1105.6 402.356,1104.28 406.312,1102.9 410.268,1101.47 414.225,1099.98 418.181,1098.43 422.137,1096.82 426.093,1095.16 430.049,1093.44 434.006,1091.66 437.962,1089.84 441.918,1087.95 445.874,1086.01 449.83,1084.02 453.786,1081.97 457.743,1079.87 461.699,1077.72 465.655,1075.51 469.611,1073.25 473.567,1070.94 477.524,1068.58 481.48,1066.16 485.436,1063.7 489.392,1061.19 493.348,1058.62 497.305,1056.01 501.261,1053.35 505.217,1050.64 509.173,1047.88 513.129,1045.07 517.085,1042.22 521.042,1039.32 524.998,1036.37 528.954,1033.38 532.91,1030.35 536.866,1027.27 540.823,1024.14 544.779,1020.97 548.735,1017.76 552.691,1014.5 556.647,1011.21 560.604,1007.87 564.56,1004.49 568.516,1001.07 572.472,997.607 576.428,994.106 580.384,990.566 584.341,986.988 588.297,983.371 592.253,979.717 596.209,976.026 600.165,972.298 604.122,968.534 608.078,964.734 612.034,960.9 615.99,957.032 619.946,953.129 623.903,949.194 627.859,945.226 631.815,941.225 635.771,937.193 639.727,933.13 643.683,929.037 647.64,924.914 651.596,920.761 655.552,916.58 659.508,912.37 663.464,908.133 667.421,903.869 671.377,899.579 675.333,895.262 679.289,890.921 683.245,886.555 687.201,882.165 691.158,877.751 695.114,873.314 699.07,868.856 703.026,864.375 706.982,859.874 710.939,855.352 714.895,850.81 718.851,846.249 722.807,841.669 726.763,837.072 730.72,832.456 734.676,827.824 738.632,823.176 742.588,818.512 746.544,813.833 750.5,809.14 754.457,804.433 758.413,799.713 762.369,794.981 766.325,790.236 770.281,785.481 774.238,780.74 778.194,776.005 782.15,771.261 786.106,766.507 790.062,761.746 794.019,756.977 797.975,752.201 801.931,747.418 805.887,742.63 809.843,737.837 813.799,733.039 817.756,728.237 821.712,723.432 825.668,718.624 829.624,713.814 833.58,709.003 837.537,704.191 841.493,699.379 845.449,694.567 849.405,689.756 853.361,684.947 857.317,680.14 861.274,675.336 865.23,670.535 869.186,665.739 873.142,660.947 877.098,656.161 881.055,651.38 885.011,646.606 888.967,641.839 892.923,637.08 896.879,632.329 900.836,627.587 904.792,622.855 908.748,618.132 912.704,613.421 916.66,608.722 920.616,604.034 924.573,599.358 928.529,594.696 932.485,590.048 936.441,585.413 940.397,580.794 944.354,576.19 948.31,571.602 952.266,567.03 956.222,562.476 960.178,557.94 964.135,553.422 968.091,548.923 972.047,544.444 976.003,539.984 979.959,535.546 983.915,531.129 987.872,526.733 991.828,522.36 995.784,518.01 999.74,513.684 1003.7,509.381 1007.65,505.104 1011.61,500.851 1015.56,496.624 1019.52,492.423 1023.48,488.249 1027.43,484.103 1031.39,479.984 1035.35,475.893 1039.3,471.832 1043.26,467.8 1047.21,463.797 1051.17,459.826 1055.13,455.885 1059.08,451.975 1063.04,448.098 1067,444.253 1070.95,440.44 1074.91,436.662 1078.86,432.917 1082.82,429.206 1086.78,425.531 1090.73,421.89 1094.69,418.286 1098.64,414.718 1102.6,411.186 1106.56,407.692 1110.51,404.236 1114.47,400.817 1118.43,397.438 1122.38,394.097 1126.34,390.797 1130.29,387.538 1134.25,384.318 1138.21,381.139 1142.16,378.001 1146.12,374.904 1150.08,371.85 1154.03,368.837 1157.99,365.867 1161.94,362.94 1165.9,360.056 1169.86,357.216 1173.81,354.421 1177.77,351.67 1181.72,348.965 1185.68,346.305 1189.64,343.691 1193.59,341.123 1197.55,338.601 1201.51,336.127 1205.46,333.7 1209.42,331.321 1213.37,328.99 1217.33,326.707 1221.29,324.473 1225.24,322.288 1229.2,320.153 1233.16,318.067 1237.11,316.031 1241.07,314.045 1245.02,312.111 1248.98,310.227 1252.94,308.394 1256.89,306.613 1260.85,304.883 1264.8,303.206 1268.76,301.581 1272.72,300.008 1276.67,298.488 1280.63,297.021 1284.59,295.608 1288.54,294.248 1292.5,292.942 1296.45,291.69 1300.41,290.492 1304.37,289.348 1308.32,288.259 1312.28,287.225 1316.24,286.246 1320.19,285.322 1324.15,284.453 1328.1,283.64 1332.06,282.883 1336.02,282.181 1339.97,281.536 1343.93,280.947 1347.88,280.414 1351.84,279.937 1355.8,279.517 1359.75,279.154 1363.71,278.848 1367.67,278.598 1371.62,278.406 1375.58,278.271 1379.53,278.193 1383.49,278.172 1387.45,278.209 1391.4,278.304 1395.36,278.456 1399.32,278.665 1403.27,278.933 1407.23,279.258 1411.18,279.64 1415.14,280.081 1419.1,280.58 1423.05,281.136 1427.01,281.751 1430.96,282.423 1434.92,283.154 1438.88,283.942 1442.83,284.789 1446.79,285.693 1450.75,286.655 1454.7,287.676 1458.66,288.754 1462.61,289.891 1466.57,291.085 1470.53,292.337 1474.48,293.647 1478.44,295.015 1482.39,296.44 1486.35,297.923 1490.31,299.464 1494.26,301.062 1498.22,302.718 1502.18,304.431 1506.13,306.201 1510.09,308.029 1514.04,309.914 1518,311.855 1521.96,313.854 1525.91,315.909 1529.87,318.02 1533.83,320.189 1537.78,322.413 1541.74,324.694 1545.69,327.031 1549.65,329.423 1553.61,331.872 1557.56,334.376 1561.52,336.935 1565.47,339.55 1569.43,342.219 1573.39,344.944 1577.34,347.723 1581.3,350.557 1585.26,353.444 1589.21,356.386 1593.17,359.382 1597.12,362.431 1601.08,365.534 1605.04,368.689 1608.99,371.898 1612.95,375.159 1616.91,378.472 1620.86,381.838 1624.82,385.256 1628.77,388.725 1632.73,392.245 1636.69,395.816 1640.64,399.439 1644.6,403.111 1648.55,406.834 1652.51,410.606 1656.47,414.428 1660.42,418.3 1664.38,422.22 1668.34,426.188 1672.29,430.205 1676.25,434.27 1680.2,438.382 1684.16,442.542 1688.12,446.748 1692.07,451.001 1696.03,455.299 1699.99,459.644 1703.94,464.033 1707.9,468.467 1711.85,472.946 1715.81,477.469 1719.77,482.036 1723.72,486.647 1727.68,491.301 1731.63,495.998 1735.59,500.737 1739.55,505.518 1743.5,510.341 1747.46,515.205 1751.42,520.109 1755.37,525.054 1759.33,530.038 1763.28,535.062 1767.24,540.125 1771.2,545.226 1775.15,550.365 1779.11,555.541 1783.07,560.755 1787.02,566.005 1790.98,571.292 1794.93,576.617 1798.89,582.022 1802.85,587.461 1806.8,592.935 1810.76,598.443 1814.71,603.985 1818.67,609.559 1822.63,615.166 1826.58,620.805 1830.54,626.476 1834.5,632.178 1838.45,637.91 1842.41,643.672 1846.36,649.463 1850.32,655.284 1854.28,661.132 1858.23,667.009 1862.19,672.913 1866.14,678.843 1870.1,685.117 1874.06,691.427 1878.01,697.762 1881.97,704.122 1885.93,710.507 1889.88,716.915 1893.84,723.346 1897.79,729.8 1901.75,736.276 1905.71,742.774 1909.66,749.292 1913.62,755.83 1917.58,762.388 1921.53,768.965 1925.49,775.56 1929.44,782.173 1933.4,788.803 1937.36,795.449 1941.31,802.111 1945.27,808.789 1949.22,815.481 1953.18,822.187 1957.14,828.907 1961.09,835.64 1965.05,842.384 1969.01,849.141 1972.96,855.908 1976.92,862.686 1980.87,869.473 1984.83,876.27 1988.79,883.075 1992.74,889.888 1996.7,896.708 2000.66,903.535 2004.61,910.368 2008.57,917.206 2012.52,924.049 2016.48,930.897 2020.44,937.748 2024.39,944.601 2028.35,951.457 2032.3,958.315 2036.26,965.174 2040.22,972.033 2044.17,978.892 2048.13,985.75 2052.09,992.607 2056.04,999.462 2060,1006.31 2063.95,1013.16 2067.91,1020.01 2071.87,1026.85 2075.82,1033.68 2079.78,1040.51 2083.74,1047.33 2087.69,1054.15 2091.65,1060.95 2095.6,1067.75 2099.56,1074.54 2103.52,1081.32 2107.47,1088.09 2111.43,1094.85 2115.38,1101.6 2119.34,1108.33 2123.3,1115.06 2127.25,1121.77 2131.21,1128.46 2135.17,1135.14 2139.12,1141.8 2143.08,1148.45 2147.03,1155.08 2150.99,1161.7 2154.95,1168.29 2158.9,1174.87 2162.86,1181.43 2166.82,1187.97 2170.77,1194.48 2174.73,1200.98 2178.68,1207.46 2182.64,1213.91 2186.6,1220.34 2190.55,1226.75 2194.51,1233.14 2198.46,1239.49 2202.42,1245.83 2206.38,1252.14 2210.33,1258.42 2214.29,1264.68 2218.25,1270.9 2222.2,1277.1 2226.16,1283.28 2230.11,1289.42 2234.07,1295.53 2238.03,1301.61 2241.98,1307.67 2245.94,1313.69 2249.9,1319.67 2253.85,1325.63 2257.81,1331.55 2261.76,1337.44 2265.72,1343.3 2269.68,1349.12 2273.63,1354.9 2277.59,1360.65 2281.54,1366.36 2285.5,1372.04 2289.46,1377.68 2293.41,1383.28 "/>
<polyline clip-path="url(#clip592)" style="stroke:#ff0000; stroke-linecap:round; stroke-linejoin:round; stroke-width:4; stroke-opacity:1; fill:none" points="315.32,727.389 319.276,728.648 323.232,729.839 327.189,730.961 331.145,732.015 335.101,733.001 339.057,733.92 343.013,734.77 346.969,735.554 350.926,736.27 354.882,736.92 358.838,737.503 362.794,738.02 366.75,738.471 370.707,738.857 374.663,739.177 378.619,739.433 382.575,739.623 386.531,739.75 390.488,739.812 394.444,739.811 398.4,739.746 402.356,739.619 406.312,739.429 410.268,739.176 414.225,738.862 418.181,738.486 422.137,738.048 426.093,737.55 430.049,736.992 434.006,736.373 437.962,735.694 441.918,734.957 445.874,734.16 449.83,733.305 453.786,732.391 457.743,731.42 461.699,730.392 465.655,729.307 469.611,728.165 473.567,726.968 477.524,725.714 481.48,724.406 485.436,723.043 489.392,721.626 493.348,720.154 497.305,718.63 501.261,717.053 505.217,715.418 509.173,713.7 513.129,711.931 517.085,710.109 521.042,708.235 524.998,706.311 528.954,704.336 532.91,702.312 536.866,700.237 540.823,698.114 544.779,695.943 548.735,693.723 552.691,691.456 556.647,689.143 560.604,686.783 564.56,684.377 568.516,681.926 572.472,679.43 576.428,676.89 580.384,674.306 584.341,671.68 588.297,669.011 592.253,666.299 596.209,663.547 600.165,660.754 604.122,657.92 608.078,655.047 612.034,652.135 615.99,649.184 619.946,646.196 623.903,643.17 627.859,640.107 631.815,637.008 635.771,633.874 639.727,630.7 643.683,627.456 647.64,624.178 651.596,620.866 655.552,617.521 659.508,614.144 663.464,610.735 667.421,607.296 671.377,603.826 675.333,600.326 679.289,596.797 683.245,593.24 687.201,589.655 691.158,586.042 695.114,582.403 699.07,578.738 703.026,575.046 706.982,571.304 710.939,567.538 714.895,563.748 718.851,559.935 722.807,556.1 726.763,552.244 730.72,548.366 734.676,544.469 738.632,540.551 742.588,536.615 746.544,532.661 750.5,528.689 754.457,524.7 758.413,520.695 762.369,516.675 766.325,512.639 770.281,508.589 774.238,504.526 778.194,500.449 782.15,496.361 786.106,492.26 790.062,488.149 794.019,484.027 797.975,479.896 801.931,475.756 805.887,471.608 809.843,467.451 813.799,463.288 817.756,459.119 821.712,454.944 825.668,450.763 829.624,446.579 833.58,442.391 837.537,438.199 841.493,434.006 845.449,429.811 849.405,425.614 853.361,421.418 857.317,417.221 861.274,413.026 865.23,408.832 869.186,404.64 873.142,400.451 877.098,396.266 881.055,392.086 885.011,387.91 888.967,383.74 892.923,379.576 896.879,375.419 900.836,371.269 904.792,367.127 908.748,362.993 912.704,358.869 916.66,354.755 920.616,350.652 924.573,346.56 928.529,342.48 932.485,338.413 936.441,334.358 940.397,330.318 944.354,326.292 948.31,322.281 952.266,318.286 956.222,314.307 960.178,310.346 964.135,306.401 968.091,302.476 972.047,298.568 976.003,294.681 979.959,290.813 983.915,286.966 987.872,283.14 991.828,279.336 995.784,275.555 999.74,271.796 1003.7,268.061 1007.65,264.35 1011.61,260.664 1015.56,257.003 1019.52,253.368 1023.48,249.759 1027.43,246.178 1031.39,242.624 1035.35,239.098 1039.3,235.601 1043.26,232.133 1047.21,228.694 1051.17,225.287 1055.13,221.91 1059.08,218.564 1063.04,215.25 1067,211.969 1070.95,208.721 1074.91,205.506 1078.86,202.325 1082.82,199.179 1086.78,196.068 1090.73,192.992 1094.69,189.953 1098.64,186.95 1102.6,183.986 1106.56,181.059 1110.51,178.17 1114.47,175.32 1118.43,172.508 1122.38,169.735 1126.34,167.002 1130.29,164.309 1134.25,161.656 1138.21,159.045 1142.16,156.476 1146.12,153.949 1150.08,151.464 1154.03,149.022 1157.99,146.623 1161.94,144.269 1165.9,141.959 1169.86,139.693 1173.81,137.473 1177.77,135.298 1181.72,133.169 1185.68,131.087 1189.64,129.052 1193.59,127.063 1197.55,125.122 1201.51,123.229 1205.46,121.385 1209.42,119.589 1213.37,117.842 1217.33,116.145 1221.29,114.497 1225.24,112.899 1229.2,111.352 1233.16,109.855 1237.11,108.41 1241.07,107.016 1245.02,105.673 1248.98,104.383 1252.94,103.145 1256.89,101.959 1260.85,100.826 1264.8,99.7468 1268.76,98.7206 1272.72,97.7481 1276.67,96.8296 1280.63,95.9652 1284.59,95.1553 1288.54,94.4001 1292.5,93.6998 1296.45,93.0546 1300.41,92.4648 1304.37,91.9306 1308.32,91.4522 1312.28,91.0298 1316.24,90.6636 1320.19,90.3538 1324.15,90.1006 1328.1,89.9041 1332.06,89.7646 1336.02,89.6821 1339.97,89.6569 1343.93,89.6892 1347.88,89.779 1351.84,89.9265 1355.8,90.1319 1359.75,90.3952 1363.71,90.7167 1367.67,91.0963 1371.62,91.5343 1375.58,92.0307 1379.53,92.5857 1383.49,93.1993 1387.45,93.8716 1391.4,94.6027 1395.36,95.3927 1399.32,96.2416 1403.27,97.1499 1407.23,98.1174 1411.18,99.1438 1415.14,100.229 1419.1,101.374 1423.05,102.578 1427.01,103.842 1430.96,105.164 1434.92,106.546 1438.88,107.987 1442.83,109.487 1446.79,111.047 1450.75,112.666 1454.7,114.344 1458.66,116.081 1462.61,117.878 1466.57,119.733 1470.53,121.648 1474.48,123.622 1478.44,125.655 1482.39,127.747 1486.35,129.898 1490.31,132.107 1494.26,134.375 1498.22,136.702 1502.18,139.088 1506.13,141.532 1510.09,144.034 1514.04,146.595 1518,149.214 1521.96,151.891 1525.91,154.625 1529.87,157.418 1533.83,160.268 1537.78,163.175 1541.74,166.14 1545.69,169.162 1549.65,172.241 1553.61,175.377 1557.56,178.569 1561.52,181.818 1565.47,185.123 1569.43,188.484 1573.39,191.901 1577.34,195.374 1581.3,198.902 1585.26,202.485 1589.21,206.123 1593.17,209.816 1597.12,213.564 1601.08,217.365 1605.04,221.221 1608.99,225.13 1612.95,229.093 1616.91,233.109 1620.86,237.178 1624.82,241.299 1628.77,245.473 1632.73,249.699 1636.69,253.976 1640.64,258.305 1644.6,262.685 1648.55,267.116 1652.51,271.597 1656.47,276.128 1660.42,280.71 1664.38,285.34 1668.34,290.019 1672.29,294.748 1676.25,299.524 1680.2,304.349 1684.16,309.221 1688.12,314.14 1692.07,319.106 1696.03,324.118 1699.99,329.176 1703.94,334.279 1707.9,339.427 1711.85,344.62 1715.81,349.858 1719.77,355.14 1723.72,360.466 1727.68,365.836 1731.63,371.236 1735.59,376.651 1739.55,382.107 1743.5,387.606 1747.46,393.145 1751.42,398.673 1755.37,404.223 1759.33,409.812 1763.28,415.44 1767.24,421.106 1771.2,426.811 1775.15,432.526 1779.11,438.186 1783.07,443.881 1787.02,449.613 1790.98,455.379 1794.93,461.131 1798.89,466.901 1802.85,472.704 1806.8,478.54 1810.76,484.409 1814.71,490.31 1818.67,496.243 1822.63,502.207 1826.58,508.202 1830.54,514.227 1834.5,520.282 1838.45,526.366 1842.41,532.478 1846.36,538.619 1850.32,544.787 1854.28,550.983 1858.23,557.205 1862.19,563.453 1866.14,569.727 1870.1,576.025 1874.06,582.349 1878.01,588.696 1881.97,595.066 1885.93,601.459 1889.88,607.875 1893.84,614.313 1897.79,620.771 1901.75,627.251 1905.71,633.75 1909.66,640.269 1913.62,646.808 1917.58,653.344 1921.53,659.875 1925.49,666.423 1929.44,672.988 1933.4,679.57 1937.36,686.167 1941.31,692.78 1945.27,699.407 1949.22,706.048 1953.18,712.702 1957.14,719.37 1961.09,726.05 1965.05,732.742 1969.01,739.445 1972.96,746.158 1976.92,752.882 1980.87,759.615 1984.83,766.357 1988.79,773.107 1992.74,779.865 1996.7,786.631 2000.66,793.402 2004.61,800.18 2008.57,806.963 2012.52,813.751 2016.48,820.543 2020.44,827.339 2024.39,834.138 2028.35,840.939 2032.3,847.742 2036.26,854.546 2040.22,861.351 2044.17,868.155 2048.13,874.959 2052.09,881.762 2056.04,888.563 2060,895.361 2063.95,902.157 2067.91,908.948 2071.87,915.735 2075.82,922.518 2079.78,929.294 2083.74,936.064 2087.69,942.827 2091.65,949.583 2095.6,956.331 2099.56,963.071 2103.52,969.802 2107.47,976.524 2111.43,983.235 2115.38,989.936 2119.34,996.625 2123.3,1003.3 2127.25,1009.97 2131.21,1016.62 2135.17,1023.26 2139.12,1029.88 2143.08,1036.49 2147.03,1043.08 2150.99,1049.66 2154.95,1056.22 2158.9,1062.76 2162.86,1069.29 2166.82,1075.79 2170.77,1082.28 2174.73,1088.75 2178.68,1095.2 2182.64,1101.62 2186.6,1108.03 2190.55,1114.41 2194.51,1120.78 2198.46,1127.12 2202.42,1133.43 2206.38,1139.72 2210.33,1145.99 2214.29,1152.23 2218.25,1158.45 2222.2,1164.64 2226.16,1170.8 2230.11,1176.93 2234.07,1183.04 2238.03,1189.12 2241.98,1195.17 2245.94,1201.19 2249.9,1207.18 2253.85,1213.14 2257.81,1219.07 2261.76,1224.97 2265.72,1230.83 2269.68,1236.67 2273.63,1242.47 2277.59,1248.23 2281.54,1253.96 2285.5,1259.66 2289.46,1265.32 2293.41,1270.95 "/>
<polyline clip-path="url(#clip592)" style="stroke:#0000ff; stroke-linecap:round; stroke-linejoin:round; stroke-width:4; stroke-opacity:1; fill:none" stroke-dasharray="16, 10" points="315.32,1120.19 319.276,1120.16 323.232,1120.06 327.189,1119.91 331.145,1119.68 335.101,1119.4 339.057,1119.06 343.013,1118.65 346.969,1118.18 350.926,1117.65 354.882,1117.06 358.838,1116.4 362.794,1115.69 366.75,1114.92 370.707,1114.08 374.663,1113.19 378.619,1112.23 382.575,1111.22 386.531,1110.14 390.488,1109.01 394.444,1107.82 398.4,1106.57 402.356,1105.27 406.312,1103.9 410.268,1102.48 414.225,1101 418.181,1099.47 422.137,1097.88 426.093,1096.23 430.049,1094.53 434.006,1092.77 437.962,1090.96 441.918,1089.09 445.874,1087.17 449.83,1085.2 453.786,1083.17 457.743,1081.09 461.699,1078.96 465.655,1076.77 469.611,1074.54 473.567,1072.25 477.524,1069.91 481.48,1067.52 485.436,1065.08 489.392,1062.59 493.348,1060.05 497.305,1057.46 501.261,1054.83 505.217,1052.14 509.173,1049.41 513.129,1046.63 517.085,1043.81 521.042,1040.94 524.998,1038.02 528.954,1035.06 532.91,1032.05 536.866,1029 540.823,1025.91 544.779,1022.77 548.735,1019.59 552.691,1016.37 556.647,1013.1 560.604,1009.79 564.56,1006.45 568.516,1003.06 572.472,999.632 576.428,996.166 580.384,992.66 584.341,989.116 588.297,985.534 592.253,981.915 596.209,978.26 600.165,974.568 604.122,970.84 608.078,967.077 612.034,963.28 615.99,959.448 619.946,955.583 623.903,951.685 627.859,947.755 631.815,943.793 635.771,939.799 639.727,935.774 643.683,931.72 647.64,927.636 651.596,923.522 655.552,919.38 659.508,915.211 663.464,911.013 667.421,906.789 671.377,902.539 675.333,898.263 679.289,893.962 683.245,889.636 687.201,885.287 691.158,880.914 695.114,876.518 699.07,872.101 703.026,867.662 706.982,863.202 710.939,858.721 714.895,854.221 718.851,849.702 722.807,845.164 726.763,840.609 730.72,836.035 734.676,831.446 738.632,826.839 742.588,822.218 746.544,817.581 750.5,812.93 754.457,808.265 758.413,803.588 762.369,798.897 766.325,794.195 770.281,789.482 774.238,784.758 778.194,780.023 782.15,775.28 786.106,770.527 790.062,765.766 794.019,760.998 797.975,756.223 801.931,751.442 805.887,746.655 809.843,741.862 813.799,737.065 817.756,732.264 821.712,727.46 825.668,722.652 829.624,717.843 833.58,713.032 837.537,708.22 841.493,703.408 845.449,698.597 849.405,693.786 853.361,688.978 857.317,684.171 861.274,679.368 865.23,674.568 869.186,669.772 873.142,664.981 877.098,660.196 881.055,655.416 885.011,650.643 888.967,645.877 892.923,641.118 896.879,636.369 900.836,631.628 904.792,626.896 908.748,622.175 912.704,617.464 916.66,612.764 920.616,608.076 924.573,603.401 928.529,598.739 932.485,594.091 936.441,589.457 940.397,584.839 944.354,580.235 948.31,575.648 952.266,571.077 956.222,566.523 960.178,561.987 964.135,557.47 968.091,552.971 972.047,548.492 976.003,544.033 979.959,539.595 983.915,535.179 987.872,530.784 991.828,526.412 995.784,522.063 999.74,517.736 1003.7,513.433 1007.65,509.154 1011.61,504.9 1015.56,500.672 1019.52,496.469 1023.48,492.293 1027.43,488.144 1031.39,484.023 1035.35,479.93 1039.3,475.866 1043.26,471.831 1047.21,467.825 1051.17,463.85 1055.13,459.906 1059.08,455.993 1063.04,452.113 1067,448.265 1070.95,444.45 1074.91,440.669 1078.86,436.922 1082.82,433.21 1086.78,429.532 1090.73,425.89 1094.69,422.283 1098.64,418.712 1102.6,415.178 1106.56,411.681 1110.51,408.222 1114.47,404.801 1118.43,401.419 1122.38,398.076 1126.34,394.772 1130.29,391.508 1134.25,388.282 1138.21,385.097 1142.16,381.953 1146.12,378.852 1150.08,375.792 1154.03,372.776 1157.99,369.802 1161.94,366.871 1165.9,363.985 1169.86,361.142 1173.81,358.344 1177.77,355.591 1181.72,352.882 1185.68,350.22 1189.64,347.603 1193.59,345.032 1197.55,342.508 1201.51,340.031 1205.46,337.601 1209.42,335.219 1213.37,332.885 1217.33,330.601 1221.29,328.366 1225.24,326.179 1229.2,324.041 1233.16,321.952 1237.11,319.913 1241.07,317.924 1245.02,315.985 1248.98,314.097 1252.94,312.258 1256.89,310.47 1260.85,308.734 1264.8,307.049 1268.76,305.416 1272.72,303.834 1276.67,302.305 1280.63,300.829 1284.59,299.406 1288.54,298.035 1292.5,296.719 1296.45,295.455 1300.41,294.246 1304.37,293.091 1308.32,291.99 1312.28,290.943 1316.24,289.951 1320.19,289.013 1324.15,288.132 1328.1,287.305 1332.06,286.535 1336.02,285.82 1339.97,285.161 1343.93,284.558 1347.88,284.012 1351.84,283.522 1355.8,283.088 1359.75,282.712 1363.71,282.392 1367.67,282.129 1371.62,281.923 1375.58,281.775 1379.53,281.683 1383.49,281.649 1387.45,281.673 1391.4,281.754 1395.36,281.892 1399.32,282.089 1403.27,282.343 1407.23,282.655 1411.18,283.025 1415.14,283.452 1419.1,283.938 1423.05,284.482 1427.01,285.084 1430.96,285.744 1434.92,286.462 1438.88,287.238 1442.83,288.073 1446.79,288.965 1450.75,289.915 1454.7,290.924 1458.66,291.991 1462.61,293.115 1466.57,294.298 1470.53,295.538 1474.48,296.836 1478.44,298.192 1482.39,299.606 1486.35,301.077 1490.31,302.606 1494.26,304.192 1498.22,305.835 1502.18,307.536 1506.13,309.294 1510.09,311.109 1514.04,312.98 1518,314.909 1521.96,316.894 1525.91,318.936 1529.87,321.034 1533.83,323.188 1537.78,325.397 1541.74,327.663 1545.69,329.984 1549.65,332.362 1553.61,334.794 1557.56,337.282 1561.52,339.825 1565.47,342.424 1569.43,345.077 1573.39,347.785 1577.34,350.548 1581.3,353.365 1585.26,356.236 1589.21,359.161 1593.17,362.139 1597.12,365.171 1601.08,368.256 1605.04,371.394 1608.99,374.585 1612.95,377.829 1616.91,381.124 1620.86,384.471 1624.82,387.87 1628.77,391.32 1632.73,394.82 1636.69,398.372 1640.64,401.974 1644.6,405.626 1648.55,409.328 1652.51,413.08 1656.47,416.88 1660.42,420.73 1664.38,424.629 1668.34,428.576 1672.29,432.572 1676.25,436.615 1680.2,440.706 1684.16,444.844 1688.12,449.029 1692.07,453.261 1696.03,457.539 1699.99,461.863 1703.94,466.231 1707.9,470.645 1711.85,475.104 1715.81,479.607 1719.77,484.154 1723.72,488.745 1727.68,493.379 1731.63,498.057 1735.59,502.777 1739.55,507.538 1743.5,512.34 1747.46,517.184 1751.42,522.068 1755.37,526.991 1759.33,531.955 1763.28,536.958 1767.24,542 1771.2,547.08 1775.15,552.198 1779.11,557.354 1783.07,562.547 1787.02,567.777 1790.98,573.043 1794.93,578.345 1798.89,583.68 1802.85,589.049 1806.8,594.453 1810.76,599.891 1814.71,605.364 1818.67,610.869 1822.63,616.407 1826.58,621.978 1830.54,627.58 1834.5,633.214 1838.45,638.877 1842.41,644.571 1846.36,650.294 1850.32,656.046 1854.28,661.827 1858.23,667.635 1862.19,673.47 1866.14,679.332 1870.1,685.22 1874.06,691.536 1878.01,697.877 1881.97,704.244 1885.93,710.636 1889.88,717.051 1893.84,723.491 1897.79,729.953 1901.75,736.437 1905.71,742.942 1909.66,749.469 1913.62,756.016 1917.58,762.585 1921.53,769.172 1925.49,775.778 1929.44,782.402 1933.4,789.042 1937.36,795.699 1941.31,802.372 1945.27,809.06 1949.22,815.763 1953.18,822.479 1957.14,829.209 1961.09,835.952 1965.05,842.707 1969.01,849.474 1972.96,856.251 1976.92,863.039 1980.87,869.836 1984.83,876.643 1988.79,883.458 1992.74,890.28 1996.7,897.109 2000.66,903.944 2004.61,910.785 2008.57,917.631 2012.52,924.482 2016.48,931.337 2020.44,938.196 2024.39,945.058 2028.35,951.922 2032.3,958.787 2036.26,965.653 2040.22,972.52 2044.17,979.387 2048.13,986.254 2052.09,993.12 2056.04,999.984 2060,1006.85 2063.95,1013.7 2067.91,1020.56 2071.87,1027.41 2075.82,1034.25 2079.78,1041.09 2083.74,1047.92 2087.69,1054.74 2091.65,1061.56 2095.6,1068.37 2099.56,1075.16 2103.52,1081.95 2107.47,1088.73 2111.43,1095.49 2115.38,1102.24 2119.34,1108.99 2123.3,1115.72 2127.25,1122.43 2131.21,1129.13 2135.17,1135.82 2139.12,1142.49 2143.08,1149.15 2147.03,1155.79 2150.99,1162.41 2154.95,1169.02 2158.9,1175.6 2162.86,1182.17 2166.82,1188.72 2170.77,1195.24 2174.73,1201.75 2178.68,1208.23 2182.64,1214.69 2186.6,1221.13 2190.55,1227.55 2194.51,1233.94 2198.46,1240.31 2202.42,1246.65 2206.38,1252.96 2210.33,1259.25 2214.29,1265.51 2218.25,1271.75 2222.2,1277.96 2226.16,1284.13 2230.11,1290.28 2234.07,1296.4 2238.03,1302.49 2241.98,1308.55 2245.94,1314.57 2249.9,1320.57 2253.85,1326.53 2257.81,1332.46 2261.76,1338.35 2265.72,1344.22 2269.68,1350.04 2273.63,1355.83 2277.59,1361.59 2281.54,1367.31 2285.5,1372.99 2289.46,1378.63 2293.41,1384.24 "/>
<polyline clip-path="url(#clip592)" style="stroke:#0000ff; stroke-linecap:round; stroke-linejoin:round; stroke-width:4; stroke-opacity:1; fill:none" stroke-dasharray="16, 10" points="315.32,727.19 319.276,728.424 323.232,729.591 327.189,730.691 331.145,731.724 335.101,732.69 339.057,733.59 343.013,734.424 346.969,735.192 350.926,735.895 354.882,736.532 358.838,737.105 362.794,737.612 366.75,738.055 370.707,738.434 374.663,738.749 378.619,739.001 382.575,739.189 386.531,739.314 390.488,739.377 394.444,739.377 398.4,739.315 402.356,739.191 406.312,739.007 410.268,738.761 414.225,738.454 418.181,738.087 422.137,737.66 426.093,737.174 430.049,736.628 434.006,736.023 437.962,735.36 441.918,734.639 445.874,733.86 449.83,733.023 453.786,732.13 457.743,731.18 461.699,730.174 465.655,729.112 469.611,727.979 473.567,726.726 477.524,725.415 481.48,724.047 485.436,722.621 489.392,721.139 493.348,719.601 497.305,718.008 501.261,716.359 505.217,714.656 509.173,712.898 513.129,711.087 517.085,709.223 521.042,707.306 524.998,705.337 528.954,703.316 532.91,701.244 536.866,699.122 540.823,696.95 544.779,694.728 548.735,692.458 552.691,690.139 556.647,687.772 560.604,685.358 564.56,682.897 568.516,680.39 572.472,677.837 576.428,675.239 580.384,672.597 584.341,669.911 588.297,667.181 592.253,664.409 596.209,661.595 600.165,658.739 604.122,655.841 608.078,652.904 612.034,649.927 615.99,646.91 619.946,643.855 623.903,640.762 627.859,637.631 631.815,634.463 635.771,631.26 639.727,628.02 643.683,624.746 647.64,621.437 651.596,618.095 655.552,614.719 659.508,611.311 663.464,607.871 667.421,604.399 671.377,600.897 675.333,597.365 679.289,593.804 683.245,590.214 687.201,586.596 691.158,582.951 695.114,579.278 699.07,575.579 703.026,571.856 706.982,568.107 710.939,564.334 714.895,560.537 718.851,556.718 722.807,552.876 726.763,549.012 730.72,545.128 734.676,541.223 738.632,537.299 742.588,533.356 746.544,529.394 750.5,525.415 754.457,521.419 758.413,517.406 762.369,513.378 766.325,509.335 770.281,505.277 774.238,501.206 778.194,497.122 782.15,493.026 786.106,488.918 790.062,484.799 794.019,480.67 797.975,476.531 801.931,472.383 805.887,468.226 809.843,464.062 813.799,459.891 817.756,455.714 821.712,451.531 825.668,447.343 829.624,443.15 833.58,438.954 837.537,434.755 841.493,430.554 845.449,426.352 849.405,422.148 853.361,417.944 857.317,413.74 861.274,409.537 865.23,405.335 869.186,401.135 873.142,396.939 877.098,392.746 881.055,388.558 885.011,384.375 888.967,380.198 892.923,376.026 896.879,371.862 900.836,367.704 904.792,363.555 908.748,359.415 912.704,355.284 916.66,351.163 920.616,347.053 924.573,342.954 928.529,338.868 932.485,334.793 936.441,330.733 940.397,326.686 944.354,322.654 948.31,318.637 952.266,314.635 956.222,310.651 960.178,306.683 964.135,302.733 968.091,298.801 972.047,294.888 976.003,290.995 979.959,287.122 983.915,283.27 987.872,279.439 991.828,275.63 995.784,271.843 999.74,268.079 1003.7,264.339 1007.65,260.623 1011.61,256.932 1015.56,253.267 1019.52,249.628 1023.48,246.015 1027.43,242.43 1031.39,238.872 1035.35,235.343 1039.3,231.842 1043.26,228.371 1047.21,224.93 1051.17,221.52 1055.13,218.141 1059.08,214.794 1063.04,211.478 1067,208.195 1070.95,204.945 1074.91,201.729 1078.86,198.546 1082.82,195.398 1086.78,192.283 1090.73,189.205 1094.69,186.164 1098.64,183.161 1102.6,180.197 1106.56,177.269 1110.51,174.38 1114.47,171.528 1118.43,168.716 1122.38,165.943 1126.34,163.21 1130.29,160.517 1134.25,157.865 1138.21,155.255 1142.16,152.687 1146.12,150.161 1150.08,147.678 1154.03,145.238 1157.99,142.842 1161.94,140.49 1165.9,138.182 1169.86,135.919 1173.81,133.701 1177.77,131.529 1181.72,129.403 1185.68,127.324 1189.64,125.292 1193.59,123.307 1197.55,121.369 1201.51,119.48 1205.46,117.64 1209.42,115.848 1213.37,114.106 1217.33,112.413 1221.29,110.77 1225.24,109.178 1229.2,107.636 1233.16,106.145 1237.11,104.706 1241.07,103.318 1245.02,101.981 1248.98,100.696 1252.94,99.4639 1256.89,98.2846 1260.85,97.1585 1264.8,96.0859 1268.76,95.067 1272.72,94.1021 1276.67,93.1915 1280.63,92.3353 1284.59,91.5339 1288.54,90.7875 1292.5,90.0962 1296.45,89.4605 1300.41,88.8803 1304.37,88.356 1308.32,87.8876 1312.28,87.4752 1316.24,87.1198 1320.19,86.8214 1324.15,86.5799 1328.1,86.3956 1332.06,86.2683 1336.02,86.1983 1339.97,86.1857 1343.93,86.2307 1347.88,86.3335 1351.84,86.4941 1355.8,86.7128 1359.75,86.9897 1363.71,87.3251 1367.67,87.7184 1371.62,88.1701 1375.58,88.6804 1379.53,89.2493 1383.49,89.8772 1387.45,90.5641 1391.4,91.31 1395.36,92.1155 1399.32,92.9803 1403.27,93.9044 1407.23,94.8878 1411.18,95.9304 1415.14,97.0323 1419.1,98.1937 1423.05,99.4144 1427.01,100.695 1430.96,102.034 1434.92,103.433 1438.88,104.892 1442.83,106.41 1446.79,107.987 1450.75,109.624 1454.7,111.321 1458.66,113.077 1462.61,114.892 1466.57,116.766 1470.53,118.7 1474.48,120.693 1478.44,122.745 1482.39,124.857 1486.35,127.027 1490.31,129.257 1494.26,131.546 1498.22,133.893 1502.18,136.299 1506.13,138.764 1510.09,141.287 1514.04,143.869 1518,146.51 1521.96,149.208 1525.91,151.965 1529.87,154.779 1533.83,157.651 1537.78,160.581 1541.74,163.569 1545.69,166.614 1549.65,169.716 1553.61,172.875 1557.56,176.091 1561.52,179.364 1565.47,182.693 1569.43,186.079 1573.39,189.52 1577.34,193.017 1581.3,196.57 1585.26,200.178 1589.21,203.841 1593.17,207.559 1597.12,211.332 1601.08,215.159 1605.04,219.041 1608.99,222.976 1612.95,226.964 1616.91,231.006 1620.86,235.1 1624.82,239.247 1628.77,243.447 1632.73,247.699 1636.69,252.003 1640.64,256.359 1644.6,260.767 1648.55,265.225 1652.51,269.733 1656.47,274.293 1660.42,278.903 1664.38,283.563 1668.34,288.272 1672.29,293.029 1676.25,297.835 1680.2,302.688 1684.16,307.589 1688.12,312.537 1692.07,317.531 1696.03,322.571 1699.99,327.657 1703.94,332.789 1707.9,337.966 1711.85,343.189 1715.81,348.457 1719.77,353.769 1723.72,359.126 1727.68,364.526 1731.63,369.968 1735.59,375.452 1739.55,380.979 1743.5,386.548 1747.46,392.158 1751.42,397.808 1755.37,403.5 1759.33,409.23 1763.28,415.001 1767.24,420.81 1771.2,426.634 1775.15,432.406 1779.11,438.125 1783.07,443.79 1787.02,449.415 1790.98,455.062 1794.93,460.744 1798.89,466.46 1802.85,472.21 1806.8,477.993 1810.76,483.809 1814.71,489.656 1818.67,495.536 1822.63,501.447 1826.58,507.388 1830.54,513.359 1834.5,519.36 1838.45,525.39 1842.41,531.448 1846.36,537.535 1850.32,543.648 1854.28,549.789 1858.23,555.956 1862.19,562.149 1866.14,568.368 1870.1,574.611 1874.06,580.879 1878.01,587.171 1881.97,593.486 1885.93,599.824 1889.88,606.183 1893.84,612.565 1897.79,618.967 1901.75,625.39 1905.71,631.833 1909.66,638.294 1913.62,644.774 1917.58,651.272 1921.53,657.789 1925.49,664.324 1929.44,670.876 1933.4,677.444 1937.36,684.028 1941.31,690.628 1945.27,697.242 1949.22,703.871 1953.18,710.513 1957.14,717.168 1961.09,723.836 1965.05,730.515 1969.01,737.206 1972.96,743.908 1976.92,750.62 1980.87,757.343 1984.83,764.075 1988.79,770.815 1992.74,777.563 1996.7,784.32 2000.66,791.083 2004.61,797.851 2008.57,804.623 2012.52,811.401 2016.48,818.182 2020.44,824.966 2024.39,831.754 2028.35,838.543 2032.3,845.334 2036.26,852.126 2040.22,858.919 2044.17,865.711 2048.13,872.502 2052.09,879.292 2056.04,886.08 2060,892.865 2063.95,899.647 2067.91,906.425 2071.87,913.199 2075.82,919.967 2079.78,926.73 2083.74,933.488 2087.69,940.239 2091.65,946.983 2095.6,953.72 2099.56,960.449 2103.52,967.168 2107.47,973.879 2111.43,980.579 2115.38,987.269 2119.34,993.948 2123.3,1000.61 2127.25,1007.27 2131.21,1013.91 2135.17,1020.54 2139.12,1027.15 2143.08,1033.75 2147.03,1040.33 2150.99,1046.9 2154.95,1053.45 2158.9,1059.99 2162.86,1066.5 2166.82,1073 2170.77,1079.48 2174.73,1085.94 2178.68,1092.38 2182.64,1098.8 2186.6,1105.19 2190.55,1111.57 2194.51,1117.92 2198.46,1124.25 2202.42,1130.56 2206.38,1136.84 2210.33,1143.1 2214.29,1149.34 2218.25,1155.54 2222.2,1161.73 2226.16,1167.88 2230.11,1174.01 2234.07,1180.11 2238.03,1186.18 2241.98,1192.22 2245.94,1198.23 2249.9,1204.21 2253.85,1210.17 2257.81,1216.09 2261.76,1221.98 2265.72,1227.84 2269.68,1233.66 2273.63,1239.45 2277.59,1245.21 2281.54,1250.94 2285.5,1256.63 2289.46,1262.28 2293.41,1267.9 "/>
<path clip-path="url(#clip590)" d="M1797.75 300.469 L2282.86 300.469 L2282.86 93.1086 L1797.75 93.1086  Z" fill="#ffffff" fill-rule="evenodd" fill-opacity="1"/>
<polyline clip-path="url(#clip590)" style="stroke:#000000; stroke-linecap:round; stroke-linejoin:round; stroke-width:4; stroke-opacity:1; fill:none" points="1797.75,300.469 2282.86,300.469 2282.86,93.1086 1797.75,93.1086 1797.75,300.469 "/>
<polyline clip-path="url(#clip590)" style="stroke:#800080; stroke-linecap:round; stroke-linejoin:round; stroke-width:4; stroke-opacity:1; fill:none" points="1821.04,144.949 1960.83,144.949 "/>
<path clip-path="url(#clip590)" d="M1988.8 145.724 L1988.8 158.386 L1996.3 158.386 Q2000.08 158.386 2001.88 156.835 Q2003.71 155.261 2003.71 152.043 Q2003.71 148.803 2001.88 147.275 Q2000.08 145.724 1996.3 145.724 L1988.8 145.724 M1988.8 131.511 L1988.8 141.928 L1995.72 141.928 Q1999.15 141.928 2000.82 140.655 Q2002.51 139.358 2002.51 136.719 Q2002.51 134.104 2000.82 132.807 Q1999.15 131.511 1995.72 131.511 L1988.8 131.511 M1984.13 127.669 L1996.07 127.669 Q2001.42 127.669 2004.31 129.891 Q2007.21 132.113 2007.21 136.21 Q2007.21 139.382 2005.72 141.257 Q2004.24 143.131 2001.37 143.594 Q2004.82 144.335 2006.72 146.696 Q2008.64 149.034 2008.64 152.553 Q2008.64 157.182 2005.49 159.705 Q2002.34 162.229 1996.53 162.229 L1984.13 162.229 L1984.13 127.669 Z" fill="#000000" fill-rule="nonzero" fill-opacity="1" /><path clip-path="url(#clip590)" d="M2026.51 139.289 Q2023.09 139.289 2021.09 141.974 Q2019.1 144.636 2019.1 149.289 Q2019.1 153.942 2021.07 156.627 Q2023.06 159.289 2026.51 159.289 Q2029.91 159.289 2031.9 156.604 Q2033.9 153.918 2033.9 149.289 Q2033.9 144.682 2031.9 141.997 Q2029.91 139.289 2026.51 139.289 M2026.51 135.678 Q2032.07 135.678 2035.24 139.289 Q2038.41 142.9 2038.41 149.289 Q2038.41 155.655 2035.24 159.289 Q2032.07 162.9 2026.51 162.9 Q2020.93 162.9 2017.76 159.289 Q2014.61 155.655 2014.61 149.289 Q2014.61 142.9 2017.76 139.289 Q2020.93 135.678 2026.51 135.678 Z" fill="#000000" fill-rule="nonzero" fill-opacity="1" /><path clip-path="url(#clip590)" d="M2045.03 151.997 L2045.03 136.303 L2049.29 136.303 L2049.29 151.835 Q2049.29 155.516 2050.72 157.368 Q2052.16 159.196 2055.03 159.196 Q2058.48 159.196 2060.47 156.997 Q2062.48 154.798 2062.48 151.002 L2062.48 136.303 L2066.74 136.303 L2066.74 162.229 L2062.48 162.229 L2062.48 158.247 Q2060.93 160.608 2058.87 161.766 Q2056.84 162.9 2054.13 162.9 Q2049.66 162.9 2047.34 160.122 Q2045.03 157.344 2045.03 151.997 M2055.75 135.678 L2055.75 135.678 Z" fill="#000000" fill-rule="nonzero" fill-opacity="1" /><path clip-path="url(#clip590)" d="M2097.07 146.581 L2097.07 162.229 L2092.81 162.229 L2092.81 146.719 Q2092.81 143.039 2091.37 141.21 Q2089.94 139.382 2087.07 139.382 Q2083.62 139.382 2081.63 141.581 Q2079.64 143.78 2079.64 147.576 L2079.64 162.229 L2075.35 162.229 L2075.35 136.303 L2079.64 136.303 L2079.64 140.331 Q2081.16 137.993 2083.22 136.835 Q2085.31 135.678 2088.02 135.678 Q2092.48 135.678 2094.77 138.456 Q2097.07 141.21 2097.07 146.581 Z" fill="#000000" fill-rule="nonzero" fill-opacity="1" /><path clip-path="url(#clip590)" d="M2122.62 140.238 L2122.62 126.21 L2126.88 126.21 L2126.88 162.229 L2122.62 162.229 L2122.62 158.34 Q2121.28 160.655 2119.22 161.789 Q2117.18 162.9 2114.31 162.9 Q2109.61 162.9 2106.65 159.15 Q2103.71 155.4 2103.71 149.289 Q2103.71 143.178 2106.65 139.428 Q2109.61 135.678 2114.31 135.678 Q2117.18 135.678 2119.22 136.812 Q2121.28 137.923 2122.62 140.238 M2108.11 149.289 Q2108.11 153.988 2110.03 156.673 Q2111.97 159.335 2115.35 159.335 Q2118.73 159.335 2120.68 156.673 Q2122.62 153.988 2122.62 149.289 Q2122.62 144.59 2120.68 141.928 Q2118.73 139.243 2115.35 139.243 Q2111.97 139.243 2110.03 141.928 Q2108.11 144.59 2108.11 149.289 Z" fill="#000000" fill-rule="nonzero" fill-opacity="1" /><path clip-path="url(#clip590)" d="M2152.18 137.067 L2152.18 141.094 Q2150.38 140.169 2148.43 139.706 Q2146.49 139.243 2144.4 139.243 Q2141.23 139.243 2139.64 140.215 Q2138.06 141.187 2138.06 143.131 Q2138.06 144.613 2139.2 145.469 Q2140.33 146.303 2143.76 147.067 L2145.21 147.391 Q2149.75 148.363 2151.65 150.145 Q2153.57 151.905 2153.57 155.076 Q2153.57 158.687 2150.7 160.793 Q2147.85 162.9 2142.85 162.9 Q2140.77 162.9 2138.5 162.483 Q2136.26 162.09 2133.76 161.28 L2133.76 156.881 Q2136.12 158.108 2138.41 158.733 Q2140.7 159.335 2142.95 159.335 Q2145.96 159.335 2147.58 158.317 Q2149.2 157.275 2149.2 155.4 Q2149.2 153.664 2148.02 152.738 Q2146.86 151.812 2142.9 150.956 L2141.42 150.608 Q2137.46 149.775 2135.7 148.062 Q2133.94 146.326 2133.94 143.317 Q2133.94 139.659 2136.53 137.669 Q2139.13 135.678 2143.9 135.678 Q2146.26 135.678 2148.34 136.025 Q2150.42 136.372 2152.18 137.067 Z" fill="#000000" fill-rule="nonzero" fill-opacity="1" /><path clip-path="url(#clip590)" d="M2196.33 128.803 L2196.33 133.363 Q2193.66 132.09 2191.3 131.465 Q2188.94 130.84 2186.74 130.84 Q2182.92 130.84 2180.84 132.321 Q2178.78 133.803 2178.78 136.534 Q2178.78 138.826 2180.14 140.007 Q2181.53 141.164 2185.38 141.882 L2188.2 142.46 Q2193.43 143.456 2195.91 145.979 Q2198.41 148.479 2198.41 152.692 Q2198.41 157.715 2195.03 160.307 Q2191.67 162.9 2185.17 162.9 Q2182.71 162.9 2179.94 162.344 Q2177.18 161.789 2174.22 160.701 L2174.22 155.886 Q2177.07 157.483 2179.8 158.293 Q2182.53 159.104 2185.17 159.104 Q2189.17 159.104 2191.35 157.53 Q2193.52 155.956 2193.52 153.039 Q2193.52 150.493 2191.95 149.057 Q2190.4 147.622 2186.83 146.905 L2183.99 146.349 Q2178.76 145.307 2176.42 143.085 Q2174.08 140.863 2174.08 136.905 Q2174.08 132.321 2177.3 129.682 Q2180.54 127.044 2186.21 127.044 Q2188.64 127.044 2191.16 127.483 Q2193.69 127.923 2196.33 128.803 Z" fill="#000000" fill-rule="nonzero" fill-opacity="1" /><path clip-path="url(#clip590)" d="M2205.7 127.669 L2212.67 127.669 L2221.49 151.187 L2230.35 127.669 L2237.32 127.669 L2237.32 162.229 L2232.76 162.229 L2232.76 131.882 L2223.85 155.585 L2219.15 155.585 L2210.24 131.882 L2210.24 162.229 L2205.7 162.229 L2205.7 127.669 Z" fill="#000000" fill-rule="nonzero" fill-opacity="1" /><polyline clip-path="url(#clip590)" style="stroke:#ff0000; stroke-linecap:round; stroke-linejoin:round; stroke-width:4; stroke-opacity:1; fill:none" points="1821.04,196.789 1960.83,196.789 "/>
<path clip-path="url(#clip590)" d="M1988.8 197.564 L1988.8 210.226 L1996.3 210.226 Q2000.08 210.226 2001.88 208.675 Q2003.71 207.101 2003.71 203.883 Q2003.71 200.643 2001.88 199.115 Q2000.08 197.564 1996.3 197.564 L1988.8 197.564 M1988.8 183.351 L1988.8 193.768 L1995.72 193.768 Q1999.15 193.768 2000.82 192.495 Q2002.51 191.198 2002.51 188.559 Q2002.51 185.944 2000.82 184.647 Q1999.15 183.351 1995.72 183.351 L1988.8 183.351 M1984.13 179.509 L1996.07 179.509 Q2001.42 179.509 2004.31 181.731 Q2007.21 183.953 2007.21 188.05 Q2007.21 191.222 2005.72 193.097 Q2004.24 194.971 2001.37 195.434 Q2004.82 196.175 2006.72 198.536 Q2008.64 200.874 2008.64 204.393 Q2008.64 209.022 2005.49 211.545 Q2002.34 214.069 1996.53 214.069 L1984.13 214.069 L1984.13 179.509 Z" fill="#000000" fill-rule="nonzero" fill-opacity="1" /><path clip-path="url(#clip590)" d="M2026.51 191.129 Q2023.09 191.129 2021.09 193.814 Q2019.1 196.476 2019.1 201.129 Q2019.1 205.782 2021.07 208.467 Q2023.06 211.129 2026.51 211.129 Q2029.91 211.129 2031.9 208.444 Q2033.9 205.758 2033.9 201.129 Q2033.9 196.522 2031.9 193.837 Q2029.91 191.129 2026.51 191.129 M2026.51 187.518 Q2032.07 187.518 2035.24 191.129 Q2038.41 194.74 2038.41 201.129 Q2038.41 207.495 2035.24 211.129 Q2032.07 214.74 2026.51 214.74 Q2020.93 214.74 2017.76 211.129 Q2014.61 207.495 2014.61 201.129 Q2014.61 194.74 2017.76 191.129 Q2020.93 187.518 2026.51 187.518 Z" fill="#000000" fill-rule="nonzero" fill-opacity="1" /><path clip-path="url(#clip590)" d="M2045.03 203.837 L2045.03 188.143 L2049.29 188.143 L2049.29 203.675 Q2049.29 207.356 2050.72 209.208 Q2052.16 211.036 2055.03 211.036 Q2058.48 211.036 2060.47 208.837 Q2062.48 206.638 2062.48 202.842 L2062.48 188.143 L2066.74 188.143 L2066.74 214.069 L2062.48 214.069 L2062.48 210.087 Q2060.93 212.448 2058.87 213.606 Q2056.84 214.74 2054.13 214.74 Q2049.66 214.74 2047.34 211.962 Q2045.03 209.184 2045.03 203.837 M2055.75 187.518 L2055.75 187.518 Z" fill="#000000" fill-rule="nonzero" fill-opacity="1" /><path clip-path="url(#clip590)" d="M2097.07 198.421 L2097.07 214.069 L2092.81 214.069 L2092.81 198.559 Q2092.81 194.879 2091.37 193.05 Q2089.94 191.222 2087.07 191.222 Q2083.62 191.222 2081.63 193.421 Q2079.64 195.62 2079.64 199.416 L2079.64 214.069 L2075.35 214.069 L2075.35 188.143 L2079.64 188.143 L2079.64 192.171 Q2081.16 189.833 2083.22 188.675 Q2085.31 187.518 2088.02 187.518 Q2092.48 187.518 2094.77 190.296 Q2097.07 193.05 2097.07 198.421 Z" fill="#000000" fill-rule="nonzero" fill-opacity="1" /><path clip-path="url(#clip590)" d="M2122.62 192.078 L2122.62 178.05 L2126.88 178.05 L2126.88 214.069 L2122.62 214.069 L2122.62 210.18 Q2121.28 212.495 2119.22 213.629 Q2117.18 214.74 2114.31 214.74 Q2109.61 214.74 2106.65 210.99 Q2103.71 207.24 2103.71 201.129 Q2103.71 195.018 2106.65 191.268 Q2109.61 187.518 2114.31 187.518 Q2117.18 187.518 2119.22 188.652 Q2121.28 189.763 2122.62 192.078 M2108.11 201.129 Q2108.11 205.828 2110.03 208.513 Q2111.97 211.175 2115.35 211.175 Q2118.73 211.175 2120.68 208.513 Q2122.62 205.828 2122.62 201.129 Q2122.62 196.43 2120.68 193.768 Q2118.73 191.083 2115.35 191.083 Q2111.97 191.083 2110.03 193.768 Q2108.11 196.43 2108.11 201.129 Z" fill="#000000" fill-rule="nonzero" fill-opacity="1" /><path clip-path="url(#clip590)" d="M2152.18 188.907 L2152.18 192.934 Q2150.38 192.009 2148.43 191.546 Q2146.49 191.083 2144.4 191.083 Q2141.23 191.083 2139.64 192.055 Q2138.06 193.027 2138.06 194.971 Q2138.06 196.453 2139.2 197.309 Q2140.33 198.143 2143.76 198.907 L2145.21 199.231 Q2149.75 200.203 2151.65 201.985 Q2153.57 203.745 2153.57 206.916 Q2153.57 210.527 2150.7 212.633 Q2147.85 214.74 2142.85 214.74 Q2140.77 214.74 2138.5 214.323 Q2136.26 213.93 2133.76 213.12 L2133.76 208.721 Q2136.12 209.948 2138.41 210.573 Q2140.7 211.175 2142.95 211.175 Q2145.96 211.175 2147.58 210.157 Q2149.2 209.115 2149.2 207.24 Q2149.2 205.504 2148.02 204.578 Q2146.86 203.652 2142.9 202.796 L2141.42 202.448 Q2137.46 201.615 2135.7 199.902 Q2133.94 198.166 2133.94 195.157 Q2133.94 191.499 2136.53 189.509 Q2139.13 187.518 2143.9 187.518 Q2146.26 187.518 2148.34 187.865 Q2150.42 188.212 2152.18 188.907 Z" fill="#000000" fill-rule="nonzero" fill-opacity="1" /><path clip-path="url(#clip590)" d="M2175.61 179.509 L2182.58 179.509 L2191.39 203.027 L2200.26 179.509 L2207.23 179.509 L2207.23 214.069 L2202.67 214.069 L2202.67 183.722 L2193.76 207.425 L2189.06 207.425 L2180.14 183.722 L2180.14 214.069 L2175.61 214.069 L2175.61 179.509 Z" fill="#000000" fill-rule="nonzero" fill-opacity="1" /><path clip-path="url(#clip590)" d="M2242.39 182.171 L2242.39 187.101 Q2240.03 184.902 2237.34 183.814 Q2234.68 182.726 2231.67 182.726 Q2225.75 182.726 2222.6 186.36 Q2219.45 189.972 2219.45 196.823 Q2219.45 203.652 2222.6 207.286 Q2225.75 210.897 2231.67 210.897 Q2234.68 210.897 2237.34 209.809 Q2240.03 208.721 2242.39 206.522 L2242.39 211.407 Q2239.94 213.073 2237.18 213.907 Q2234.45 214.74 2231.39 214.74 Q2223.55 214.74 2219.03 209.948 Q2214.52 205.133 2214.52 196.823 Q2214.52 188.49 2219.03 183.698 Q2223.55 178.884 2231.39 178.884 Q2234.5 178.884 2237.23 179.717 Q2239.98 180.527 2242.39 182.171 Z" fill="#000000" fill-rule="nonzero" fill-opacity="1" /><polyline clip-path="url(#clip590)" style="stroke:#0000ff; stroke-linecap:round; stroke-linejoin:round; stroke-width:4; stroke-opacity:1; fill:none" stroke-dasharray="16, 10" points="1821.04,248.629 1960.83,248.629 "/>
<path clip-path="url(#clip590)" d="M1988.8 249.404 L1988.8 262.066 L1996.3 262.066 Q2000.08 262.066 2001.88 260.515 Q2003.71 258.941 2003.71 255.723 Q2003.71 252.483 2001.88 250.955 Q2000.08 249.404 1996.3 249.404 L1988.8 249.404 M1988.8 235.191 L1988.8 245.608 L1995.72 245.608 Q1999.15 245.608 2000.82 244.335 Q2002.51 243.038 2002.51 240.399 Q2002.51 237.784 2000.82 236.487 Q1999.15 235.191 1995.72 235.191 L1988.8 235.191 M1984.13 231.349 L1996.07 231.349 Q2001.42 231.349 2004.31 233.571 Q2007.21 235.793 2007.21 239.89 Q2007.21 243.062 2005.72 244.937 Q2004.24 246.811 2001.37 247.274 Q2004.82 248.015 2006.72 250.376 Q2008.64 252.714 2008.64 256.233 Q2008.64 260.862 2005.49 263.385 Q2002.34 265.909 1996.53 265.909 L1984.13 265.909 L1984.13 231.349 Z" fill="#000000" fill-rule="nonzero" fill-opacity="1" /><path clip-path="url(#clip590)" d="M2026.51 242.969 Q2023.09 242.969 2021.09 245.654 Q2019.1 248.316 2019.1 252.969 Q2019.1 257.622 2021.07 260.307 Q2023.06 262.969 2026.51 262.969 Q2029.91 262.969 2031.9 260.284 Q2033.9 257.598 2033.9 252.969 Q2033.9 248.362 2031.9 245.677 Q2029.91 242.969 2026.51 242.969 M2026.51 239.358 Q2032.07 239.358 2035.24 242.969 Q2038.41 246.58 2038.41 252.969 Q2038.41 259.335 2035.24 262.969 Q2032.07 266.58 2026.51 266.58 Q2020.93 266.58 2017.76 262.969 Q2014.61 259.335 2014.61 252.969 Q2014.61 246.58 2017.76 242.969 Q2020.93 239.358 2026.51 239.358 Z" fill="#000000" fill-rule="nonzero" fill-opacity="1" /><path clip-path="url(#clip590)" d="M2045.03 255.677 L2045.03 239.983 L2049.29 239.983 L2049.29 255.515 Q2049.29 259.196 2050.72 261.048 Q2052.16 262.876 2055.03 262.876 Q2058.48 262.876 2060.47 260.677 Q2062.48 258.478 2062.48 254.682 L2062.48 239.983 L2066.74 239.983 L2066.74 265.909 L2062.48 265.909 L2062.48 261.927 Q2060.93 264.288 2058.87 265.446 Q2056.84 266.58 2054.13 266.58 Q2049.66 266.58 2047.34 263.802 Q2045.03 261.024 2045.03 255.677 M2055.75 239.358 L2055.75 239.358 Z" fill="#000000" fill-rule="nonzero" fill-opacity="1" /><path clip-path="url(#clip590)" d="M2097.07 250.261 L2097.07 265.909 L2092.81 265.909 L2092.81 250.399 Q2092.81 246.719 2091.37 244.89 Q2089.94 243.062 2087.07 243.062 Q2083.62 243.062 2081.63 245.261 Q2079.64 247.46 2079.64 251.256 L2079.64 265.909 L2075.35 265.909 L2075.35 239.983 L2079.64 239.983 L2079.64 244.011 Q2081.16 241.673 2083.22 240.515 Q2085.31 239.358 2088.02 239.358 Q2092.48 239.358 2094.77 242.136 Q2097.07 244.89 2097.07 250.261 Z" fill="#000000" fill-rule="nonzero" fill-opacity="1" /><path clip-path="url(#clip590)" d="M2122.62 243.918 L2122.62 229.89 L2126.88 229.89 L2126.88 265.909 L2122.62 265.909 L2122.62 262.02 Q2121.28 264.335 2119.22 265.469 Q2117.18 266.58 2114.31 266.58 Q2109.61 266.58 2106.65 262.83 Q2103.71 259.08 2103.71 252.969 Q2103.71 246.858 2106.65 243.108 Q2109.61 239.358 2114.31 239.358 Q2117.18 239.358 2119.22 240.492 Q2121.28 241.603 2122.62 243.918 M2108.11 252.969 Q2108.11 257.668 2110.03 260.353 Q2111.97 263.015 2115.35 263.015 Q2118.73 263.015 2120.68 260.353 Q2122.62 257.668 2122.62 252.969 Q2122.62 248.27 2120.68 245.608 Q2118.73 242.923 2115.35 242.923 Q2111.97 242.923 2110.03 245.608 Q2108.11 248.27 2108.11 252.969 Z" fill="#000000" fill-rule="nonzero" fill-opacity="1" /><path clip-path="url(#clip590)" d="M2152.18 240.747 L2152.18 244.774 Q2150.38 243.849 2148.43 243.386 Q2146.49 242.923 2144.4 242.923 Q2141.23 242.923 2139.64 243.895 Q2138.06 244.867 2138.06 246.811 Q2138.06 248.293 2139.2 249.149 Q2140.33 249.983 2143.76 250.747 L2145.21 251.071 Q2149.75 252.043 2151.65 253.825 Q2153.57 255.585 2153.57 258.756 Q2153.57 262.367 2150.7 264.473 Q2147.85 266.58 2142.85 266.58 Q2140.77 266.58 2138.5 266.163 Q2136.26 265.77 2133.76 264.96 L2133.76 260.561 Q2136.12 261.788 2138.41 262.413 Q2140.7 263.015 2142.95 263.015 Q2145.96 263.015 2147.58 261.997 Q2149.2 260.955 2149.2 259.08 Q2149.2 257.344 2148.02 256.418 Q2146.86 255.492 2142.9 254.636 L2141.42 254.288 Q2137.46 253.455 2135.7 251.742 Q2133.94 250.006 2133.94 246.997 Q2133.94 243.339 2136.53 241.349 Q2139.13 239.358 2143.9 239.358 Q2146.26 239.358 2148.34 239.705 Q2150.42 240.052 2152.18 240.747 Z" fill="#000000" fill-rule="nonzero" fill-opacity="1" /><path clip-path="url(#clip590)" d="M2180.28 235.191 L2180.28 248.177 L2186.16 248.177 Q2189.43 248.177 2191.21 246.487 Q2192.99 244.798 2192.99 241.673 Q2192.99 238.571 2191.21 236.881 Q2189.43 235.191 2186.16 235.191 L2180.28 235.191 M2175.61 231.349 L2186.16 231.349 Q2191.97 231.349 2194.94 233.987 Q2197.92 236.603 2197.92 241.673 Q2197.92 246.788 2194.94 249.404 Q2191.97 252.02 2186.16 252.02 L2180.28 252.02 L2180.28 265.909 L2175.61 265.909 L2175.61 231.349 Z" fill="#000000" fill-rule="nonzero" fill-opacity="1" /><path clip-path="url(#clip590)" d="M2230.08 234.011 L2230.08 238.941 Q2227.71 236.742 2225.03 235.654 Q2222.37 234.566 2219.36 234.566 Q2213.43 234.566 2210.28 238.2 Q2207.14 241.812 2207.14 248.663 Q2207.14 255.492 2210.28 259.126 Q2213.43 262.737 2219.36 262.737 Q2222.37 262.737 2225.03 261.649 Q2227.71 260.561 2230.08 258.362 L2230.08 263.247 Q2227.62 264.913 2224.87 265.747 Q2222.14 266.58 2219.08 266.58 Q2211.23 266.58 2206.72 261.788 Q2202.2 256.973 2202.2 248.663 Q2202.2 240.33 2206.72 235.538 Q2211.23 230.724 2219.08 230.724 Q2222.18 230.724 2224.91 231.557 Q2227.67 232.367 2230.08 234.011 Z" fill="#000000" fill-rule="nonzero" fill-opacity="1" /><path clip-path="url(#clip590)" d="M2237.3 231.349 L2259.15 231.349 L2259.15 235.284 L2241.97 235.284 L2241.97 245.515 L2258.43 245.515 L2258.43 249.45 L2241.97 249.45 L2241.97 261.973 L2259.57 261.973 L2259.57 265.909 L2237.3 265.909 L2237.3 231.349 Z" fill="#000000" fill-rule="nonzero" fill-opacity="1" /></svg>
