<?xml version="1.0" encoding="utf-8"?>
<svg xmlns="http://www.w3.org/2000/svg" xmlns:xlink="http://www.w3.org/1999/xlink" width="600" height="400" viewBox="0 0 2400 1600">
<defs>
  <clipPath id="clip070">
    <rect x="0" y="0" width="2400" height="1600"/>
  </clipPath>
</defs>
<path clip-path="url(#clip070)" d="M0 1600 L2400 1600 L2400 0 L0 0  Z" fill="#ffffff" fill-rule="evenodd" fill-opacity="1"/>
<defs>
  <clipPath id="clip071">
    <rect x="480" y="0" width="1681" height="1600"/>
  </clipPath>
</defs>
<path clip-path="url(#clip070)" d="M211.325 1423.18 L2352.76 1423.18 L2352.76 47.2441 L211.325 47.2441  Z" fill="#ffffff" fill-rule="evenodd" fill-opacity="1"/>
<defs>
  <clipPath id="clip072">
    <rect x="211" y="47" width="2142" height="1377"/>
  </clipPath>
</defs>
<polyline clip-path="url(#clip072)" style="stroke:#000000; stroke-linecap:round; stroke-linejoin:round; stroke-width:2; stroke-opacity:0.1; fill:none" points="271.931,1423.18 271.931,47.2441 "/>
<polyline clip-path="url(#clip072)" style="stroke:#000000; stroke-linecap:round; stroke-linejoin:round; stroke-width:2; stroke-opacity:0.1; fill:none" points="675.975,1423.18 675.975,47.2441 "/>
<polyline clip-path="url(#clip072)" style="stroke:#000000; stroke-linecap:round; stroke-linejoin:round; stroke-width:2; stroke-opacity:0.1; fill:none" points="1080.02,1423.18 1080.02,47.2441 "/>
<polyline clip-path="url(#clip072)" style="stroke:#000000; stroke-linecap:round; stroke-linejoin:round; stroke-width:2; stroke-opacity:0.1; fill:none" points="1484.06,1423.18 1484.06,47.2441 "/>
<polyline clip-path="url(#clip072)" style="stroke:#000000; stroke-linecap:round; stroke-linejoin:round; stroke-width:2; stroke-opacity:0.1; fill:none" points="1888.11,1423.18 1888.11,47.2441 "/>
<polyline clip-path="url(#clip072)" style="stroke:#000000; stroke-linecap:round; stroke-linejoin:round; stroke-width:2; stroke-opacity:0.1; fill:none" points="2292.15,1423.18 2292.15,47.2441 "/>
<polyline clip-path="url(#clip072)" style="stroke:#000000; stroke-linecap:round; stroke-linejoin:round; stroke-width:2; stroke-opacity:0.1; fill:none" points="211.325,1332.97 2352.76,1332.97 "/>
<polyline clip-path="url(#clip072)" style="stroke:#000000; stroke-linecap:round; stroke-linejoin:round; stroke-width:2; stroke-opacity:0.1; fill:none" points="211.325,1133.72 2352.76,1133.72 "/>
<polyline clip-path="url(#clip072)" style="stroke:#000000; stroke-linecap:round; stroke-linejoin:round; stroke-width:2; stroke-opacity:0.1; fill:none" points="211.325,934.467 2352.76,934.467 "/>
<polyline clip-path="url(#clip072)" style="stroke:#000000; stroke-linecap:round; stroke-linejoin:round; stroke-width:2; stroke-opacity:0.1; fill:none" points="211.325,735.213 2352.76,735.213 "/>
<polyline clip-path="url(#clip072)" style="stroke:#000000; stroke-linecap:round; stroke-linejoin:round; stroke-width:2; stroke-opacity:0.1; fill:none" points="211.325,535.96 2352.76,535.96 "/>
<polyline clip-path="url(#clip072)" style="stroke:#000000; stroke-linecap:round; stroke-linejoin:round; stroke-width:2; stroke-opacity:0.1; fill:none" points="211.325,336.706 2352.76,336.706 "/>
<polyline clip-path="url(#clip072)" style="stroke:#000000; stroke-linecap:round; stroke-linejoin:round; stroke-width:2; stroke-opacity:0.1; fill:none" points="211.325,137.452 2352.76,137.452 "/>
<polyline clip-path="url(#clip070)" style="stroke:#000000; stroke-linecap:round; stroke-linejoin:round; stroke-width:4; stroke-opacity:1; fill:none" points="211.325,1423.18 2352.76,1423.18 "/>
<polyline clip-path="url(#clip070)" style="stroke:#000000; stroke-linecap:round; stroke-linejoin:round; stroke-width:4; stroke-opacity:1; fill:none" points="271.931,1423.18 271.931,1404.28 "/>
<polyline clip-path="url(#clip070)" style="stroke:#000000; stroke-linecap:round; stroke-linejoin:round; stroke-width:4; stroke-opacity:1; fill:none" points="675.975,1423.18 675.975,1404.28 "/>
<polyline clip-path="url(#clip070)" style="stroke:#000000; stroke-linecap:round; stroke-linejoin:round; stroke-width:4; stroke-opacity:1; fill:none" points="1080.02,1423.18 1080.02,1404.28 "/>
<polyline clip-path="url(#clip070)" style="stroke:#000000; stroke-linecap:round; stroke-linejoin:round; stroke-width:4; stroke-opacity:1; fill:none" points="1484.06,1423.18 1484.06,1404.28 "/>
<polyline clip-path="url(#clip070)" style="stroke:#000000; stroke-linecap:round; stroke-linejoin:round; stroke-width:4; stroke-opacity:1; fill:none" points="1888.11,1423.18 1888.11,1404.28 "/>
<polyline clip-path="url(#clip070)" style="stroke:#000000; stroke-linecap:round; stroke-linejoin:round; stroke-width:4; stroke-opacity:1; fill:none" points="2292.15,1423.18 2292.15,1404.28 "/>
<path clip-path="url(#clip070)" d="M271.931 1454.1 Q268.32 1454.1 266.491 1457.66 Q264.686 1461.2 264.686 1468.33 Q264.686 1475.44 266.491 1479.01 Q268.32 1482.55 271.931 1482.55 Q275.565 1482.55 277.371 1479.01 Q279.2 1475.44 279.2 1468.33 Q279.2 1461.2 277.371 1457.66 Q275.565 1454.1 271.931 1454.1 M271.931 1450.39 Q277.741 1450.39 280.797 1455 Q283.876 1459.58 283.876 1468.33 Q283.876 1477.06 280.797 1481.67 Q277.741 1486.25 271.931 1486.25 Q266.121 1486.25 263.042 1481.67 Q259.987 1477.06 259.987 1468.33 Q259.987 1459.58 263.042 1455 Q266.121 1450.39 271.931 1450.39 Z" fill="#000000" fill-rule="nonzero" fill-opacity="1" /><path clip-path="url(#clip070)" d="M666.357 1481.64 L673.996 1481.64 L673.996 1455.28 L665.686 1456.95 L665.686 1452.69 L673.949 1451.02 L678.625 1451.02 L678.625 1481.64 L686.264 1481.64 L686.264 1485.58 L666.357 1485.58 L666.357 1481.64 Z" fill="#000000" fill-rule="nonzero" fill-opacity="1" /><path clip-path="url(#clip070)" d="M1074.67 1481.64 L1090.99 1481.64 L1090.99 1485.58 L1069.05 1485.58 L1069.05 1481.64 Q1071.71 1478.89 1076.29 1474.26 Q1080.9 1469.61 1082.08 1468.27 Q1084.32 1465.74 1085.2 1464.01 Q1086.11 1462.25 1086.11 1460.56 Q1086.11 1457.8 1084.16 1456.07 Q1082.24 1454.33 1079.14 1454.33 Q1076.94 1454.33 1074.49 1455.09 Q1072.06 1455.86 1069.28 1457.41 L1069.28 1452.69 Q1072.1 1451.55 1074.56 1450.97 Q1077.01 1450.39 1079.05 1450.39 Q1084.42 1450.39 1087.61 1453.08 Q1090.81 1455.77 1090.81 1460.26 Q1090.81 1462.39 1090 1464.31 Q1089.21 1466.2 1087.1 1468.8 Q1086.52 1469.47 1083.42 1472.69 Q1080.32 1475.88 1074.67 1481.64 Z" fill="#000000" fill-rule="nonzero" fill-opacity="1" /><path clip-path="url(#clip070)" d="M1488.31 1466.95 Q1491.67 1467.66 1493.54 1469.93 Q1495.44 1472.2 1495.44 1475.53 Q1495.44 1480.65 1491.92 1483.45 Q1488.4 1486.25 1481.92 1486.25 Q1479.74 1486.25 1477.43 1485.81 Q1475.14 1485.39 1472.68 1484.54 L1472.68 1480.02 Q1474.63 1481.16 1476.94 1481.74 Q1479.26 1482.32 1481.78 1482.32 Q1486.18 1482.32 1488.47 1480.58 Q1490.79 1478.84 1490.79 1475.53 Q1490.79 1472.48 1488.63 1470.77 Q1486.5 1469.03 1482.68 1469.03 L1478.66 1469.03 L1478.66 1465.19 L1482.87 1465.19 Q1486.32 1465.19 1488.15 1463.82 Q1489.98 1462.43 1489.98 1459.84 Q1489.98 1457.18 1488.08 1455.77 Q1486.2 1454.33 1482.68 1454.33 Q1480.76 1454.33 1478.56 1454.75 Q1476.37 1455.16 1473.73 1456.04 L1473.73 1451.88 Q1476.39 1451.14 1478.7 1450.77 Q1481.04 1450.39 1483.1 1450.39 Q1488.43 1450.39 1491.53 1452.83 Q1494.63 1455.23 1494.63 1459.35 Q1494.63 1462.22 1492.99 1464.21 Q1491.34 1466.18 1488.31 1466.95 Z" fill="#000000" fill-rule="nonzero" fill-opacity="1" /><path clip-path="url(#clip070)" d="M1891.11 1455.09 L1879.31 1473.54 L1891.11 1473.54 L1891.11 1455.09 M1889.89 1451.02 L1895.77 1451.02 L1895.77 1473.54 L1900.7 1473.54 L1900.7 1477.43 L1895.77 1477.43 L1895.77 1485.58 L1891.11 1485.58 L1891.11 1477.43 L1875.51 1477.43 L1875.51 1472.92 L1889.89 1451.02 Z" fill="#000000" fill-rule="nonzero" fill-opacity="1" /><path clip-path="url(#clip070)" d="M2282.43 1451.02 L2300.78 1451.02 L2300.78 1454.96 L2286.71 1454.96 L2286.71 1463.43 Q2287.73 1463.08 2288.75 1462.92 Q2289.77 1462.73 2290.78 1462.73 Q2296.57 1462.73 2299.95 1465.9 Q2303.33 1469.08 2303.33 1474.49 Q2303.33 1480.07 2299.86 1483.17 Q2296.39 1486.25 2290.07 1486.25 Q2287.89 1486.25 2285.62 1485.88 Q2283.38 1485.51 2280.97 1484.77 L2280.97 1480.07 Q2283.05 1481.2 2285.27 1481.76 Q2287.5 1482.32 2289.97 1482.32 Q2293.98 1482.32 2296.32 1480.21 Q2298.65 1478.1 2298.65 1474.49 Q2298.65 1470.88 2296.32 1468.77 Q2293.98 1466.67 2289.97 1466.67 Q2288.1 1466.67 2286.22 1467.08 Q2284.37 1467.5 2282.43 1468.38 L2282.43 1451.02 Z" fill="#000000" fill-rule="nonzero" fill-opacity="1" /><path clip-path="url(#clip070)" d="M1203.92 1520.52 L1244.12 1520.52 L1244.12 1525.93 L1227.25 1525.93 L1227.25 1568.04 L1220.79 1568.04 L1220.79 1525.93 L1203.92 1525.93 L1203.92 1520.52 Z" fill="#000000" fill-rule="nonzero" fill-opacity="1" /><path clip-path="url(#clip070)" d="M1248.06 1532.4 L1253.92 1532.4 L1253.92 1568.04 L1248.06 1568.04 L1248.06 1532.4 M1248.06 1518.52 L1253.92 1518.52 L1253.92 1525.93 L1248.06 1525.93 L1248.06 1518.52 Z" fill="#000000" fill-rule="nonzero" fill-opacity="1" /><path clip-path="url(#clip070)" d="M1293.93 1539.24 Q1296.12 1535.29 1299.18 1533.41 Q1302.24 1531.54 1306.37 1531.54 Q1311.94 1531.54 1314.97 1535.45 Q1317.99 1539.33 1317.99 1546.53 L1317.99 1568.04 L1312.1 1568.04 L1312.1 1546.72 Q1312.1 1541.59 1310.29 1539.11 Q1308.47 1536.63 1304.75 1536.63 Q1300.2 1536.63 1297.56 1539.65 Q1294.91 1542.68 1294.91 1547.9 L1294.91 1568.04 L1289.03 1568.04 L1289.03 1546.72 Q1289.03 1541.56 1287.21 1539.11 Q1285.4 1536.63 1281.61 1536.63 Q1277.12 1536.63 1274.48 1539.68 Q1271.84 1542.71 1271.84 1547.9 L1271.84 1568.04 L1265.95 1568.04 L1265.95 1532.4 L1271.84 1532.4 L1271.84 1537.93 Q1273.84 1534.66 1276.65 1533.1 Q1279.45 1531.54 1283.3 1531.54 Q1287.18 1531.54 1289.89 1533.51 Q1292.62 1535.48 1293.93 1539.24 Z" fill="#000000" fill-rule="nonzero" fill-opacity="1" /><path clip-path="url(#clip070)" d="M1360.16 1548.76 L1360.16 1551.62 L1333.24 1551.62 Q1333.62 1557.67 1336.86 1560.85 Q1340.14 1564 1345.97 1564 Q1349.34 1564 1352.49 1563.17 Q1355.68 1562.35 1358.79 1560.69 L1358.79 1566.23 Q1355.64 1567.57 1352.33 1568.27 Q1349.02 1568.97 1345.62 1568.97 Q1337.09 1568.97 1332.09 1564 Q1327.13 1559.04 1327.13 1550.57 Q1327.13 1541.82 1331.84 1536.69 Q1336.58 1531.54 1344.6 1531.54 Q1351.79 1531.54 1355.96 1536.18 Q1360.16 1540.8 1360.16 1548.76 M1354.31 1547.04 Q1354.24 1542.23 1351.6 1539.37 Q1348.99 1536.5 1344.66 1536.5 Q1339.76 1536.5 1336.8 1539.27 Q1333.87 1542.04 1333.43 1547.07 L1354.31 1547.04 Z" fill="#000000" fill-rule="nonzero" fill-opacity="1" /><polyline clip-path="url(#clip070)" style="stroke:#000000; stroke-linecap:round; stroke-linejoin:round; stroke-width:4; stroke-opacity:1; fill:none" points="211.325,1423.18 211.325,47.2441 "/>
<polyline clip-path="url(#clip070)" style="stroke:#000000; stroke-linecap:round; stroke-linejoin:round; stroke-width:4; stroke-opacity:1; fill:none" points="211.325,1332.97 230.222,1332.97 "/>
<polyline clip-path="url(#clip070)" style="stroke:#000000; stroke-linecap:round; stroke-linejoin:round; stroke-width:4; stroke-opacity:1; fill:none" points="211.325,1133.72 230.222,1133.72 "/>
<polyline clip-path="url(#clip070)" style="stroke:#000000; stroke-linecap:round; stroke-linejoin:round; stroke-width:4; stroke-opacity:1; fill:none" points="211.325,934.467 230.222,934.467 "/>
<polyline clip-path="url(#clip070)" style="stroke:#000000; stroke-linecap:round; stroke-linejoin:round; stroke-width:4; stroke-opacity:1; fill:none" points="211.325,735.213 230.222,735.213 "/>
<polyline clip-path="url(#clip070)" style="stroke:#000000; stroke-linecap:round; stroke-linejoin:round; stroke-width:4; stroke-opacity:1; fill:none" points="211.325,535.96 230.222,535.96 "/>
<polyline clip-path="url(#clip070)" style="stroke:#000000; stroke-linecap:round; stroke-linejoin:round; stroke-width:4; stroke-opacity:1; fill:none" points="211.325,336.706 230.222,336.706 "/>
<polyline clip-path="url(#clip070)" style="stroke:#000000; stroke-linecap:round; stroke-linejoin:round; stroke-width:4; stroke-opacity:1; fill:none" points="211.325,137.452 230.222,137.452 "/>
<path clip-path="url(#clip070)" d="M114.26 1333.43 L143.936 1333.43 L143.936 1337.36 L114.26 1337.36 L114.26 1333.43 Z" fill="#000000" fill-rule="nonzero" fill-opacity="1" /><path clip-path="url(#clip070)" d="M168.195 1331.62 Q171.552 1332.34 173.427 1334.61 Q175.325 1336.88 175.325 1340.21 Q175.325 1345.32 171.806 1348.13 Q168.288 1350.93 161.806 1350.93 Q159.63 1350.93 157.315 1350.49 Q155.024 1350.07 152.57 1349.21 L152.57 1344.7 Q154.515 1345.83 156.829 1346.41 Q159.144 1346.99 161.667 1346.99 Q166.065 1346.99 168.357 1345.25 Q170.672 1343.52 170.672 1340.21 Q170.672 1337.15 168.519 1335.44 Q166.39 1333.7 162.57 1333.7 L158.542 1333.7 L158.542 1329.86 L162.755 1329.86 Q166.204 1329.86 168.033 1328.5 Q169.862 1327.11 169.862 1324.51 Q169.862 1321.85 167.964 1320.44 Q166.089 1319 162.57 1319 Q160.649 1319 158.45 1319.42 Q156.251 1319.84 153.612 1320.72 L153.612 1316.55 Q156.274 1315.81 158.589 1315.44 Q160.927 1315.07 162.987 1315.07 Q168.311 1315.07 171.413 1317.5 Q174.514 1319.91 174.514 1324.03 Q174.514 1326.9 172.871 1328.89 Q171.227 1330.86 168.195 1331.62 Z" fill="#000000" fill-rule="nonzero" fill-opacity="1" /><path clip-path="url(#clip070)" d="M115.209 1134.17 L144.885 1134.17 L144.885 1138.11 L115.209 1138.11 L115.209 1134.17 Z" fill="#000000" fill-rule="nonzero" fill-opacity="1" /><path clip-path="url(#clip070)" d="M159.005 1147.07 L175.325 1147.07 L175.325 1151 L153.38 1151 L153.38 1147.07 Q156.042 1144.31 160.626 1139.68 Q165.232 1135.03 166.413 1133.69 Q168.658 1131.16 169.538 1129.43 Q170.44 1127.67 170.44 1125.98 Q170.44 1123.22 168.496 1121.49 Q166.575 1119.75 163.473 1119.75 Q161.274 1119.75 158.82 1120.51 Q156.39 1121.28 153.612 1122.83 L153.612 1118.11 Q156.436 1116.97 158.89 1116.39 Q161.343 1115.82 163.38 1115.82 Q168.751 1115.82 171.945 1118.5 Q175.139 1121.19 175.139 1125.68 Q175.139 1127.81 174.329 1129.73 Q173.542 1131.63 171.436 1134.22 Q170.857 1134.89 167.755 1138.11 Q164.653 1141.3 159.005 1147.07 Z" fill="#000000" fill-rule="nonzero" fill-opacity="1" /><path clip-path="url(#clip070)" d="M114.839 934.919 L144.515 934.919 L144.515 938.854 L114.839 938.854 L114.839 934.919 Z" fill="#000000" fill-rule="nonzero" fill-opacity="1" /><path clip-path="url(#clip070)" d="M155.417 947.812 L163.056 947.812 L163.056 921.446 L154.746 923.113 L154.746 918.854 L163.01 917.187 L167.686 917.187 L167.686 947.812 L175.325 947.812 L175.325 951.747 L155.417 951.747 L155.417 947.812 Z" fill="#000000" fill-rule="nonzero" fill-opacity="1" /><path clip-path="url(#clip070)" d="M163.38 721.012 Q159.769 721.012 157.94 724.577 Q156.135 728.119 156.135 735.248 Q156.135 742.355 157.94 745.919 Q159.769 749.461 163.38 749.461 Q167.015 749.461 168.82 745.919 Q170.649 742.355 170.649 735.248 Q170.649 728.119 168.82 724.577 Q167.015 721.012 163.38 721.012 M163.38 717.308 Q169.19 717.308 172.246 721.915 Q175.325 726.498 175.325 735.248 Q175.325 743.975 172.246 748.581 Q169.19 753.165 163.38 753.165 Q157.57 753.165 154.491 748.581 Q151.436 743.975 151.436 735.248 Q151.436 726.498 154.491 721.915 Q157.57 717.308 163.38 717.308 Z" fill="#000000" fill-rule="nonzero" fill-opacity="1" /><path clip-path="url(#clip070)" d="M155.417 549.305 L163.056 549.305 L163.056 522.939 L154.746 524.606 L154.746 520.346 L163.01 518.68 L167.686 518.68 L167.686 549.305 L175.325 549.305 L175.325 553.24 L155.417 553.24 L155.417 549.305 Z" fill="#000000" fill-rule="nonzero" fill-opacity="1" /><path clip-path="url(#clip070)" d="M159.005 350.051 L175.325 350.051 L175.325 353.986 L153.38 353.986 L153.38 350.051 Q156.042 347.296 160.626 342.667 Q165.232 338.014 166.413 336.671 Q168.658 334.148 169.538 332.412 Q170.44 330.653 170.44 328.963 Q170.44 326.208 168.496 324.472 Q166.575 322.736 163.473 322.736 Q161.274 322.736 158.82 323.5 Q156.39 324.264 153.612 325.815 L153.612 321.093 Q156.436 319.958 158.89 319.38 Q161.343 318.801 163.38 318.801 Q168.751 318.801 171.945 321.486 Q175.139 324.171 175.139 328.662 Q175.139 330.792 174.329 332.713 Q173.542 334.611 171.436 337.204 Q170.857 337.875 167.755 341.093 Q164.653 344.287 159.005 350.051 Z" fill="#000000" fill-rule="nonzero" fill-opacity="1" /><path clip-path="url(#clip070)" d="M168.195 136.098 Q171.552 136.816 173.427 139.084 Q175.325 141.353 175.325 144.686 Q175.325 149.802 171.806 152.603 Q168.288 155.403 161.806 155.403 Q159.63 155.403 157.315 154.964 Q155.024 154.547 152.57 153.691 L152.57 149.177 Q154.515 150.311 156.829 150.89 Q159.144 151.468 161.667 151.468 Q166.065 151.468 168.357 149.732 Q170.672 147.996 170.672 144.686 Q170.672 141.63 168.519 139.917 Q166.39 138.181 162.57 138.181 L158.542 138.181 L158.542 134.339 L162.755 134.339 Q166.204 134.339 168.033 132.973 Q169.862 131.584 169.862 128.992 Q169.862 126.33 167.964 124.918 Q166.089 123.482 162.57 123.482 Q160.649 123.482 158.45 123.899 Q156.251 124.316 153.612 125.195 L153.612 121.029 Q156.274 120.288 158.589 119.918 Q160.927 119.547 162.987 119.547 Q168.311 119.547 171.413 121.978 Q174.514 124.385 174.514 128.505 Q174.514 131.376 172.871 133.367 Q171.227 135.334 168.195 136.098 Z" fill="#000000" fill-rule="nonzero" fill-opacity="1" /><path clip-path="url(#clip070)" d="M14.479 723.865 L19.3487 723.865 L19.3487 729.467 Q19.3487 732.618 20.6219 733.859 Q21.895 735.069 25.2052 735.069 L28.3562 735.069 L28.3562 725.425 L32.9077 725.425 L32.9077 735.069 L64.0042 735.069 L64.0042 740.957 L32.9077 740.957 L32.9077 746.559 L28.3562 746.559 L28.3562 740.957 L25.8736 740.957 Q19.9216 740.957 17.2162 738.188 Q14.479 735.419 14.479 729.403 L14.479 723.865 Z" fill="#000000" fill-rule="nonzero" fill-opacity="1" /><polyline clip-path="url(#clip072)" style="stroke:#800080; stroke-linecap:round; stroke-linejoin:round; stroke-width:4; stroke-opacity:1; fill:none" points="271.931,157.378 275.972,155.414 280.012,153.508 284.052,151.661 288.093,149.872 292.133,148.141 296.174,146.469 300.214,144.856 304.255,143.302 308.295,141.808 312.336,140.372 316.376,138.996 320.416,137.68 324.457,136.423 328.497,135.227 332.538,134.09 336.578,133.013 340.619,131.997 344.659,131.041 348.699,130.145 352.74,129.31 356.78,128.536 360.821,127.822 364.861,127.169 368.902,126.576 372.942,126.045 376.983,125.574 381.023,125.165 385.063,124.816 389.104,124.529 393.144,124.302 397.185,124.137 401.225,124.033 405.266,123.989 409.306,124.007 413.346,124.087 417.387,124.227 421.427,124.428 425.468,124.69 429.508,125.014 433.549,125.398 437.589,125.844 441.63,126.35 445.67,126.917 449.71,127.545 453.751,128.234 457.791,128.984 461.832,129.794 465.872,130.665 469.913,131.596 473.953,132.587 477.993,133.639 482.034,134.751 486.074,135.923 490.115,137.155 494.155,138.447 498.196,139.798 502.236,141.209 506.276,142.68 510.317,144.209 514.357,145.798 518.398,147.445 522.438,149.152 526.479,150.917 530.519,152.74 534.56,154.622 538.6,156.562 542.64,158.559 546.681,160.615 550.721,162.727 554.762,164.897 558.802,167.124 562.843,169.408 566.883,171.749 570.923,174.145 574.964,176.598 579.004,179.107 583.045,181.671 587.085,184.291 591.126,186.966 595.166,189.695 599.207,192.48 603.247,195.318 607.287,198.21 611.328,201.157 615.368,204.156 619.409,207.209 623.449,210.314 627.49,213.472 631.53,216.682 635.57,219.944 639.611,223.258 643.651,226.622 647.692,230.038 651.732,233.504 655.773,237.02 659.813,240.586 663.854,244.202 667.894,247.866 671.934,251.579 675.975,255.341 680.015,259.151 684.056,263.008 688.096,266.913 692.137,270.864 696.177,274.862 700.217,278.906 704.258,282.995 708.298,287.13 712.339,291.309 716.379,295.533 720.42,299.801 724.46,304.112 728.5,308.467 732.541,312.864 736.581,317.303 740.622,321.784 744.662,326.307 748.703,330.87 752.743,335.474 756.784,340.118 760.824,344.801 764.864,349.524 768.905,354.284 772.945,359.083 776.986,363.92 781.026,368.794 785.067,373.704 789.107,378.651 793.147,383.633 797.188,388.65 801.228,393.702 805.269,398.789 809.309,403.908 813.35,409.061 817.39,414.247 821.431,419.465 825.471,424.714 829.511,429.994 833.552,435.305 837.592,440.646 841.633,446.016 845.673,451.415 849.714,456.843 853.754,462.298 857.794,467.781 861.835,473.29 865.875,478.826 869.916,484.387 873.956,489.973 877.997,495.584 882.037,501.219 886.078,506.877 890.118,512.558 894.158,518.262 898.199,523.987 902.239,529.733 906.28,535.5 910.32,541.653 914.361,547.858 918.401,554.081 922.441,560.322 926.482,566.581 930.522,572.857 934.563,579.149 938.603,585.456 942.644,591.779 946.684,598.116 950.724,604.466 954.765,610.83 958.805,617.206 962.846,623.594 966.886,629.993 970.927,636.403 974.967,642.822 979.008,649.251 983.048,655.688 987.088,662.133 991.129,668.586 995.169,675.045 999.21,681.51 1003.25,687.981 1007.29,694.456 1011.33,700.936 1015.37,707.419 1019.41,713.904 1023.45,720.392 1027.49,726.881 1031.53,733.371 1035.57,739.861 1039.61,746.351 1043.65,752.84 1047.69,759.327 1051.74,765.811 1055.78,772.293 1059.82,778.77 1063.86,785.244 1067.9,791.712 1071.94,798.175 1075.98,804.631 1080.02,811.081 1084.06,817.523 1088.1,823.956 1092.14,830.381 1096.18,836.796 1100.22,843.202 1104.26,849.596 1108.3,855.979 1112.34,862.35 1116.38,868.708 1120.42,875.052 1124.46,881.383 1128.5,887.699 1132.54,894 1136.58,900.285 1140.63,906.554 1144.67,912.805 1148.71,919.039 1152.75,925.254 1156.79,931.45 1160.83,937.627 1164.87,943.783 1168.91,949.919 1172.95,956.033 1176.99,962.125 1181.03,968.194 1185.07,974.24 1189.11,980.262 1193.15,986.259 1197.19,992.232 1201.23,998.179 1205.27,1004.1 1209.31,1009.99 1213.35,1015.86 1217.39,1021.7 1221.43,1027.51 1225.47,1033.29 1229.51,1039.04 1233.56,1044.76 1237.6,1050.45 1241.64,1056.1 1245.68,1061.73 1249.72,1067.32 1253.76,1072.88 1257.8,1078.41 1261.84,1083.9 1265.88,1089.35 1269.92,1094.78 1273.96,1100.16 1278,1105.51 1282.04,1110.82 1286.08,1116.1 1290.12,1121.33 1294.16,1126.53 1298.2,1131.69 1302.24,1136.81 1306.28,1141.88 1310.32,1146.92 1314.36,1151.92 1318.4,1156.87 1322.44,1161.79 1326.49,1166.66 1330.53,1171.48 1334.57,1176.27 1338.61,1181.01 1342.65,1185.7 1346.69,1190.35 1350.73,1194.95 1354.77,1199.51 1358.81,1204.02 1362.85,1208.49 1366.89,1212.91 1370.93,1217.28 1374.97,1221.6 1379.01,1225.87 1383.05,1230.1 1387.09,1234.27 1391.13,1238.39 1395.17,1242.47 1399.21,1246.49 1403.25,1250.46 1407.29,1254.38 1411.33,1258.25 1415.37,1262.07 1419.42,1265.83 1423.46,1269.54 1427.5,1273.2 1431.54,1276.81 1435.58,1280.36 1439.62,1283.85 1443.66,1287.29 1447.7,1290.67 1451.74,1294 1455.78,1297.28 1459.82,1300.49 1463.86,1303.66 1467.9,1306.76 1471.94,1309.81 1475.98,1312.8 1480.02,1315.73 1484.06,1318.6 1488.1,1321.41 1492.14,1324.17 1496.18,1326.87 1500.22,1329.51 1504.26,1332.09 1508.3,1334.61 1512.35,1337.06 1516.39,1339.46 1520.43,1341.8 1524.47,1344.08 1528.51,1346.3 1532.55,1348.45 1536.59,1350.55 1540.63,1352.58 1544.67,1354.55 1548.71,1356.46 1552.75,1358.31 1556.79,1360.1 1560.83,1361.82 1564.87,1363.48 1568.91,1365.08 1572.95,1366.61 1576.99,1368.08 1581.03,1369.49 1585.07,1370.83 1589.11,1372.11 1593.15,1373.33 1597.19,1374.48 1601.23,1375.57 1605.28,1376.6 1609.32,1377.56 1613.36,1378.46 1617.4,1379.29 1621.44,1380.06 1625.48,1380.76 1629.52,1381.4 1633.56,1381.97 1637.6,1382.48 1641.64,1382.93 1645.68,1383.31 1649.72,1383.62 1653.76,1383.88 1657.8,1384.06 1661.84,1384.18 1665.88,1384.24 1669.92,1384.23 1673.96,1384.16 1678,1384.02 1682.04,1383.81 1686.08,1383.55 1690.12,1383.21 1694.16,1382.81 1698.21,1382.35 1702.25,1381.82 1706.29,1381.23 1710.33,1380.57 1714.37,1379.85 1718.41,1379.07 1722.45,1378.22 1726.49,1377.3 1730.53,1376.32 1734.57,1375.28 1738.61,1374.17 1742.65,1373 1746.69,1371.77 1750.73,1370.47 1754.77,1369.11 1758.81,1367.68 1762.85,1366.2 1766.89,1364.65 1770.93,1363.03 1774.97,1361.35 1779.01,1359.61 1783.05,1357.81 1787.09,1355.95 1791.14,1354.02 1795.18,1352.03 1799.22,1349.98 1803.26,1347.87 1807.3,1345.7 1811.34,1343.46 1815.38,1341.17 1819.42,1338.81 1823.46,1336.4 1827.5,1333.92 1831.54,1331.39 1835.58,1328.79 1839.62,1326.14 1843.66,1323.42 1847.7,1320.65 1851.74,1317.82 1855.78,1314.93 1859.82,1311.98 1863.86,1308.98 1867.9,1305.92 1871.94,1302.8 1875.98,1299.62 1880.02,1296.39 1884.07,1293.1 1888.11,1289.76 1892.15,1286.36 1896.19,1282.9 1900.23,1279.39 1904.27,1275.83 1908.31,1272.21 1912.35,1268.54 1916.39,1264.81 1920.43,1261.03 1924.47,1257.2 1928.51,1253.32 1932.55,1249.38 1936.59,1245.4 1940.63,1241.36 1944.67,1237.27 1948.71,1233.13 1952.75,1228.95 1956.79,1224.71 1960.83,1220.42 1964.87,1216.09 1968.91,1211.71 1972.95,1207.28 1977,1202.8 1981.04,1198.27 1985.08,1193.7 1989.12,1189.09 1993.16,1184.42 1997.2,1179.72 2001.24,1174.97 2005.28,1170.17 2009.32,1165.33 2013.36,1160.45 2017.4,1155.52 2021.44,1150.56 2025.48,1145.55 2029.52,1140.5 2033.56,1135.41 2037.6,1130.28 2041.64,1125.11 2045.68,1119.91 2049.72,1114.66 2053.76,1109.37 2057.8,1104.05 2061.84,1098.69 2065.88,1093.3 2069.93,1087.87 2073.97,1082.4 2078.01,1076.9 2082.05,1071.37 2086.09,1065.8 2090.13,1060.2 2094.17,1054.56 2098.21,1048.9 2102.25,1043.2 2106.29,1037.47 2110.33,1031.71 2114.37,1025.92 2118.41,1020.11 2122.45,1014.26 2126.49,1008.39 2130.53,1002.49 2134.57,996.558 2138.61,990.604 2142.65,984.624 2146.69,978.62 2150.73,972.591 2154.77,966.539 2158.81,960.463 2162.86,954.365 2166.9,948.245 2170.94,942.104 2174.98,935.942 2179.02,930.064 2183.06,924.261 2187.1,918.439 2191.14,912.598 2195.18,906.74 2199.22,900.865 2203.26,894.974 2207.3,889.066 2211.34,883.143 2215.38,877.205 2219.42,871.253 2223.46,865.287 2227.5,859.309 2231.54,853.318 2235.58,847.315 2239.62,841.301 2243.66,835.276 2247.7,829.241 2251.74,823.197 2255.79,817.144 2259.83,811.083 2263.87,805.015 2267.91,798.939 2271.95,792.857 2275.99,786.769 2280.03,780.676 2284.07,774.579 2288.11,768.477 2292.15,762.373 "/>
<polyline clip-path="url(#clip072)" style="stroke:#800080; stroke-linecap:round; stroke-linejoin:round; stroke-width:4; stroke-opacity:1; fill:none" points="271.931,117.527 275.972,115.565 280.012,113.666 284.052,111.828 288.093,110.053 292.133,108.34 296.174,106.69 300.214,105.103 304.255,103.579 308.295,102.118 312.336,100.721 316.376,99.3863 320.416,98.1157 324.457,96.9088 328.497,95.7658 332.538,94.6867 336.578,93.6716 340.619,92.7207 344.659,91.8341 348.699,91.0117 352.74,90.2538 356.78,89.5604 360.821,88.9316 364.861,88.3674 368.902,87.8678 372.942,87.433 376.983,87.063 381.023,86.7578 385.063,86.5175 389.104,86.342 393.144,86.2314 397.185,86.1857 401.225,86.2049 405.266,86.289 409.306,86.438 413.346,86.6518 417.387,86.9305 421.427,87.2741 425.468,87.6824 429.508,88.1555 433.549,88.6933 437.589,89.2958 441.63,89.9628 445.67,90.6944 449.71,91.4904 453.751,92.3508 457.791,93.2755 461.832,94.2644 465.872,95.3173 469.913,96.4343 473.953,97.6151 477.993,98.8597 482.034,100.168 486.074,101.54 490.115,102.975 494.155,104.473 498.196,106.034 502.236,107.659 506.276,109.346 510.317,111.095 514.357,112.908 518.398,114.782 522.438,116.718 526.479,118.716 530.519,120.776 534.56,122.897 538.6,125.08 542.64,127.324 546.681,129.628 550.721,131.993 554.762,134.418 558.802,136.903 562.843,139.448 566.883,142.053 570.923,144.717 574.964,147.44 579.004,150.222 583.045,153.062 587.085,155.961 591.126,158.917 595.166,161.931 599.207,165.003 603.247,168.131 607.287,171.316 611.328,174.558 615.368,177.855 619.409,181.209 623.449,184.617 627.49,188.081 631.53,191.6 635.57,195.172 639.611,198.799 643.651,202.48 647.692,206.214 651.732,210 655.773,213.839 659.813,217.731 663.854,221.674 667.894,225.668 671.934,229.714 675.975,233.81 680.015,237.956 684.056,242.152 688.096,246.397 692.137,250.691 696.177,255.033 700.217,259.424 704.258,263.862 708.298,268.347 712.339,272.879 716.379,277.457 720.42,282.081 724.46,286.75 728.5,291.464 732.541,296.222 736.581,301.025 740.622,305.87 744.662,310.759 748.703,315.69 752.743,320.663 756.784,325.678 760.824,330.733 764.864,335.829 768.905,340.965 772.945,346.14 776.986,351.354 781.026,356.607 785.067,361.897 789.107,367.225 793.147,372.59 797.188,377.99 801.228,383.427 805.269,388.899 809.309,394.405 813.35,399.945 817.39,405.519 821.431,411.126 825.471,416.766 829.511,422.437 833.552,428.139 837.592,433.872 841.633,439.636 845.673,445.429 849.714,451.25 853.754,457.101 857.794,462.979 861.835,468.884 865.875,474.816 869.916,480.774 873.956,486.757 877.997,492.765 882.037,498.798 886.078,504.854 890.118,510.933 894.158,517.035 898.199,523.158 902.239,529.303 906.28,535.468 910.32,541.286 914.361,547.092 918.401,552.917 922.441,558.76 926.482,564.621 930.522,570.499 934.563,576.393 938.603,582.303 942.644,588.229 946.684,594.169 950.724,600.123 954.765,606.091 958.805,612.071 962.846,618.064 966.886,624.069 970.927,630.085 974.967,636.111 979.008,642.148 983.048,648.193 987.088,654.247 991.129,660.31 995.169,666.379 999.21,672.456 1003.25,678.539 1007.29,684.628 1011.33,690.722 1015.37,696.82 1019.41,702.922 1023.45,709.027 1027.49,715.135 1031.53,721.245 1035.57,727.356 1039.61,733.468 1043.65,739.58 1047.69,745.692 1051.74,751.803 1055.78,757.912 1059.82,764.018 1063.86,770.122 1067.9,776.223 1071.94,782.319 1075.98,788.411 1080.02,794.497 1084.06,800.577 1088.1,806.651 1092.14,812.718 1096.18,818.777 1100.22,824.827 1104.26,830.869 1108.3,836.901 1112.34,842.923 1116.38,848.934 1120.42,854.934 1124.46,860.922 1128.5,866.897 1132.54,872.859 1136.58,878.807 1140.63,884.741 1144.67,890.66 1148.71,896.563 1152.75,902.451 1156.79,908.321 1160.83,914.175 1164.87,920.01 1168.91,925.827 1172.95,931.625 1176.99,937.403 1181.03,943.161 1185.07,948.898 1189.11,954.614 1193.15,960.307 1197.19,965.979 1201.23,971.627 1205.27,977.252 1209.31,982.852 1213.35,988.428 1217.39,993.978 1221.43,999.503 1225.47,1005 1229.51,1010.47 1233.56,1015.92 1237.6,1021.33 1241.64,1026.72 1245.68,1032.08 1249.72,1037.4 1253.76,1042.7 1257.8,1047.97 1261.84,1053.2 1265.88,1058.41 1269.92,1063.58 1273.96,1068.72 1278,1073.82 1282.04,1078.9 1286.08,1083.93 1290.12,1088.93 1294.16,1093.9 1298.2,1098.83 1302.24,1103.73 1306.28,1108.59 1310.32,1113.41 1314.36,1118.19 1318.4,1122.93 1322.44,1127.64 1326.49,1132.31 1330.53,1136.93 1334.57,1141.52 1338.61,1146.06 1342.65,1150.57 1346.69,1155.03 1350.73,1159.45 1354.77,1163.83 1358.81,1168.17 1362.85,1172.46 1366.89,1176.71 1370.93,1180.92 1374.97,1185.08 1379.01,1189.19 1383.05,1193.26 1387.09,1197.29 1391.13,1201.26 1395.17,1205.19 1399.21,1209.08 1403.25,1212.92 1407.29,1216.7 1411.33,1220.45 1415.37,1224.14 1419.42,1227.78 1423.46,1231.38 1427.5,1234.92 1431.54,1238.42 1435.58,1241.86 1439.62,1245.25 1443.66,1248.6 1447.7,1251.89 1451.74,1255.13 1455.78,1258.32 1459.82,1261.45 1463.86,1264.53 1467.9,1267.56 1471.94,1270.54 1475.98,1273.46 1480.02,1276.33 1484.06,1279.15 1488.1,1281.91 1492.14,1284.61 1496.18,1287.27 1500.22,1289.86 1504.26,1292.4 1508.3,1294.89 1512.35,1297.32 1516.39,1299.69 1520.43,1302 1524.47,1304.26 1528.51,1306.47 1532.55,1308.61 1536.59,1310.7 1540.63,1312.73 1544.67,1314.7 1548.71,1316.62 1552.75,1318.48 1556.79,1320.27 1560.83,1322.01 1564.87,1323.7 1568.91,1325.32 1572.95,1326.88 1576.99,1328.39 1581.03,1329.83 1585.07,1331.22 1589.11,1332.54 1593.15,1333.81 1597.19,1335.01 1601.23,1336.16 1605.28,1337.25 1609.32,1338.27 1613.36,1339.24 1617.4,1340.14 1621.44,1340.99 1625.48,1341.77 1629.52,1342.5 1633.56,1343.16 1637.6,1343.76 1641.64,1344.3 1645.68,1344.78 1649.72,1345.2 1653.76,1345.56 1657.8,1345.86 1661.84,1346.09 1665.88,1346.27 1669.92,1346.38 1673.96,1346.43 1678,1346.43 1682.04,1346.36 1686.08,1346.23 1690.12,1346.03 1694.16,1345.78 1698.21,1345.47 1702.25,1345.09 1706.29,1344.66 1710.33,1344.16 1714.37,1343.6 1718.41,1342.99 1722.45,1342.31 1726.49,1341.57 1730.53,1340.77 1734.57,1339.9 1738.61,1338.98 1742.65,1338 1746.69,1336.96 1750.73,1335.86 1754.77,1334.69 1758.81,1333.47 1762.85,1332.19 1766.89,1330.85 1770.93,1329.45 1774.97,1327.99 1779.01,1326.47 1783.05,1324.89 1787.09,1323.25 1791.14,1321.55 1795.18,1319.8 1799.22,1317.98 1803.26,1316.11 1807.3,1314.18 1811.34,1312.19 1815.38,1310.14 1819.42,1308.04 1823.46,1305.88 1827.5,1303.66 1831.54,1301.39 1835.58,1299.05 1839.62,1296.67 1843.66,1294.22 1847.7,1291.72 1851.74,1289.17 1855.78,1286.56 1859.82,1283.89 1863.86,1281.17 1867.9,1278.39 1871.94,1275.56 1875.98,1272.68 1880.02,1269.74 1884.07,1266.75 1888.11,1263.71 1892.15,1260.61 1896.19,1257.46 1900.23,1254.26 1904.27,1251.01 1908.31,1247.7 1912.35,1244.34 1916.39,1240.94 1920.43,1237.48 1924.47,1233.97 1928.51,1230.41 1932.55,1226.8 1936.59,1223.15 1940.63,1219.44 1944.67,1215.69 1948.71,1211.89 1952.75,1208.04 1956.79,1204.14 1960.83,1200.2 1964.87,1196.2 1968.91,1192.17 1972.95,1188.09 1977,1183.96 1981.04,1179.79 1985.08,1175.57 1989.12,1171.31 1993.16,1167 1997.2,1162.66 2001.24,1158.27 2005.28,1153.83 2009.32,1149.36 2013.36,1144.84 2017.4,1140.29 2021.44,1135.69 2025.48,1131.05 2029.52,1126.37 2033.56,1121.66 2037.6,1116.9 2041.64,1112.11 2045.68,1107.28 2049.72,1102.41 2053.76,1097.51 2057.8,1092.57 2061.84,1087.59 2065.88,1082.58 2069.93,1077.53 2073.97,1072.45 2078.01,1067.34 2082.05,1062.19 2086.09,1057.01 2090.13,1051.8 2094.17,1046.55 2098.21,1041.28 2102.25,1035.97 2106.29,1030.63 2110.33,1025.27 2114.37,1019.87 2118.41,1014.45 2122.45,1009 2126.49,1003.52 2130.53,998.016 2134.57,992.484 2138.61,986.927 2142.65,981.345 2146.69,975.738 2150.73,970.107 2154.77,964.452 2158.81,958.775 2162.86,953.075 2166.9,947.353 2170.94,941.611 2174.98,935.847 2179.02,929.76 2183.06,923.559 2187.1,917.338 2191.14,911.1 2195.18,904.844 2199.22,898.571 2203.26,892.281 2207.3,885.976 2211.34,879.656 2215.38,873.321 2219.42,866.973 2223.46,860.611 2227.5,854.237 2231.54,847.851 2235.58,841.454 2239.62,835.046 2243.66,828.628 2247.7,822.201 2251.74,815.765 2255.79,809.321 2259.83,802.869 2263.87,796.411 2267.91,789.947 2271.95,783.477 2275.99,777.002 2280.03,770.523 2284.07,764.041 2288.11,757.556 2292.15,751.068 "/>
<polyline clip-path="url(#clip072)" style="stroke:#ff0000; stroke-linecap:round; stroke-linejoin:round; stroke-width:4; stroke-opacity:1; fill:none" points="271.931,157.353 275.972,155.39 280.012,153.484 284.052,151.637 288.093,149.848 292.133,148.117 296.174,146.445 300.214,144.832 304.255,143.278 308.295,141.784 312.336,140.348 316.376,138.972 320.416,137.656 324.457,136.399 328.497,135.203 332.538,134.066 336.578,132.989 340.619,131.973 344.659,131.017 348.699,130.122 352.74,129.287 356.78,128.512 360.821,127.798 364.861,127.145 368.902,126.553 372.942,126.021 376.983,125.551 381.023,125.142 385.063,124.793 389.104,124.506 393.144,124.279 397.185,124.114 401.225,124.01 405.266,123.967 409.306,123.985 413.346,124.064 417.387,124.204 421.427,124.405 425.468,124.668 429.508,124.991 433.549,125.376 437.589,125.822 441.63,126.328 445.67,126.895 449.71,127.524 453.751,128.213 457.791,128.962 461.832,129.772 465.872,130.643 469.913,131.575 473.953,132.566 477.993,133.618 482.034,134.73 486.074,135.902 490.115,137.134 494.155,138.426 498.196,139.778 502.236,141.189 506.276,142.659 510.317,144.189 514.357,145.778 518.398,147.426 522.438,149.132 526.479,150.897 530.519,152.721 534.56,154.603 538.6,156.543 542.64,158.54 546.681,160.596 550.721,162.709 554.762,164.879 558.802,167.106 562.843,169.39 566.883,171.731 570.923,174.128 574.964,176.581 579.004,179.089 583.045,181.654 587.085,184.274 591.126,186.949 595.166,189.679 599.207,192.463 603.247,195.302 607.287,198.194 611.328,201.14 615.368,204.14 619.409,207.193 623.449,210.299 627.49,213.457 631.53,216.667 635.57,219.929 639.611,223.243 643.651,226.608 647.692,230.023 651.732,233.49 655.773,237.006 659.813,240.572 663.854,244.188 667.894,247.853 671.934,251.566 675.975,255.328 680.015,259.138 684.056,262.995 688.096,266.9 692.137,270.852 696.177,274.85 700.217,278.894 704.258,282.983 708.298,287.118 712.339,291.298 716.379,295.522 720.42,299.79 724.46,304.102 728.5,308.456 732.541,312.854 736.581,317.293 740.622,321.775 744.662,326.297 748.703,330.861 752.743,335.465 756.784,340.109 760.824,344.793 764.864,349.515 768.905,354.276 772.945,359.076 776.986,363.913 781.026,368.786 785.067,373.697 789.107,378.644 793.147,383.626 797.188,388.644 801.228,393.696 805.269,398.783 809.309,403.903 813.35,409.056 817.39,414.242 821.431,419.46 825.471,424.709 829.511,429.99 833.552,435.301 837.592,440.642 841.633,446.012 845.673,451.412 849.714,456.839 853.754,462.295 857.794,467.778 861.835,473.288 865.875,478.823 869.916,484.385 873.956,489.972 877.997,495.583 882.037,501.218 886.078,506.876 890.118,512.557 894.158,518.261 898.199,523.986 902.239,529.733 906.28,535.5 910.32,541.653 914.361,547.857 918.401,554.08 922.441,560.322 926.482,566.58 930.522,572.856 934.563,579.148 938.603,585.455 942.644,591.777 946.684,598.114 950.724,604.465 954.765,610.828 958.805,617.204 962.846,623.592 966.886,629.991 970.927,636.4 974.967,642.819 979.008,649.248 983.048,655.685 987.088,662.13 991.129,668.583 995.169,675.042 999.21,681.507 1003.25,687.977 1007.29,694.453 1011.33,700.932 1015.37,707.415 1019.41,713.9 1023.45,720.388 1027.49,726.877 1031.53,733.367 1035.57,739.857 1039.61,746.346 1043.65,752.835 1047.69,759.322 1051.74,765.806 1055.78,772.287 1059.82,778.765 1063.86,785.238 1067.9,791.706 1071.94,798.169 1075.98,804.625 1080.02,811.075 1084.06,817.516 1088.1,823.95 1092.14,830.374 1096.18,836.79 1100.22,843.195 1104.26,849.589 1108.3,855.972 1112.34,862.342 1116.38,868.7 1120.42,875.045 1124.46,881.375 1128.5,887.691 1132.54,893.992 1136.58,900.277 1140.63,906.545 1144.67,912.797 1148.71,919.03 1152.75,925.245 1156.79,931.441 1160.83,937.618 1164.87,943.774 1168.91,949.909 1172.95,956.023 1176.99,962.115 1181.03,968.184 1185.07,974.23 1189.11,980.252 1193.15,986.25 1197.19,992.222 1201.23,998.169 1205.27,1004.09 1209.31,1009.98 1213.35,1015.85 1217.39,1021.69 1221.43,1027.5 1225.47,1033.28 1229.51,1039.03 1233.56,1044.75 1237.6,1050.43 1241.64,1056.09 1245.68,1061.72 1249.72,1067.31 1253.76,1072.87 1257.8,1078.39 1261.84,1083.89 1265.88,1089.34 1269.92,1094.76 1273.96,1100.15 1278,1105.5 1282.04,1110.81 1286.08,1116.08 1290.12,1121.32 1294.16,1126.52 1298.2,1131.67 1302.24,1136.79 1306.28,1141.87 1310.32,1146.91 1314.36,1151.91 1318.4,1156.86 1322.44,1161.77 1326.49,1166.64 1330.53,1171.47 1334.57,1176.25 1338.61,1180.99 1342.65,1185.69 1346.69,1190.34 1350.73,1194.94 1354.77,1199.5 1358.81,1204.01 1362.85,1208.48 1366.89,1212.89 1370.93,1217.26 1374.97,1221.58 1379.01,1225.86 1383.05,1230.08 1387.09,1234.26 1391.13,1238.38 1395.17,1242.45 1399.21,1246.48 1403.25,1250.45 1407.29,1254.37 1411.33,1258.24 1415.37,1262.06 1419.42,1265.82 1423.46,1269.53 1427.5,1273.19 1431.54,1276.79 1435.58,1280.34 1439.62,1283.84 1443.66,1287.28 1447.7,1290.66 1451.74,1293.99 1455.78,1297.26 1459.82,1300.48 1463.86,1303.64 1467.9,1306.74 1471.94,1309.79 1475.98,1312.78 1480.02,1315.71 1484.06,1318.58 1488.1,1321.4 1492.14,1324.16 1496.18,1326.85 1500.22,1329.49 1504.26,1332.07 1508.3,1334.59 1512.35,1337.05 1516.39,1339.45 1520.43,1341.79 1524.47,1344.07 1528.51,1346.28 1532.55,1348.44 1536.59,1350.53 1540.63,1352.57 1544.67,1354.54 1548.71,1356.45 1552.75,1358.3 1556.79,1360.08 1560.83,1361.8 1564.87,1363.46 1568.91,1365.06 1572.95,1366.59 1576.99,1368.07 1581.03,1369.47 1585.07,1370.82 1589.11,1372.1 1593.15,1373.32 1597.19,1374.47 1601.23,1375.56 1605.28,1376.58 1609.32,1377.54 1613.36,1378.44 1617.4,1379.27 1621.44,1380.04 1625.48,1380.75 1629.52,1381.38 1633.56,1381.96 1637.6,1382.47 1641.64,1382.91 1645.68,1383.29 1649.72,1383.61 1653.76,1383.86 1657.8,1384.05 1661.84,1384.17 1665.88,1384.22 1669.92,1384.22 1673.96,1384.14 1678,1384 1682.04,1383.8 1686.08,1383.53 1690.12,1383.2 1694.16,1382.8 1698.21,1382.34 1702.25,1381.81 1706.29,1381.22 1710.33,1380.56 1714.37,1379.84 1718.41,1379.05 1722.45,1378.2 1726.49,1377.29 1730.53,1376.31 1734.57,1375.27 1738.61,1374.16 1742.65,1372.99 1746.69,1371.76 1750.73,1370.46 1754.77,1369.1 1758.81,1367.67 1762.85,1366.18 1766.89,1364.63 1770.93,1363.02 1774.97,1361.34 1779.01,1359.6 1783.05,1357.8 1787.09,1355.94 1791.14,1354.01 1795.18,1352.02 1799.22,1349.97 1803.26,1347.86 1807.3,1345.69 1811.34,1343.45 1815.38,1341.16 1819.42,1338.8 1823.46,1336.39 1827.5,1333.91 1831.54,1331.38 1835.58,1328.78 1839.62,1326.13 1843.66,1323.41 1847.7,1320.64 1851.74,1317.81 1855.78,1314.92 1859.82,1311.97 1863.86,1308.97 1867.9,1305.91 1871.94,1302.79 1875.98,1299.61 1880.02,1296.38 1884.07,1293.09 1888.11,1289.75 1892.15,1286.35 1896.19,1282.89 1900.23,1279.38 1904.27,1275.82 1908.31,1272.2 1912.35,1268.53 1916.39,1264.8 1920.43,1261.02 1924.47,1257.19 1928.51,1253.31 1932.55,1249.38 1936.59,1245.39 1940.63,1241.35 1944.67,1237.26 1948.71,1233.13 1952.75,1228.94 1956.79,1224.7 1960.83,1220.42 1964.87,1216.08 1968.91,1211.7 1972.95,1207.27 1977,1202.79 1981.04,1198.27 1985.08,1193.7 1989.12,1189.08 1993.16,1184.42 1997.2,1179.71 2001.24,1174.96 2005.28,1170.16 2009.32,1165.33 2013.36,1160.44 2017.4,1155.52 2021.44,1150.55 2025.48,1145.55 2029.52,1140.5 2033.56,1135.41 2037.6,1130.28 2041.64,1125.11 2045.68,1119.9 2049.72,1114.65 2053.76,1109.37 2057.8,1104.05 2061.84,1098.69 2065.88,1093.29 2069.93,1087.86 2073.97,1082.4 2078.01,1076.9 2082.05,1071.36 2086.09,1065.79 2090.13,1060.19 2094.17,1054.56 2098.21,1048.89 2102.25,1043.2 2106.29,1037.47 2110.33,1031.71 2114.37,1025.92 2118.41,1020.1 2122.45,1014.26 2126.49,1008.38 2130.53,1002.48 2134.57,996.556 2138.61,990.602 2142.65,984.623 2146.69,978.619 2150.73,972.59 2154.77,966.538 2158.81,960.463 2162.86,954.365 2166.9,948.245 2170.94,942.104 2174.98,935.942 2179.02,930.063 2183.06,924.26 2187.1,918.438 2191.14,912.597 2195.18,906.739 2199.22,900.864 2203.26,894.972 2207.3,889.064 2211.34,883.141 2215.38,877.203 2219.42,871.25 2223.46,865.285 2227.5,859.306 2231.54,853.314 2235.58,847.311 2239.62,841.297 2243.66,835.272 2247.7,829.237 2251.74,823.193 2255.79,817.14 2259.83,811.078 2263.87,805.009 2267.91,798.933 2271.95,792.851 2275.99,786.763 2280.03,780.67 2284.07,774.572 2288.11,768.471 2292.15,762.366 "/>
<polyline clip-path="url(#clip072)" style="stroke:#ff0000; stroke-linecap:round; stroke-linejoin:round; stroke-width:4; stroke-opacity:1; fill:none" points="271.931,117.542 275.972,115.58 280.012,113.681 284.052,111.843 288.093,110.068 292.133,108.355 296.174,106.705 300.214,105.118 304.255,103.594 308.295,102.133 312.336,100.736 316.376,99.4014 320.416,98.1308 324.457,96.9239 328.497,95.7808 332.538,94.7016 336.578,93.6866 340.619,92.7356 344.659,91.8489 348.699,91.0266 352.74,90.2687 356.78,89.5752 360.821,88.9464 364.861,88.3821 368.902,87.8825 372.942,87.4477 376.983,87.0777 381.023,86.7724 385.063,86.532 389.104,86.3565 393.144,86.2458 397.185,86.2001 401.225,86.2192 405.266,86.3033 409.306,86.4522 413.346,86.666 417.387,86.9447 421.427,87.2882 425.468,87.6965 429.508,88.1695 433.549,88.7073 437.589,89.3097 441.63,89.9767 445.67,90.7082 449.71,91.5041 453.751,92.3644 457.791,93.2891 461.832,94.2779 465.872,95.3308 469.913,96.4476 473.953,97.6284 477.993,98.8729 482.034,100.181 486.074,101.553 490.115,102.988 494.155,104.486 498.196,106.047 502.236,107.672 506.276,109.359 510.317,111.108 514.357,112.92 518.398,114.794 522.438,116.731 526.479,118.729 530.519,120.788 534.56,122.91 538.6,125.092 542.64,127.335 546.681,129.64 550.721,132.004 554.762,134.429 558.802,136.915 562.843,139.46 566.883,142.064 570.923,144.728 574.964,147.451 579.004,150.233 583.045,153.073 587.085,155.971 591.126,158.928 595.166,161.942 599.207,165.013 603.247,168.141 607.287,171.326 611.328,174.568 615.368,177.865 619.409,181.218 623.449,184.627 627.49,188.091 631.53,191.609 635.57,195.182 639.611,198.809 643.651,202.489 647.692,206.223 651.732,210.009 655.773,213.848 659.813,217.74 663.854,221.682 667.894,225.677 671.934,229.722 675.975,233.818 680.015,237.964 684.056,242.16 688.096,246.404 692.137,250.698 696.177,255.041 700.217,259.431 704.258,263.869 708.298,268.354 712.339,272.886 716.379,277.464 720.42,282.087 724.46,286.756 728.5,291.47 732.541,296.229 736.581,301.031 740.622,305.876 744.662,310.765 748.703,315.696 752.743,320.669 756.784,325.683 760.824,330.738 764.864,335.834 768.905,340.97 772.945,346.145 776.986,351.359 781.026,356.611 785.067,361.902 789.107,367.229 793.147,372.594 797.188,377.994 801.228,383.431 805.269,388.902 809.309,394.409 813.35,399.949 817.39,405.523 821.431,411.13 825.471,416.769 829.511,422.44 833.552,428.142 837.592,433.875 841.633,439.638 845.673,445.431 849.714,451.253 853.754,457.103 857.794,462.981 861.835,468.886 865.875,474.817 869.916,480.775 873.956,486.758 877.997,492.766 882.037,498.799 886.078,504.855 890.118,510.934 894.158,517.035 898.199,523.158 902.239,529.303 906.28,535.468 910.32,541.286 914.361,547.093 918.401,552.918 922.441,558.761 926.482,564.622 930.522,570.5 934.563,576.395 938.603,582.305 942.644,588.231 946.684,594.171 950.724,600.126 954.765,606.094 958.805,612.075 962.846,618.068 966.886,624.073 970.927,630.089 974.967,636.115 979.008,642.152 983.048,648.198 987.088,654.252 991.129,660.315 995.169,666.385 999.21,672.462 1003.25,678.545 1007.29,684.634 1011.33,690.728 1015.37,696.826 1019.41,702.928 1023.45,709.034 1027.49,715.142 1031.53,721.252 1035.57,727.363 1039.61,733.476 1043.65,739.588 1047.69,745.7 1051.74,751.811 1055.78,757.92 1059.82,764.027 1063.86,770.132 1067.9,776.232 1071.94,782.329 1075.98,788.421 1080.02,794.507 1084.06,800.588 1088.1,806.662 1092.14,812.729 1096.18,818.788 1100.22,824.839 1104.26,830.88 1108.3,836.913 1112.34,842.935 1116.38,848.946 1120.42,854.946 1124.46,860.934 1128.5,866.91 1132.54,872.872 1136.58,878.82 1140.63,884.754 1144.67,890.674 1148.71,896.577 1152.75,902.465 1156.79,908.335 1160.83,914.189 1164.87,920.024 1168.91,925.841 1172.95,931.639 1176.99,937.418 1181.03,943.176 1185.07,948.913 1189.11,954.629 1193.15,960.323 1197.19,965.995 1201.23,971.643 1205.27,977.268 1209.31,982.869 1213.35,988.444 1217.39,993.995 1221.43,999.52 1225.47,1005.02 1229.51,1010.49 1233.56,1015.93 1237.6,1021.35 1241.64,1026.74 1245.68,1032.09 1249.72,1037.42 1253.76,1042.72 1257.8,1047.99 1261.84,1053.22 1265.88,1058.43 1269.92,1063.6 1273.96,1068.74 1278,1073.84 1282.04,1078.91 1286.08,1083.95 1290.12,1088.95 1294.16,1093.92 1298.2,1098.85 1302.24,1103.75 1306.28,1108.61 1310.32,1113.43 1314.36,1118.21 1318.4,1122.95 1322.44,1127.66 1326.49,1132.33 1330.53,1136.95 1334.57,1141.54 1338.61,1146.09 1342.65,1150.59 1346.69,1155.05 1350.73,1159.48 1354.77,1163.85 1358.81,1168.19 1362.85,1172.48 1366.89,1176.73 1370.93,1180.94 1374.97,1185.1 1379.01,1189.21 1383.05,1193.28 1387.09,1197.31 1391.13,1201.29 1395.17,1205.22 1399.21,1209.1 1403.25,1212.94 1407.29,1216.73 1411.33,1220.47 1415.37,1224.16 1419.42,1227.8 1423.46,1231.4 1427.5,1234.94 1431.54,1238.44 1435.58,1241.88 1439.62,1245.28 1443.66,1248.62 1447.7,1251.91 1451.74,1255.15 1455.78,1258.34 1459.82,1261.47 1463.86,1264.56 1467.9,1267.59 1471.94,1270.56 1475.98,1273.49 1480.02,1276.36 1484.06,1279.17 1488.1,1281.93 1492.14,1284.64 1496.18,1287.29 1500.22,1289.89 1504.26,1292.43 1508.3,1294.91 1512.35,1297.34 1516.39,1299.71 1520.43,1302.03 1524.47,1304.29 1528.51,1306.49 1532.55,1308.64 1536.59,1310.72 1540.63,1312.76 1544.67,1314.73 1548.71,1316.64 1552.75,1318.5 1556.79,1320.3 1560.83,1322.04 1564.87,1323.72 1568.91,1325.34 1572.95,1326.91 1576.99,1328.41 1581.03,1329.85 1585.07,1331.24 1589.11,1332.57 1593.15,1333.83 1597.19,1335.04 1601.23,1336.18 1605.28,1337.27 1609.32,1338.3 1613.36,1339.26 1617.4,1340.17 1621.44,1341.01 1625.48,1341.8 1629.52,1342.52 1633.56,1343.18 1637.6,1343.78 1641.64,1344.32 1645.68,1344.81 1649.72,1345.22 1653.76,1345.58 1657.8,1345.88 1661.84,1346.12 1665.88,1346.29 1669.92,1346.4 1673.96,1346.46 1678,1346.45 1682.04,1346.38 1686.08,1346.25 1690.12,1346.06 1694.16,1345.8 1698.21,1345.49 1702.25,1345.12 1706.29,1344.68 1710.33,1344.18 1714.37,1343.63 1718.41,1343.01 1722.45,1342.33 1726.49,1341.59 1730.53,1340.79 1734.57,1339.93 1738.61,1339 1742.65,1338.02 1746.69,1336.98 1750.73,1335.88 1754.77,1334.72 1758.81,1333.49 1762.85,1332.21 1766.89,1330.87 1770.93,1329.47 1774.97,1328.01 1779.01,1326.49 1783.05,1324.91 1787.09,1323.27 1791.14,1321.57 1795.18,1319.81 1799.22,1318 1803.26,1316.13 1807.3,1314.2 1811.34,1312.21 1815.38,1310.16 1819.42,1308.06 1823.46,1305.9 1827.5,1303.68 1831.54,1301.4 1835.58,1299.07 1839.62,1296.68 1843.66,1294.24 1847.7,1291.74 1851.74,1289.19 1855.78,1286.57 1859.82,1283.91 1863.86,1281.19 1867.9,1278.41 1871.94,1275.58 1875.98,1272.7 1880.02,1269.76 1884.07,1266.77 1888.11,1263.72 1892.15,1260.63 1896.19,1257.48 1900.23,1254.27 1904.27,1251.02 1908.31,1247.72 1912.35,1244.36 1916.39,1240.95 1920.43,1237.49 1924.47,1233.98 1928.51,1230.43 1932.55,1226.82 1936.59,1223.16 1940.63,1219.46 1944.67,1215.7 1948.71,1211.9 1952.75,1208.05 1956.79,1204.15 1960.83,1200.21 1964.87,1196.22 1968.91,1192.18 1972.95,1188.1 1977,1183.97 1981.04,1179.8 1985.08,1175.58 1989.12,1171.32 1993.16,1167.01 1997.2,1162.67 2001.24,1158.28 2005.28,1153.84 2009.32,1149.37 2013.36,1144.85 2017.4,1140.3 2021.44,1135.7 2025.48,1131.06 2029.52,1126.38 2033.56,1121.67 2037.6,1116.91 2041.64,1112.12 2045.68,1107.29 2049.72,1102.42 2053.76,1097.51 2057.8,1092.57 2061.84,1087.6 2065.88,1082.58 2069.93,1077.54 2073.97,1072.46 2078.01,1067.34 2082.05,1062.19 2086.09,1057.01 2090.13,1051.8 2094.17,1046.56 2098.21,1041.28 2102.25,1035.97 2106.29,1030.64 2110.33,1025.27 2114.37,1019.88 2118.41,1014.45 2122.45,1009 2126.49,1003.52 2130.53,998.019 2134.57,992.487 2138.61,986.929 2142.65,981.347 2146.69,975.74 2150.73,970.108 2154.77,964.453 2158.81,958.776 2162.86,953.076 2166.9,947.354 2170.94,941.611 2174.98,935.847 2179.02,929.76 2183.06,923.559 2187.1,917.339 2191.14,911.1 2195.18,904.845 2199.22,898.572 2203.26,892.282 2207.3,885.977 2211.34,879.657 2215.38,873.323 2219.42,866.975 2223.46,860.613 2227.5,854.239 2231.54,847.853 2235.58,841.456 2239.62,835.048 2243.66,828.63 2247.7,822.203 2251.74,815.767 2255.79,809.324 2259.83,802.872 2263.87,796.414 2267.91,789.95 2271.95,783.48 2275.99,777.006 2280.03,770.527 2284.07,764.045 2288.11,757.56 2292.15,751.073 "/>
<polyline clip-path="url(#clip072)" style="stroke:#0000ff; stroke-linecap:round; stroke-linejoin:round; stroke-width:4; stroke-opacity:1; fill:none" stroke-dasharray="16, 10" points="271.931,157.378 275.972,155.414 280.012,153.508 284.052,151.661 288.093,149.872 292.133,148.141 296.174,146.469 300.214,144.856 304.255,143.302 308.295,141.808 312.336,140.372 316.376,138.996 320.416,137.68 324.457,136.423 328.497,135.227 332.538,134.09 336.578,133.013 340.619,131.997 344.659,131.041 348.699,130.145 352.74,129.31 356.78,128.536 360.821,127.822 364.861,127.169 368.902,126.576 372.942,126.045 376.983,125.574 381.023,125.165 385.063,124.816 389.104,124.529 393.144,124.302 397.185,124.137 401.225,124.033 405.266,123.989 409.306,124.007 413.346,124.087 417.387,124.227 421.427,124.428 425.468,124.69 429.508,125.014 433.549,125.398 437.589,125.844 441.63,126.35 445.67,126.917 449.71,127.545 453.751,128.234 457.791,128.984 461.832,129.794 465.872,130.665 469.913,131.596 473.953,132.587 477.993,133.639 482.034,134.751 486.074,135.923 490.115,137.155 494.155,138.447 498.196,139.798 502.236,141.209 506.276,142.68 510.317,144.209 514.357,145.798 518.398,147.445 522.438,149.152 526.479,150.917 530.519,152.74 534.56,154.622 538.6,156.562 542.64,158.559 546.681,160.615 550.721,162.727 554.762,164.897 558.802,167.124 562.843,169.408 566.883,171.749 570.923,174.145 574.964,176.598 579.004,179.107 583.045,181.671 587.085,184.291 591.126,186.966 595.166,189.695 599.207,192.48 603.247,195.318 607.287,198.21 611.328,201.157 615.368,204.156 619.409,207.209 623.449,210.314 627.49,213.472 631.53,216.682 635.57,219.944 639.611,223.258 643.651,226.622 647.692,230.038 651.732,233.504 655.773,237.02 659.813,240.586 663.854,244.202 667.894,247.866 671.934,251.579 675.975,255.341 680.015,259.151 684.056,263.008 688.096,266.913 692.137,270.864 696.177,274.862 700.217,278.906 704.258,282.995 708.298,287.13 712.339,291.309 716.379,295.533 720.42,299.801 724.46,304.112 728.5,308.467 732.541,312.864 736.581,317.303 740.622,321.784 744.662,326.307 748.703,330.87 752.743,335.474 756.784,340.118 760.824,344.801 764.864,349.524 768.905,354.284 772.945,359.083 776.986,363.92 781.026,368.794 785.067,373.704 789.107,378.651 793.147,383.633 797.188,388.65 801.228,393.702 805.269,398.789 809.309,403.908 813.35,409.061 817.39,414.247 821.431,419.465 825.471,424.714 829.511,429.994 833.552,435.305 837.592,440.646 841.633,446.016 845.673,451.415 849.714,456.843 853.754,462.298 857.794,467.781 861.835,473.29 865.875,478.826 869.916,484.387 873.956,489.973 877.997,495.584 882.037,501.219 886.078,506.877 890.118,512.558 894.158,518.262 898.199,523.987 902.239,529.733 906.28,535.5 910.32,541.653 914.361,547.858 918.401,554.081 922.441,560.322 926.482,566.581 930.522,572.857 934.563,579.149 938.603,585.456 942.644,591.779 946.684,598.116 950.724,604.466 954.765,610.83 958.805,617.206 962.846,623.594 966.886,629.993 970.927,636.403 974.967,642.822 979.008,649.251 983.048,655.688 987.088,662.133 991.129,668.586 995.169,675.045 999.21,681.51 1003.25,687.981 1007.29,694.456 1011.33,700.936 1015.37,707.419 1019.41,713.904 1023.45,720.392 1027.49,726.881 1031.53,733.371 1035.57,739.861 1039.61,746.351 1043.65,752.84 1047.69,759.327 1051.74,765.811 1055.78,772.293 1059.82,778.77 1063.86,785.244 1067.9,791.712 1071.94,798.175 1075.98,804.631 1080.02,811.081 1084.06,817.523 1088.1,823.956 1092.14,830.381 1096.18,836.796 1100.22,843.202 1104.26,849.596 1108.3,855.979 1112.34,862.35 1116.38,868.708 1120.42,875.052 1124.46,881.383 1128.5,887.699 1132.54,894 1136.58,900.285 1140.63,906.554 1144.67,912.805 1148.71,919.039 1152.75,925.254 1156.79,931.45 1160.83,937.627 1164.87,943.783 1168.91,949.919 1172.95,956.033 1176.99,962.125 1181.03,968.194 1185.07,974.24 1189.11,980.262 1193.15,986.259 1197.19,992.232 1201.23,998.179 1205.27,1004.1 1209.31,1009.99 1213.35,1015.86 1217.39,1021.7 1221.43,1027.51 1225.47,1033.29 1229.51,1039.04 1233.56,1044.76 1237.6,1050.45 1241.64,1056.1 1245.68,1061.73 1249.72,1067.32 1253.76,1072.88 1257.8,1078.41 1261.84,1083.9 1265.88,1089.35 1269.92,1094.78 1273.96,1100.16 1278,1105.51 1282.04,1110.82 1286.08,1116.1 1290.12,1121.33 1294.16,1126.53 1298.2,1131.69 1302.24,1136.81 1306.28,1141.88 1310.32,1146.92 1314.36,1151.92 1318.4,1156.87 1322.44,1161.79 1326.49,1166.66 1330.53,1171.48 1334.57,1176.27 1338.61,1181.01 1342.65,1185.7 1346.69,1190.35 1350.73,1194.95 1354.77,1199.51 1358.81,1204.02 1362.85,1208.49 1366.89,1212.91 1370.93,1217.28 1374.97,1221.6 1379.01,1225.87 1383.05,1230.1 1387.09,1234.27 1391.13,1238.39 1395.17,1242.47 1399.21,1246.49 1403.25,1250.46 1407.29,1254.38 1411.33,1258.25 1415.37,1262.07 1419.42,1265.83 1423.46,1269.54 1427.5,1273.2 1431.54,1276.81 1435.58,1280.36 1439.62,1283.85 1443.66,1287.29 1447.7,1290.67 1451.74,1294 1455.78,1297.28 1459.82,1300.49 1463.86,1303.66 1467.9,1306.76 1471.94,1309.81 1475.98,1312.8 1480.02,1315.73 1484.06,1318.6 1488.1,1321.41 1492.14,1324.17 1496.18,1326.87 1500.22,1329.51 1504.26,1332.09 1508.3,1334.61 1512.35,1337.06 1516.39,1339.46 1520.43,1341.8 1524.47,1344.08 1528.51,1346.3 1532.55,1348.45 1536.59,1350.55 1540.63,1352.58 1544.67,1354.55 1548.71,1356.46 1552.75,1358.31 1556.79,1360.1 1560.83,1361.82 1564.87,1363.48 1568.91,1365.08 1572.95,1366.61 1576.99,1368.08 1581.03,1369.49 1585.07,1370.83 1589.11,1372.11 1593.15,1373.33 1597.19,1374.48 1601.23,1375.57 1605.28,1376.6 1609.32,1377.56 1613.36,1378.46 1617.4,1379.29 1621.44,1380.06 1625.48,1380.76 1629.52,1381.4 1633.56,1381.97 1637.6,1382.48 1641.64,1382.93 1645.68,1383.31 1649.72,1383.62 1653.76,1383.88 1657.8,1384.06 1661.84,1384.18 1665.88,1384.24 1669.92,1384.23 1673.96,1384.16 1678,1384.02 1682.04,1383.81 1686.08,1383.55 1690.12,1383.21 1694.16,1382.81 1698.21,1382.35 1702.25,1381.82 1706.29,1381.23 1710.33,1380.57 1714.37,1379.85 1718.41,1379.07 1722.45,1378.22 1726.49,1377.3 1730.53,1376.32 1734.57,1375.28 1738.61,1374.17 1742.65,1373 1746.69,1371.77 1750.73,1370.47 1754.77,1369.11 1758.81,1367.68 1762.85,1366.2 1766.89,1364.65 1770.93,1363.03 1774.97,1361.35 1779.01,1359.61 1783.05,1357.81 1787.09,1355.95 1791.14,1354.02 1795.18,1352.03 1799.22,1349.98 1803.26,1347.87 1807.3,1345.7 1811.34,1343.46 1815.38,1341.17 1819.42,1338.81 1823.46,1336.4 1827.5,1333.92 1831.54,1331.39 1835.58,1328.79 1839.62,1326.14 1843.66,1323.42 1847.7,1320.65 1851.74,1317.82 1855.78,1314.93 1859.82,1311.98 1863.86,1308.98 1867.9,1305.92 1871.94,1302.8 1875.98,1299.62 1880.02,1296.39 1884.07,1293.1 1888.11,1289.76 1892.15,1286.36 1896.19,1282.9 1900.23,1279.39 1904.27,1275.83 1908.31,1272.21 1912.35,1268.54 1916.39,1264.81 1920.43,1261.03 1924.47,1257.2 1928.51,1253.32 1932.55,1249.38 1936.59,1245.4 1940.63,1241.36 1944.67,1237.27 1948.71,1233.13 1952.75,1228.95 1956.79,1224.71 1960.83,1220.42 1964.87,1216.09 1968.91,1211.71 1972.95,1207.28 1977,1202.8 1981.04,1198.27 1985.08,1193.7 1989.12,1189.09 1993.16,1184.42 1997.2,1179.72 2001.24,1174.97 2005.28,1170.17 2009.32,1165.33 2013.36,1160.45 2017.4,1155.52 2021.44,1150.56 2025.48,1145.55 2029.52,1140.5 2033.56,1135.41 2037.6,1130.28 2041.64,1125.11 2045.68,1119.91 2049.72,1114.66 2053.76,1109.37 2057.8,1104.05 2061.84,1098.69 2065.88,1093.3 2069.93,1087.87 2073.97,1082.4 2078.01,1076.9 2082.05,1071.37 2086.09,1065.8 2090.13,1060.2 2094.17,1054.56 2098.21,1048.9 2102.25,1043.2 2106.29,1037.47 2110.33,1031.71 2114.37,1025.92 2118.41,1020.11 2122.45,1014.26 2126.49,1008.39 2130.53,1002.49 2134.57,996.558 2138.61,990.604 2142.65,984.624 2146.69,978.62 2150.73,972.591 2154.77,966.539 2158.81,960.463 2162.86,954.365 2166.9,948.245 2170.94,942.104 2174.98,935.942 2179.02,930.064 2183.06,924.261 2187.1,918.439 2191.14,912.598 2195.18,906.74 2199.22,900.865 2203.26,894.974 2207.3,889.066 2211.34,883.143 2215.38,877.205 2219.42,871.253 2223.46,865.287 2227.5,859.309 2231.54,853.318 2235.58,847.315 2239.62,841.301 2243.66,835.276 2247.7,829.241 2251.74,823.197 2255.79,817.144 2259.83,811.083 2263.87,805.015 2267.91,798.939 2271.95,792.857 2275.99,786.769 2280.03,780.676 2284.07,774.579 2288.11,768.477 2292.15,762.373 "/>
<polyline clip-path="url(#clip072)" style="stroke:#0000ff; stroke-linecap:round; stroke-linejoin:round; stroke-width:4; stroke-opacity:1; fill:none" stroke-dasharray="16, 10" points="271.931,117.527 275.972,115.565 280.012,113.666 284.052,111.828 288.093,110.053 292.133,108.34 296.174,106.69 300.214,105.103 304.255,103.579 308.295,102.118 312.336,100.721 316.376,99.3863 320.416,98.1157 324.457,96.9088 328.497,95.7658 332.538,94.6867 336.578,93.6716 340.619,92.7207 344.659,91.8341 348.699,91.0117 352.74,90.2538 356.78,89.5604 360.821,88.9316 364.861,88.3674 368.902,87.8678 372.942,87.433 376.983,87.063 381.023,86.7578 385.063,86.5175 389.104,86.342 393.144,86.2314 397.185,86.1857 401.225,86.2049 405.266,86.289 409.306,86.438 413.346,86.6518 417.387,86.9305 421.427,87.2741 425.468,87.6824 429.508,88.1555 433.549,88.6933 437.589,89.2958 441.63,89.9628 445.67,90.6944 449.71,91.4904 453.751,92.3508 457.791,93.2755 461.832,94.2644 465.872,95.3173 469.913,96.4343 473.953,97.6151 477.993,98.8597 482.034,100.168 486.074,101.54 490.115,102.975 494.155,104.473 498.196,106.034 502.236,107.659 506.276,109.346 510.317,111.095 514.357,112.908 518.398,114.782 522.438,116.718 526.479,118.716 530.519,120.776 534.56,122.897 538.6,125.08 542.64,127.324 546.681,129.628 550.721,131.993 554.762,134.418 558.802,136.903 562.843,139.448 566.883,142.053 570.923,144.717 574.964,147.44 579.004,150.222 583.045,153.062 587.085,155.961 591.126,158.917 595.166,161.931 599.207,165.003 603.247,168.131 607.287,171.316 611.328,174.558 615.368,177.855 619.409,181.209 623.449,184.617 627.49,188.081 631.53,191.6 635.57,195.172 639.611,198.799 643.651,202.48 647.692,206.214 651.732,210 655.773,213.839 659.813,217.731 663.854,221.674 667.894,225.668 671.934,229.714 675.975,233.81 680.015,237.956 684.056,242.152 688.096,246.397 692.137,250.691 696.177,255.033 700.217,259.424 704.258,263.862 708.298,268.347 712.339,272.879 716.379,277.457 720.42,282.081 724.46,286.75 728.5,291.464 732.541,296.222 736.581,301.025 740.622,305.87 744.662,310.759 748.703,315.69 752.743,320.663 756.784,325.678 760.824,330.733 764.864,335.829 768.905,340.965 772.945,346.14 776.986,351.354 781.026,356.607 785.067,361.897 789.107,367.225 793.147,372.59 797.188,377.99 801.228,383.427 805.269,388.899 809.309,394.405 813.35,399.945 817.39,405.519 821.431,411.126 825.471,416.766 829.511,422.437 833.552,428.139 837.592,433.872 841.633,439.636 845.673,445.429 849.714,451.25 853.754,457.101 857.794,462.979 861.835,468.884 865.875,474.816 869.916,480.774 873.956,486.757 877.997,492.765 882.037,498.798 886.078,504.854 890.118,510.933 894.158,517.035 898.199,523.158 902.239,529.303 906.28,535.468 910.32,541.286 914.361,547.092 918.401,552.917 922.441,558.76 926.482,564.621 930.522,570.499 934.563,576.393 938.603,582.303 942.644,588.229 946.684,594.169 950.724,600.123 954.765,606.091 958.805,612.071 962.846,618.064 966.886,624.069 970.927,630.085 974.967,636.111 979.008,642.148 983.048,648.193 987.088,654.247 991.129,660.31 995.169,666.379 999.21,672.456 1003.25,678.539 1007.29,684.628 1011.33,690.722 1015.37,696.82 1019.41,702.922 1023.45,709.027 1027.49,715.135 1031.53,721.245 1035.57,727.356 1039.61,733.468 1043.65,739.58 1047.69,745.692 1051.74,751.803 1055.78,757.912 1059.82,764.018 1063.86,770.122 1067.9,776.223 1071.94,782.319 1075.98,788.411 1080.02,794.497 1084.06,800.577 1088.1,806.651 1092.14,812.718 1096.18,818.777 1100.22,824.827 1104.26,830.869 1108.3,836.901 1112.34,842.923 1116.38,848.934 1120.42,854.934 1124.46,860.922 1128.5,866.897 1132.54,872.859 1136.58,878.807 1140.63,884.741 1144.67,890.66 1148.71,896.563 1152.75,902.451 1156.79,908.321 1160.83,914.175 1164.87,920.01 1168.91,925.827 1172.95,931.625 1176.99,937.403 1181.03,943.161 1185.07,948.898 1189.11,954.614 1193.15,960.307 1197.19,965.979 1201.23,971.627 1205.27,977.252 1209.31,982.852 1213.35,988.428 1217.39,993.978 1221.43,999.503 1225.47,1005 1229.51,1010.47 1233.56,1015.92 1237.6,1021.33 1241.64,1026.72 1245.68,1032.08 1249.72,1037.4 1253.76,1042.7 1257.8,1047.97 1261.84,1053.2 1265.88,1058.41 1269.92,1063.58 1273.96,1068.72 1278,1073.82 1282.04,1078.9 1286.08,1083.93 1290.12,1088.93 1294.16,1093.9 1298.2,1098.83 1302.24,1103.73 1306.28,1108.59 1310.32,1113.41 1314.36,1118.19 1318.4,1122.93 1322.44,1127.64 1326.49,1132.31 1330.53,1136.93 1334.57,1141.52 1338.61,1146.06 1342.65,1150.57 1346.69,1155.03 1350.73,1159.45 1354.77,1163.83 1358.81,1168.17 1362.85,1172.46 1366.89,1176.71 1370.93,1180.92 1374.97,1185.08 1379.01,1189.19 1383.05,1193.26 1387.09,1197.29 1391.13,1201.26 1395.17,1205.19 1399.21,1209.08 1403.25,1212.92 1407.29,1216.7 1411.33,1220.45 1415.37,1224.14 1419.42,1227.78 1423.46,1231.38 1427.5,1234.92 1431.54,1238.42 1435.58,1241.86 1439.62,1245.25 1443.66,1248.6 1447.7,1251.89 1451.74,1255.13 1455.78,1258.32 1459.82,1261.45 1463.86,1264.53 1467.9,1267.56 1471.94,1270.54 1475.98,1273.46 1480.02,1276.33 1484.06,1279.15 1488.1,1281.91 1492.14,1284.61 1496.18,1287.27 1500.22,1289.86 1504.26,1292.4 1508.3,1294.89 1512.35,1297.32 1516.39,1299.69 1520.43,1302 1524.47,1304.26 1528.51,1306.47 1532.55,1308.61 1536.59,1310.7 1540.63,1312.73 1544.67,1314.7 1548.71,1316.62 1552.75,1318.48 1556.79,1320.27 1560.83,1322.01 1564.87,1323.7 1568.91,1325.32 1572.95,1326.88 1576.99,1328.39 1581.03,1329.83 1585.07,1331.22 1589.11,1332.54 1593.15,1333.81 1597.19,1335.01 1601.23,1336.16 1605.28,1337.25 1609.32,1338.27 1613.36,1339.24 1617.4,1340.14 1621.44,1340.99 1625.48,1341.77 1629.52,1342.5 1633.56,1343.16 1637.6,1343.76 1641.64,1344.3 1645.68,1344.78 1649.72,1345.2 1653.76,1345.56 1657.8,1345.86 1661.84,1346.09 1665.88,1346.27 1669.92,1346.38 1673.96,1346.43 1678,1346.43 1682.04,1346.36 1686.08,1346.23 1690.12,1346.03 1694.16,1345.78 1698.21,1345.47 1702.25,1345.09 1706.29,1344.66 1710.33,1344.16 1714.37,1343.6 1718.41,1342.99 1722.45,1342.31 1726.49,1341.57 1730.53,1340.77 1734.57,1339.9 1738.61,1338.98 1742.65,1338 1746.69,1336.96 1750.73,1335.86 1754.77,1334.69 1758.81,1333.47 1762.85,1332.19 1766.89,1330.85 1770.93,1329.45 1774.97,1327.99 1779.01,1326.47 1783.05,1324.89 1787.09,1323.25 1791.14,1321.55 1795.18,1319.8 1799.22,1317.98 1803.26,1316.11 1807.3,1314.18 1811.34,1312.19 1815.38,1310.14 1819.42,1308.04 1823.46,1305.88 1827.5,1303.66 1831.54,1301.39 1835.58,1299.05 1839.62,1296.67 1843.66,1294.22 1847.7,1291.72 1851.74,1289.17 1855.78,1286.56 1859.82,1283.89 1863.86,1281.17 1867.9,1278.39 1871.94,1275.56 1875.98,1272.68 1880.02,1269.74 1884.07,1266.75 1888.11,1263.71 1892.15,1260.61 1896.19,1257.46 1900.23,1254.26 1904.27,1251.01 1908.31,1247.7 1912.35,1244.34 1916.39,1240.94 1920.43,1237.48 1924.47,1233.97 1928.51,1230.41 1932.55,1226.8 1936.59,1223.15 1940.63,1219.44 1944.67,1215.69 1948.71,1211.89 1952.75,1208.04 1956.79,1204.14 1960.83,1200.2 1964.87,1196.2 1968.91,1192.17 1972.95,1188.09 1977,1183.96 1981.04,1179.79 1985.08,1175.57 1989.12,1171.31 1993.16,1167 1997.2,1162.66 2001.24,1158.27 2005.28,1153.83 2009.32,1149.36 2013.36,1144.84 2017.4,1140.29 2021.44,1135.69 2025.48,1131.05 2029.52,1126.37 2033.56,1121.66 2037.6,1116.9 2041.64,1112.11 2045.68,1107.28 2049.72,1102.41 2053.76,1097.51 2057.8,1092.57 2061.84,1087.59 2065.88,1082.58 2069.93,1077.53 2073.97,1072.45 2078.01,1067.34 2082.05,1062.19 2086.09,1057.01 2090.13,1051.8 2094.17,1046.55 2098.21,1041.28 2102.25,1035.97 2106.29,1030.63 2110.33,1025.27 2114.37,1019.87 2118.41,1014.45 2122.45,1009 2126.49,1003.52 2130.53,998.016 2134.57,992.484 2138.61,986.927 2142.65,981.345 2146.69,975.738 2150.73,970.107 2154.77,964.452 2158.81,958.775 2162.86,953.075 2166.9,947.353 2170.94,941.611 2174.98,935.847 2179.02,929.76 2183.06,923.559 2187.1,917.338 2191.14,911.1 2195.18,904.844 2199.22,898.571 2203.26,892.281 2207.3,885.976 2211.34,879.656 2215.38,873.321 2219.42,866.973 2223.46,860.611 2227.5,854.237 2231.54,847.851 2235.58,841.454 2239.62,835.046 2243.66,828.628 2247.7,822.201 2251.74,815.765 2255.79,809.321 2259.83,802.869 2263.87,796.411 2267.91,789.947 2271.95,783.477 2275.99,777.002 2280.03,770.523 2284.07,764.041 2288.11,757.556 2292.15,751.068 "/>
<path clip-path="url(#clip070)" d="M1791.79 300.469 L2281.37 300.469 L2281.37 93.1086 L1791.79 93.1086  Z" fill="#ffffff" fill-rule="evenodd" fill-opacity="1"/>
<polyline clip-path="url(#clip070)" style="stroke:#000000; stroke-linecap:round; stroke-linejoin:round; stroke-width:4; stroke-opacity:1; fill:none" points="1791.79,300.469 2281.37,300.469 2281.37,93.1086 1791.79,93.1086 1791.79,300.469 "/>
<polyline clip-path="url(#clip070)" style="stroke:#800080; stroke-linecap:round; stroke-linejoin:round; stroke-width:4; stroke-opacity:1; fill:none" points="1815.59,144.949 1958.35,144.949 "/>
<path clip-path="url(#clip070)" d="M1986.82 145.724 L1986.82 158.386 L1994.32 158.386 Q1998.09 158.386 1999.9 156.835 Q2001.73 155.261 2001.73 152.043 Q2001.73 148.803 1999.9 147.275 Q1998.09 145.724 1994.32 145.724 L1986.82 145.724 M1986.82 131.511 L1986.82 141.928 L1993.74 141.928 Q1997.17 141.928 1998.83 140.655 Q2000.52 139.358 2000.52 136.719 Q2000.52 134.104 1998.83 132.807 Q1997.17 131.511 1993.74 131.511 L1986.82 131.511 M1982.14 127.669 L1994.09 127.669 Q1999.43 127.669 2002.33 129.891 Q2005.22 132.113 2005.22 136.21 Q2005.22 139.382 2003.74 141.257 Q2002.26 143.131 1999.39 143.594 Q2002.84 144.335 2004.74 146.696 Q2006.66 149.034 2006.66 152.553 Q2006.66 157.182 2003.51 159.705 Q2000.36 162.229 1994.55 162.229 L1982.14 162.229 L1982.14 127.669 Z" fill="#000000" fill-rule="nonzero" fill-opacity="1" /><path clip-path="url(#clip070)" d="M2024.53 139.289 Q2021.1 139.289 2019.11 141.974 Q2017.12 144.636 2017.12 149.289 Q2017.12 153.942 2019.09 156.627 Q2021.08 159.289 2024.53 159.289 Q2027.93 159.289 2029.92 156.604 Q2031.91 153.918 2031.91 149.289 Q2031.91 144.682 2029.92 141.997 Q2027.93 139.289 2024.53 139.289 M2024.53 135.678 Q2030.08 135.678 2033.25 139.289 Q2036.42 142.9 2036.42 149.289 Q2036.42 155.655 2033.25 159.289 Q2030.08 162.9 2024.53 162.9 Q2018.95 162.9 2015.78 159.289 Q2012.63 155.655 2012.63 149.289 Q2012.63 142.9 2015.78 139.289 Q2018.95 135.678 2024.53 135.678 Z" fill="#000000" fill-rule="nonzero" fill-opacity="1" /><path clip-path="url(#clip070)" d="M2043.05 151.997 L2043.05 136.303 L2047.3 136.303 L2047.3 151.835 Q2047.3 155.516 2048.74 157.368 Q2050.17 159.196 2053.05 159.196 Q2056.49 159.196 2058.49 156.997 Q2060.5 154.798 2060.5 151.002 L2060.5 136.303 L2064.76 136.303 L2064.76 162.229 L2060.5 162.229 L2060.5 158.247 Q2058.95 160.608 2056.89 161.766 Q2054.85 162.9 2052.14 162.9 Q2047.67 162.9 2045.36 160.122 Q2043.05 157.344 2043.05 151.997 M2053.76 135.678 L2053.76 135.678 Z" fill="#000000" fill-rule="nonzero" fill-opacity="1" /><path clip-path="url(#clip070)" d="M2095.08 146.581 L2095.08 162.229 L2090.82 162.229 L2090.82 146.719 Q2090.82 143.039 2089.39 141.21 Q2087.95 139.382 2085.08 139.382 Q2081.63 139.382 2079.64 141.581 Q2077.65 143.78 2077.65 147.576 L2077.65 162.229 L2073.37 162.229 L2073.37 136.303 L2077.65 136.303 L2077.65 140.331 Q2079.18 137.993 2081.24 136.835 Q2083.32 135.678 2086.03 135.678 Q2090.5 135.678 2092.79 138.456 Q2095.08 141.21 2095.08 146.581 Z" fill="#000000" fill-rule="nonzero" fill-opacity="1" /><path clip-path="url(#clip070)" d="M2120.64 140.238 L2120.64 126.21 L2124.9 126.21 L2124.9 162.229 L2120.64 162.229 L2120.64 158.34 Q2119.29 160.655 2117.23 161.789 Q2115.2 162.9 2112.33 162.9 Q2107.63 162.9 2104.67 159.15 Q2101.73 155.4 2101.73 149.289 Q2101.73 143.178 2104.67 139.428 Q2107.63 135.678 2112.33 135.678 Q2115.2 135.678 2117.23 136.812 Q2119.29 137.923 2120.64 140.238 M2106.12 149.289 Q2106.12 153.988 2108.04 156.673 Q2109.99 159.335 2113.37 159.335 Q2116.75 159.335 2118.69 156.673 Q2120.64 153.988 2120.64 149.289 Q2120.64 144.59 2118.69 141.928 Q2116.75 139.243 2113.37 139.243 Q2109.99 139.243 2108.04 141.928 Q2106.12 144.59 2106.12 149.289 Z" fill="#000000" fill-rule="nonzero" fill-opacity="1" /><path clip-path="url(#clip070)" d="M2150.2 137.067 L2150.2 141.094 Q2148.39 140.169 2146.45 139.706 Q2144.5 139.243 2142.42 139.243 Q2139.25 139.243 2137.65 140.215 Q2136.08 141.187 2136.08 143.131 Q2136.08 144.613 2137.21 145.469 Q2138.35 146.303 2141.77 147.067 L2143.23 147.391 Q2147.77 148.363 2149.67 150.145 Q2151.59 151.905 2151.59 155.076 Q2151.59 158.687 2148.72 160.793 Q2145.87 162.9 2140.87 162.9 Q2138.79 162.9 2136.52 162.483 Q2134.27 162.09 2131.77 161.28 L2131.77 156.881 Q2134.13 158.108 2136.42 158.733 Q2138.72 159.335 2140.96 159.335 Q2143.97 159.335 2145.59 158.317 Q2147.21 157.275 2147.21 155.4 Q2147.21 153.664 2146.03 152.738 Q2144.87 151.812 2140.92 150.956 L2139.43 150.608 Q2135.48 149.775 2133.72 148.062 Q2131.96 146.326 2131.96 143.317 Q2131.96 139.659 2134.55 137.669 Q2137.14 135.678 2141.91 135.678 Q2144.27 135.678 2146.35 136.025 Q2148.44 136.372 2150.2 137.067 Z" fill="#000000" fill-rule="nonzero" fill-opacity="1" /><path clip-path="url(#clip070)" d="M2194.34 128.803 L2194.34 133.363 Q2191.68 132.09 2189.32 131.465 Q2186.96 130.84 2184.76 130.84 Q2180.94 130.84 2178.85 132.321 Q2176.79 133.803 2176.79 136.534 Q2176.79 138.826 2178.16 140.007 Q2179.55 141.164 2183.39 141.882 L2186.22 142.46 Q2191.45 143.456 2193.92 145.979 Q2196.42 148.479 2196.42 152.692 Q2196.42 157.715 2193.04 160.307 Q2189.69 162.9 2183.18 162.9 Q2180.73 162.9 2177.95 162.344 Q2175.2 161.789 2172.23 160.701 L2172.23 155.886 Q2175.08 157.483 2177.81 158.293 Q2180.54 159.104 2183.18 159.104 Q2187.19 159.104 2189.36 157.53 Q2191.54 155.956 2191.54 153.039 Q2191.54 150.493 2189.97 149.057 Q2188.41 147.622 2184.85 146.905 L2182 146.349 Q2176.77 145.307 2174.43 143.085 Q2172.1 140.863 2172.1 136.905 Q2172.1 132.321 2175.31 129.682 Q2178.55 127.044 2184.23 127.044 Q2186.66 127.044 2189.18 127.483 Q2191.7 127.923 2194.34 128.803 Z" fill="#000000" fill-rule="nonzero" fill-opacity="1" /><path clip-path="url(#clip070)" d="M2203.72 127.669 L2210.68 127.669 L2219.5 151.187 L2228.37 127.669 L2235.34 127.669 L2235.34 162.229 L2230.78 162.229 L2230.78 131.882 L2221.86 155.585 L2217.16 155.585 L2208.25 131.882 L2208.25 162.229 L2203.72 162.229 L2203.72 127.669 Z" fill="#000000" fill-rule="nonzero" fill-opacity="1" /><polyline clip-path="url(#clip070)" style="stroke:#ff0000; stroke-linecap:round; stroke-linejoin:round; stroke-width:4; stroke-opacity:1; fill:none" points="1815.59,196.789 1958.35,196.789 "/>
<path clip-path="url(#clip070)" d="M1986.82 197.564 L1986.82 210.226 L1994.32 210.226 Q1998.09 210.226 1999.9 208.675 Q2001.73 207.101 2001.73 203.883 Q2001.73 200.643 1999.9 199.115 Q1998.09 197.564 1994.32 197.564 L1986.82 197.564 M1986.82 183.351 L1986.82 193.768 L1993.74 193.768 Q1997.17 193.768 1998.83 192.495 Q2000.52 191.198 2000.52 188.559 Q2000.52 185.944 1998.83 184.647 Q1997.17 183.351 1993.74 183.351 L1986.82 183.351 M1982.14 179.509 L1994.09 179.509 Q1999.43 179.509 2002.33 181.731 Q2005.22 183.953 2005.22 188.05 Q2005.22 191.222 2003.74 193.097 Q2002.26 194.971 1999.39 195.434 Q2002.84 196.175 2004.74 198.536 Q2006.66 200.874 2006.66 204.393 Q2006.66 209.022 2003.51 211.545 Q2000.36 214.069 1994.55 214.069 L1982.14 214.069 L1982.14 179.509 Z" fill="#000000" fill-rule="nonzero" fill-opacity="1" /><path clip-path="url(#clip070)" d="M2024.53 191.129 Q2021.1 191.129 2019.11 193.814 Q2017.12 196.476 2017.12 201.129 Q2017.12 205.782 2019.09 208.467 Q2021.08 211.129 2024.53 211.129 Q2027.93 211.129 2029.92 208.444 Q2031.91 205.758 2031.91 201.129 Q2031.91 196.522 2029.92 193.837 Q2027.93 191.129 2024.53 191.129 M2024.53 187.518 Q2030.08 187.518 2033.25 191.129 Q2036.42 194.74 2036.42 201.129 Q2036.42 207.495 2033.25 211.129 Q2030.08 214.74 2024.53 214.74 Q2018.95 214.74 2015.78 211.129 Q2012.63 207.495 2012.63 201.129 Q2012.63 194.74 2015.78 191.129 Q2018.95 187.518 2024.53 187.518 Z" fill="#000000" fill-rule="nonzero" fill-opacity="1" /><path clip-path="url(#clip070)" d="M2043.05 203.837 L2043.05 188.143 L2047.3 188.143 L2047.3 203.675 Q2047.3 207.356 2048.74 209.208 Q2050.17 211.036 2053.05 211.036 Q2056.49 211.036 2058.49 208.837 Q2060.5 206.638 2060.5 202.842 L2060.5 188.143 L2064.76 188.143 L2064.76 214.069 L2060.5 214.069 L2060.5 210.087 Q2058.95 212.448 2056.89 213.606 Q2054.85 214.74 2052.14 214.74 Q2047.67 214.74 2045.36 211.962 Q2043.05 209.184 2043.05 203.837 M2053.76 187.518 L2053.76 187.518 Z" fill="#000000" fill-rule="nonzero" fill-opacity="1" /><path clip-path="url(#clip070)" d="M2095.08 198.421 L2095.08 214.069 L2090.82 214.069 L2090.82 198.559 Q2090.82 194.879 2089.39 193.05 Q2087.95 191.222 2085.08 191.222 Q2081.63 191.222 2079.64 193.421 Q2077.65 195.62 2077.65 199.416 L2077.65 214.069 L2073.37 214.069 L2073.37 188.143 L2077.65 188.143 L2077.65 192.171 Q2079.18 189.833 2081.24 188.675 Q2083.32 187.518 2086.03 187.518 Q2090.5 187.518 2092.79 190.296 Q2095.08 193.05 2095.08 198.421 Z" fill="#000000" fill-rule="nonzero" fill-opacity="1" /><path clip-path="url(#clip070)" d="M2120.64 192.078 L2120.64 178.05 L2124.9 178.05 L2124.9 214.069 L2120.64 214.069 L2120.64 210.18 Q2119.29 212.495 2117.23 213.629 Q2115.2 214.74 2112.33 214.74 Q2107.63 214.74 2104.67 210.99 Q2101.73 207.24 2101.73 201.129 Q2101.73 195.018 2104.67 191.268 Q2107.63 187.518 2112.33 187.518 Q2115.2 187.518 2117.23 188.652 Q2119.29 189.763 2120.64 192.078 M2106.12 201.129 Q2106.12 205.828 2108.04 208.513 Q2109.99 211.175 2113.37 211.175 Q2116.75 211.175 2118.69 208.513 Q2120.64 205.828 2120.64 201.129 Q2120.64 196.43 2118.69 193.768 Q2116.75 191.083 2113.37 191.083 Q2109.99 191.083 2108.04 193.768 Q2106.12 196.43 2106.12 201.129 Z" fill="#000000" fill-rule="nonzero" fill-opacity="1" /><path clip-path="url(#clip070)" d="M2150.2 188.907 L2150.2 192.934 Q2148.39 192.009 2146.45 191.546 Q2144.5 191.083 2142.42 191.083 Q2139.25 191.083 2137.65 192.055 Q2136.08 193.027 2136.08 194.971 Q2136.08 196.453 2137.21 197.309 Q2138.35 198.143 2141.77 198.907 L2143.23 199.231 Q2147.77 200.203 2149.67 201.985 Q2151.59 203.745 2151.59 206.916 Q2151.59 210.527 2148.72 212.633 Q2145.87 214.74 2140.87 214.74 Q2138.79 214.74 2136.52 214.323 Q2134.27 213.93 2131.77 213.12 L2131.77 208.721 Q2134.13 209.948 2136.42 210.573 Q2138.72 211.175 2140.96 211.175 Q2143.97 211.175 2145.59 210.157 Q2147.21 209.115 2147.21 207.24 Q2147.21 205.504 2146.03 204.578 Q2144.87 203.652 2140.92 202.796 L2139.43 202.448 Q2135.48 201.615 2133.72 199.902 Q2131.96 198.166 2131.96 195.157 Q2131.96 191.499 2134.55 189.509 Q2137.14 187.518 2141.91 187.518 Q2144.27 187.518 2146.35 187.865 Q2148.44 188.212 2150.2 188.907 Z" fill="#000000" fill-rule="nonzero" fill-opacity="1" /><path clip-path="url(#clip070)" d="M2173.62 179.509 L2180.59 179.509 L2189.41 203.027 L2198.28 179.509 L2205.24 179.509 L2205.24 214.069 L2200.68 214.069 L2200.68 183.722 L2191.77 207.425 L2187.07 207.425 L2178.16 183.722 L2178.16 214.069 L2173.62 214.069 L2173.62 179.509 Z" fill="#000000" fill-rule="nonzero" fill-opacity="1" /><path clip-path="url(#clip070)" d="M2240.41 182.171 L2240.41 187.101 Q2238.04 184.902 2235.36 183.814 Q2232.7 182.726 2229.69 182.726 Q2223.76 182.726 2220.61 186.36 Q2217.47 189.972 2217.47 196.823 Q2217.47 203.652 2220.61 207.286 Q2223.76 210.897 2229.69 210.897 Q2232.7 210.897 2235.36 209.809 Q2238.04 208.721 2240.41 206.522 L2240.41 211.407 Q2237.95 213.073 2235.2 213.907 Q2232.47 214.74 2229.41 214.74 Q2221.56 214.74 2217.05 209.948 Q2212.54 205.133 2212.54 196.823 Q2212.54 188.49 2217.05 183.698 Q2221.56 178.884 2229.41 178.884 Q2232.51 178.884 2235.24 179.717 Q2238 180.527 2240.41 182.171 Z" fill="#000000" fill-rule="nonzero" fill-opacity="1" /><polyline clip-path="url(#clip070)" style="stroke:#0000ff; stroke-linecap:round; stroke-linejoin:round; stroke-width:4; stroke-opacity:1; fill:none" stroke-dasharray="16, 10" points="1815.59,248.629 1958.35,248.629 "/>
<path clip-path="url(#clip070)" d="M1986.82 249.404 L1986.82 262.066 L1994.32 262.066 Q1998.09 262.066 1999.9 260.515 Q2001.73 258.941 2001.73 255.723 Q2001.73 252.483 1999.9 250.955 Q1998.09 249.404 1994.32 249.404 L1986.82 249.404 M1986.82 235.191 L1986.82 245.608 L1993.74 245.608 Q1997.17 245.608 1998.83 244.335 Q2000.52 243.038 2000.52 240.399 Q2000.52 237.784 1998.83 236.487 Q1997.17 235.191 1993.74 235.191 L1986.82 235.191 M1982.14 231.349 L1994.09 231.349 Q1999.43 231.349 2002.33 233.571 Q2005.22 235.793 2005.22 239.89 Q2005.22 243.062 2003.74 244.937 Q2002.26 246.811 1999.39 247.274 Q2002.84 248.015 2004.74 250.376 Q2006.66 252.714 2006.66 256.233 Q2006.66 260.862 2003.51 263.385 Q2000.36 265.909 1994.55 265.909 L1982.14 265.909 L1982.14 231.349 Z" fill="#000000" fill-rule="nonzero" fill-opacity="1" /><path clip-path="url(#clip070)" d="M2024.53 242.969 Q2021.1 242.969 2019.11 245.654 Q2017.12 248.316 2017.12 252.969 Q2017.12 257.622 2019.09 260.307 Q2021.08 262.969 2024.53 262.969 Q2027.93 262.969 2029.92 260.284 Q2031.91 257.598 2031.91 252.969 Q2031.91 248.362 2029.92 245.677 Q2027.93 242.969 2024.53 242.969 M2024.53 239.358 Q2030.08 239.358 2033.25 242.969 Q2036.42 246.58 2036.42 252.969 Q2036.42 259.335 2033.25 262.969 Q2030.08 266.58 2024.53 266.58 Q2018.95 266.58 2015.78 262.969 Q2012.63 259.335 2012.63 252.969 Q2012.63 246.58 2015.78 242.969 Q2018.95 239.358 2024.53 239.358 Z" fill="#000000" fill-rule="nonzero" fill-opacity="1" /><path clip-path="url(#clip070)" d="M2043.05 255.677 L2043.05 239.983 L2047.3 239.983 L2047.3 255.515 Q2047.3 259.196 2048.74 261.048 Q2050.17 262.876 2053.05 262.876 Q2056.49 262.876 2058.49 260.677 Q2060.5 258.478 2060.5 254.682 L2060.5 239.983 L2064.76 239.983 L2064.76 265.909 L2060.5 265.909 L2060.5 261.927 Q2058.95 264.288 2056.89 265.446 Q2054.85 266.58 2052.14 266.58 Q2047.67 266.58 2045.36 263.802 Q2043.05 261.024 2043.05 255.677 M2053.76 239.358 L2053.76 239.358 Z" fill="#000000" fill-rule="nonzero" fill-opacity="1" /><path clip-path="url(#clip070)" d="M2095.08 250.261 L2095.08 265.909 L2090.82 265.909 L2090.82 250.399 Q2090.82 246.719 2089.39 244.89 Q2087.95 243.062 2085.08 243.062 Q2081.63 243.062 2079.64 245.261 Q2077.65 247.46 2077.65 251.256 L2077.65 265.909 L2073.37 265.909 L2073.37 239.983 L2077.65 239.983 L2077.65 244.011 Q2079.18 241.673 2081.24 240.515 Q2083.32 239.358 2086.03 239.358 Q2090.5 239.358 2092.79 242.136 Q2095.08 244.89 2095.08 250.261 Z" fill="#000000" fill-rule="nonzero" fill-opacity="1" /><path clip-path="url(#clip070)" d="M2120.64 243.918 L2120.64 229.89 L2124.9 229.89 L2124.9 265.909 L2120.64 265.909 L2120.64 262.02 Q2119.29 264.335 2117.23 265.469 Q2115.2 266.58 2112.33 266.58 Q2107.63 266.58 2104.67 262.83 Q2101.73 259.08 2101.73 252.969 Q2101.73 246.858 2104.67 243.108 Q2107.63 239.358 2112.33 239.358 Q2115.2 239.358 2117.23 240.492 Q2119.29 241.603 2120.64 243.918 M2106.12 252.969 Q2106.12 257.668 2108.04 260.353 Q2109.99 263.015 2113.37 263.015 Q2116.75 263.015 2118.69 260.353 Q2120.64 257.668 2120.64 252.969 Q2120.64 248.27 2118.69 245.608 Q2116.75 242.923 2113.37 242.923 Q2109.99 242.923 2108.04 245.608 Q2106.12 248.27 2106.12 252.969 Z" fill="#000000" fill-rule="nonzero" fill-opacity="1" /><path clip-path="url(#clip070)" d="M2150.2 240.747 L2150.2 244.774 Q2148.39 243.849 2146.45 243.386 Q2144.5 242.923 2142.42 242.923 Q2139.25 242.923 2137.65 243.895 Q2136.08 244.867 2136.08 246.811 Q2136.08 248.293 2137.21 249.149 Q2138.35 249.983 2141.77 250.747 L2143.23 251.071 Q2147.77 252.043 2149.67 253.825 Q2151.59 255.585 2151.59 258.756 Q2151.59 262.367 2148.72 264.473 Q2145.87 266.58 2140.87 266.58 Q2138.79 266.58 2136.52 266.163 Q2134.27 265.77 2131.77 264.96 L2131.77 260.561 Q2134.13 261.788 2136.42 262.413 Q2138.72 263.015 2140.96 263.015 Q2143.97 263.015 2145.59 261.997 Q2147.21 260.955 2147.21 259.08 Q2147.21 257.344 2146.03 256.418 Q2144.87 255.492 2140.92 254.636 L2139.43 254.288 Q2135.48 253.455 2133.72 251.742 Q2131.96 250.006 2131.96 246.997 Q2131.96 243.339 2134.55 241.349 Q2137.14 239.358 2141.91 239.358 Q2144.27 239.358 2146.35 239.705 Q2148.44 240.052 2150.2 240.747 Z" fill="#000000" fill-rule="nonzero" fill-opacity="1" /><path clip-path="url(#clip070)" d="M2178.3 235.191 L2178.3 248.177 L2184.18 248.177 Q2187.44 248.177 2189.23 246.487 Q2191.01 244.798 2191.01 241.673 Q2191.01 238.571 2189.23 236.881 Q2187.44 235.191 2184.18 235.191 L2178.3 235.191 M2173.62 231.349 L2184.18 231.349 Q2189.99 231.349 2192.95 233.987 Q2195.94 236.603 2195.94 241.673 Q2195.94 246.788 2192.95 249.404 Q2189.99 252.02 2184.18 252.02 L2178.3 252.02 L2178.3 265.909 L2173.62 265.909 L2173.62 231.349 Z" fill="#000000" fill-rule="nonzero" fill-opacity="1" /><path clip-path="url(#clip070)" d="M2228.09 234.011 L2228.09 238.941 Q2225.73 236.742 2223.04 235.654 Q2220.38 234.566 2217.37 234.566 Q2211.45 234.566 2208.3 238.2 Q2205.15 241.812 2205.15 248.663 Q2205.15 255.492 2208.3 259.126 Q2211.45 262.737 2217.37 262.737 Q2220.38 262.737 2223.04 261.649 Q2225.73 260.561 2228.09 258.362 L2228.09 263.247 Q2225.64 264.913 2222.88 265.747 Q2220.15 266.58 2217.1 266.58 Q2209.25 266.58 2204.73 261.788 Q2200.22 256.973 2200.22 248.663 Q2200.22 240.33 2204.73 235.538 Q2209.25 230.724 2217.1 230.724 Q2220.2 230.724 2222.93 231.557 Q2225.68 232.367 2228.09 234.011 Z" fill="#000000" fill-rule="nonzero" fill-opacity="1" /><path clip-path="url(#clip070)" d="M2235.31 231.349 L2257.16 231.349 L2257.16 235.284 L2239.99 235.284 L2239.99 245.515 L2256.45 245.515 L2256.45 249.45 L2239.99 249.45 L2239.99 261.973 L2257.58 261.973 L2257.58 265.909 L2235.31 265.909 L2235.31 231.349 Z" fill="#000000" fill-rule="nonzero" fill-opacity="1" /></svg>
